<svg xmlns="http://www.w3.org/2000/svg" xmlns:xlink="http://www.w3.org/1999/xlink" width="200" zoomAndPan="magnify" viewBox="0 0 150 149.999998" height="200" preserveAspectRatio="xMidYMid meet" version="1.0"><defs><clipPath id="24153cfbf8"><path d="M 103 60 L 140.574219 60 L 140.574219 63 L 103 63 Z M 103 60 " clip-rule="nonzero"/></clipPath><clipPath id="61dd17438f"><path d="M 9.324219 39 L 94 39 L 94 96 L 9.324219 96 Z M 9.324219 39 " clip-rule="nonzero"/></clipPath><clipPath id="de3543fccb"><path d="M 9.324219 80 L 94 80 L 94 83 L 9.324219 83 Z M 9.324219 80 " clip-rule="nonzero"/></clipPath><clipPath id="f725256d01"><path d="M 23 103 L 80 103 L 80 115.785156 L 23 115.785156 Z M 23 103 " clip-rule="nonzero"/></clipPath><clipPath id="5163cfd16d"><path d="M 103 34.035156 L 140.574219 34.035156 L 140.574219 110 L 103 110 Z M 103 34.035156 " clip-rule="nonzero"/></clipPath></defs><g clip-path="url(#24153cfbf8)"><path fill="#ff66c4" d="M 139.347656 62.882812 L 104.5 62.882812 C 103.730469 62.882812 103.191406 62.265625 103.191406 61.574219 C 103.191406 60.882812 103.730469 60.34375 104.5 60.34375 L 139.347656 60.34375 C 140.039062 60.34375 140.652344 60.882812 140.652344 61.574219 C 140.652344 62.265625 140.039062 62.882812 139.347656 62.882812 Z M 139.347656 62.882812 " fill-opacity="1" fill-rule="evenodd"/></g><path fill="#ff66c4" d="M 130.347656 72.421875 L 113.421875 72.421875 C 112.730469 72.421875 112.113281 71.882812 112.113281 71.191406 C 112.113281 70.5 112.730469 69.882812 113.421875 69.882812 L 130.347656 69.882812 C 131.113281 69.882812 131.652344 70.5 131.652344 71.191406 C 131.652344 71.882812 131.113281 72.421875 130.347656 72.421875 Z M 130.347656 72.421875 " fill-opacity="1" fill-rule="evenodd"/><path fill="#ff66c4" d="M 130.347656 81.574219 L 113.421875 81.574219 C 112.730469 81.574219 112.113281 80.960938 112.113281 80.269531 C 112.113281 79.574219 112.730469 78.960938 113.421875 78.960938 L 130.347656 78.960938 C 131.113281 78.960938 131.652344 79.574219 131.652344 80.269531 C 131.652344 80.960938 131.113281 81.574219 130.347656 81.574219 Z M 130.347656 81.574219 " fill-opacity="1" fill-rule="evenodd"/><path fill="#ff66c4" d="M 130.347656 90.652344 L 113.421875 90.652344 C 112.730469 90.652344 112.113281 90.039062 112.113281 89.34375 C 112.113281 88.652344 112.730469 88.039062 113.421875 88.039062 L 130.347656 88.039062 C 131.113281 88.039062 131.652344 88.652344 131.652344 89.34375 C 131.652344 90.039062 131.113281 90.652344 130.347656 90.652344 Z M 130.347656 90.652344 " fill-opacity="1" fill-rule="evenodd"/><path fill="#ff66c4" d="M 130.347656 99.730469 L 113.421875 99.730469 C 112.730469 99.730469 112.113281 99.113281 112.113281 98.421875 C 112.113281 97.730469 112.730469 97.191406 113.421875 97.191406 L 130.347656 97.191406 C 131.113281 97.191406 131.652344 97.730469 131.652344 98.421875 C 131.652344 99.113281 131.113281 99.730469 130.347656 99.730469 Z M 130.347656 99.730469 " fill-opacity="1" fill-rule="evenodd"/><path fill="#ff66c4" d="M 126.882812 52.730469 L 116.960938 52.730469 C 116.191406 52.730469 115.652344 52.191406 115.652344 51.496094 L 115.652344 45.421875 C 115.652344 44.726562 116.191406 44.191406 116.960938 44.191406 L 126.882812 44.191406 C 127.578125 44.191406 128.191406 44.726562 128.191406 45.421875 L 128.191406 51.496094 C 128.191406 52.191406 127.578125 52.730469 126.882812 52.730469 Z M 118.191406 50.191406 L 125.578125 50.191406 L 125.578125 46.726562 L 118.191406 46.726562 Z M 118.191406 50.191406 " fill-opacity="1" fill-rule="evenodd"/><g clip-path="url(#61dd17438f)"><path fill="#0cc0df" d="M 86.5 95.34375 L 16.265625 95.34375 C 12.417969 95.34375 9.339844 92.191406 9.339844 88.34375 L 9.339844 46.652344 C 9.339844 42.804688 12.417969 39.652344 16.265625 39.652344 L 86.5 39.652344 C 90.34375 39.652344 93.5 42.804688 93.5 46.652344 L 93.5 88.34375 C 93.5 92.191406 90.34375 95.34375 86.5 95.34375 Z M 16.265625 42.265625 C 13.878906 42.265625 11.878906 44.191406 11.878906 46.652344 L 11.878906 88.34375 C 11.878906 90.808594 13.878906 92.730469 16.265625 92.730469 L 86.5 92.730469 C 88.960938 92.730469 90.882812 90.808594 90.882812 88.34375 L 90.882812 46.652344 C 90.882812 44.191406 88.960938 42.265625 86.5 42.265625 Z M 16.265625 42.265625 " fill-opacity="1" fill-rule="evenodd"/></g><g clip-path="url(#de3543fccb)"><path fill="#0cc0df" d="M 92.191406 82.804688 L 10.648438 82.804688 C 9.878906 82.804688 9.339844 82.191406 9.339844 81.5 C 9.339844 80.804688 9.878906 80.191406 10.648438 80.191406 L 92.191406 80.191406 C 92.882812 80.191406 93.5 80.804688 93.5 81.5 C 93.5 82.191406 92.882812 82.804688 92.191406 82.804688 Z M 92.191406 82.804688 " fill-opacity="1" fill-rule="evenodd"/></g><path fill="#0cc0df" d="M 63.265625 106.347656 L 39.496094 106.347656 C 39.113281 106.347656 38.726562 106.191406 38.496094 105.882812 C 38.265625 105.578125 38.1875 105.113281 38.265625 104.730469 L 41.265625 93.652344 C 41.417969 93.113281 41.957031 92.730469 42.574219 92.730469 L 60.265625 92.730469 C 60.804688 92.730469 61.34375 93.113281 61.496094 93.652344 L 64.496094 104.652344 C 64.574219 104.808594 64.574219 104.882812 64.574219 105.113281 C 64.574219 105.808594 64.035156 106.347656 63.265625 106.347656 Z M 41.1875 103.808594 L 61.574219 103.808594 L 59.265625 95.34375 L 43.496094 95.34375 Z M 41.1875 103.808594 " fill-opacity="1" fill-rule="evenodd"/><g clip-path="url(#f725256d01)"><path fill="#0cc0df" d="M 78.421875 115.960938 L 24.34375 115.960938 C 23.648438 115.960938 23.113281 115.347656 23.113281 114.652344 L 23.113281 105.113281 C 23.113281 104.347656 23.648438 103.808594 24.34375 103.808594 L 78.421875 103.808594 C 79.113281 103.808594 79.730469 104.347656 79.730469 105.113281 L 79.730469 114.652344 C 79.730469 115.347656 79.113281 115.960938 78.421875 115.960938 Z M 25.648438 113.347656 L 77.113281 113.347656 L 77.113281 106.347656 L 25.648438 106.347656 Z M 25.648438 113.347656 " fill-opacity="1" fill-rule="evenodd"/></g><g clip-path="url(#5163cfd16d)"><path fill="#0cc0df" d="M 135.882812 109.269531 L 107.882812 109.269531 C 105.269531 109.269531 103.191406 107.191406 103.191406 104.578125 L 103.191406 38.726562 C 103.191406 36.113281 105.269531 34.035156 107.882812 34.035156 L 135.882812 34.035156 C 138.5 34.035156 140.652344 36.113281 140.652344 38.726562 L 140.652344 104.578125 C 140.652344 107.191406 138.5 109.269531 135.882812 109.269531 Z M 107.882812 36.574219 C 106.730469 36.574219 105.730469 37.574219 105.730469 38.726562 L 105.730469 104.578125 C 105.730469 105.808594 106.730469 106.730469 107.882812 106.730469 L 135.882812 106.730469 C 137.113281 106.730469 138.039062 105.808594 138.039062 104.578125 L 138.039062 38.726562 C 138.039062 37.574219 137.113281 36.574219 135.882812 36.574219 Z M 107.882812 36.574219 " fill-opacity="1" fill-rule="evenodd"/></g><path fill="#ff66c4" d="M 66.496094 58.113281 L 36.265625 58.113281 C 35.574219 58.113281 35.035156 57.5 35.035156 56.804688 C 35.035156 56.113281 35.574219 55.496094 36.265625 55.496094 L 66.496094 55.496094 C 67.191406 55.496094 67.804688 56.113281 67.804688 56.804688 C 67.804688 57.5 67.191406 58.113281 66.496094 58.113281 Z M 66.496094 58.113281 " fill-opacity="1" fill-rule="evenodd"/><path fill="#ff66c4" d="M 66.496094 66.960938 L 36.265625 66.960938 C 35.574219 66.960938 35.035156 66.34375 35.035156 65.652344 C 35.035156 64.960938 35.574219 64.34375 36.265625 64.34375 L 66.496094 64.34375 C 67.191406 64.34375 67.804688 64.960938 67.804688 65.652344 C 67.804688 66.34375 67.191406 66.960938 66.496094 66.960938 Z M 66.496094 66.960938 " fill-opacity="1" fill-rule="evenodd"/></svg>