<svg xmlns="http://www.w3.org/2000/svg" xmlns:xlink="http://www.w3.org/1999/xlink" width="500" zoomAndPan="magnify" viewBox="0 0 375 225" height="300" preserveAspectRatio="xMidYMid meet" version="1.0"><defs><g/><clipPath id="8fdfd2a2f3"><path d="M 0 0 L 142.5 0 L 142.5 225 L 0 225 Z M 0 0 " clip-rule="nonzero"/></clipPath><clipPath id="cdf4f6a3cb"><path d="M 130.011719 0 L 142.5 0 L 142.5 225 L 130.011719 225 Z M 130.011719 0 " clip-rule="nonzero"/></clipPath><clipPath id="6c9ba2dd19"><path d="M 52 87 L 109.5 87 L 109.5 144.722656 L 52 144.722656 Z M 52 87 " clip-rule="nonzero"/></clipPath><clipPath id="7aa63b980d"><path d="M 19.5 54.722656 L 98 54.722656 L 98 133 L 19.5 133 Z M 19.5 54.722656 " clip-rule="nonzero"/></clipPath></defs><g clip-path="url(#8fdfd2a2f3)"><path fill="#0097b2" d="M -40.625 -29.6875 L 142.5 -29.6875 L 142.5 246.429688 L -40.625 246.429688 Z M -40.625 -29.6875 " fill-opacity="1" fill-rule="nonzero"/></g><g clip-path="url(#cdf4f6a3cb)"><path fill="#ffffff" d="M 130.011719 0 L 142.5 0 L 142.5 225.015625 L 130.011719 225.015625 Z M 130.011719 0 " fill-opacity="1" fill-rule="nonzero"/></g><g clip-path="url(#6c9ba2dd19)"><path fill="#ffffff" d="M 108.769531 120.703125 L 100.859375 111.960938 L 95.089844 96.953125 C 94.945312 96.578125 94.710938 96.273438 94.386719 96.035156 C 94.0625 95.800781 93.699219 95.671875 93.296875 95.648438 C 80.546875 94.953125 59.996094 92.332031 55.636719 87.972656 C 55.445312 87.777344 55.226562 87.625 54.972656 87.515625 C 54.722656 87.40625 54.460938 87.351562 54.1875 87.351562 C 53.914062 87.347656 53.648438 87.398438 53.394531 87.503906 C 53.144531 87.605469 52.917969 87.753906 52.726562 87.949219 C 52.53125 88.140625 52.382812 88.363281 52.28125 88.617188 C 52.175781 88.871094 52.125 89.136719 52.128906 89.410156 C 52.128906 89.683594 52.1875 89.945312 52.292969 90.195312 C 52.402344 90.449219 52.554688 90.667969 52.75 90.859375 C 57.109375 95.21875 59.730469 115.769531 60.425781 128.519531 C 60.449219 128.917969 60.578125 129.28125 60.816406 129.609375 C 61.050781 129.933594 61.355469 130.167969 61.734375 130.3125 L 76.738281 136.082031 L 85.480469 143.992188 C 85.671875 144.167969 85.894531 144.300781 86.140625 144.390625 C 86.382812 144.480469 86.636719 144.523438 86.898438 144.519531 C 87.160156 144.511719 87.414062 144.457031 87.652344 144.351562 C 87.894531 144.25 88.105469 144.105469 88.292969 143.921875 L 108.699219 123.511719 C 108.882812 123.328125 109.027344 123.113281 109.132812 122.875 C 109.234375 122.632812 109.289062 122.382812 109.296875 122.121094 C 109.300781 121.859375 109.261719 121.605469 109.167969 121.359375 C 109.078125 121.117188 108.945312 120.894531 108.769531 120.703125 Z M 60.402344 98.5 L 71.125 109.226562 L 71.179688 109.171875 C 70.75 110.019531 70.527344 110.917969 70.519531 111.867188 C 70.519531 112.269531 70.558594 112.667969 70.636719 113.0625 C 70.714844 113.457031 70.832031 113.839844 70.988281 114.210938 C 71.140625 114.582031 71.328125 114.933594 71.550781 115.269531 C 71.777344 115.601562 72.03125 115.910156 72.3125 116.195312 C 72.597656 116.480469 72.90625 116.734375 73.242188 116.957031 C 73.574219 117.179688 73.929688 117.371094 74.300781 117.523438 C 74.671875 117.675781 75.054688 117.792969 75.449219 117.871094 C 75.84375 117.949219 76.242188 117.988281 76.644531 117.988281 C 77.042969 117.988281 77.441406 117.949219 77.835938 117.871094 C 78.230469 117.792969 78.613281 117.675781 78.984375 117.523438 C 79.355469 117.371094 79.710938 117.179688 80.042969 116.957031 C 80.378906 116.734375 80.6875 116.480469 80.972656 116.195312 C 81.257812 115.910156 81.511719 115.601562 81.734375 115.269531 C 81.957031 114.933594 82.144531 114.582031 82.300781 114.210938 C 82.453125 113.839844 82.570312 113.457031 82.648438 113.0625 C 82.726562 112.667969 82.765625 112.269531 82.765625 111.867188 C 82.765625 111.464844 82.726562 111.066406 82.648438 110.671875 C 82.570312 110.277344 82.453125 109.894531 82.300781 109.523438 C 82.144531 109.152344 81.957031 108.800781 81.734375 108.464844 C 81.511719 108.132812 81.257812 107.820312 80.972656 107.539062 C 80.6875 107.253906 80.378906 107 80.042969 106.777344 C 79.710938 106.554688 79.355469 106.363281 78.984375 106.210938 C 78.613281 106.058594 78.230469 105.941406 77.835938 105.863281 C 77.441406 105.785156 77.042969 105.746094 76.644531 105.746094 C 75.695312 105.75 74.796875 105.96875 73.949219 106.394531 L 74.003906 106.34375 L 63.28125 95.617188 C 72.65625 97.761719 82.144531 99.105469 91.746094 99.648438 L 96.703125 112.542969 L 77.316406 131.933594 L 64.425781 126.96875 C 63.882812 117.367188 62.535156 107.878906 60.390625 98.503906 Z M 74.601562 111.867188 C 74.601562 111.597656 74.652344 111.335938 74.757812 111.085938 C 74.859375 110.835938 75.007812 110.617188 75.199219 110.425781 C 75.390625 110.234375 75.613281 110.085938 75.863281 109.980469 C 76.113281 109.878906 76.371094 109.828125 76.644531 109.828125 C 76.914062 109.828125 77.171875 109.878906 77.425781 109.980469 C 77.675781 110.085938 77.894531 110.234375 78.085938 110.425781 C 78.277344 110.617188 78.425781 110.835938 78.527344 111.085938 C 78.632812 111.335938 78.683594 111.597656 78.683594 111.867188 C 78.683594 112.136719 78.632812 112.398438 78.527344 112.648438 C 78.425781 112.898438 78.277344 113.117188 78.085938 113.308594 C 77.894531 113.5 77.675781 113.648438 77.425781 113.753906 C 77.171875 113.855469 76.914062 113.90625 76.644531 113.90625 C 76.371094 113.90625 76.113281 113.855469 75.863281 113.753906 C 75.613281 113.648438 75.390625 113.5 75.199219 113.308594 C 75.007812 113.117188 74.859375 112.898438 74.757812 112.648438 C 74.652344 112.398438 74.601562 112.136719 74.601562 111.867188 Z M 86.777344 139.664062 L 80.785156 134.242188 L 99.019531 116.011719 L 104.4375 122 Z M 86.777344 139.664062 " fill-opacity="1" fill-rule="nonzero"/></g><g clip-path="url(#7aa63b980d)"><path fill="#ffffff" d="M 45.433594 116.546875 C 45.242188 116.355469 45.019531 116.207031 44.769531 116.105469 C 44.519531 116 44.261719 115.949219 43.988281 115.949219 C 43.71875 115.949219 43.457031 116 43.207031 116.105469 C 42.957031 116.207031 42.738281 116.355469 42.546875 116.546875 L 40.769531 118.324219 C 39.96875 117.089844 39.265625 115.804688 38.648438 114.46875 C 38.035156 113.132812 37.519531 111.761719 37.105469 110.351562 C 36.6875 108.941406 36.375 107.507812 36.164062 106.054688 C 35.953125 104.601562 35.847656 103.136719 35.847656 101.667969 C 35.847656 100.195312 35.953125 98.734375 36.164062 97.28125 C 36.375 95.824219 36.6875 94.390625 37.105469 92.984375 C 37.519531 91.574219 38.035156 90.199219 38.648438 88.863281 C 39.265625 87.527344 39.96875 86.242188 40.769531 85.011719 L 42.539062 86.78125 C 42.730469 86.972656 42.953125 87.121094 43.203125 87.222656 C 43.453125 87.328125 43.714844 87.378906 43.984375 87.378906 C 44.253906 87.378906 44.515625 87.328125 44.765625 87.222656 C 45.015625 87.121094 45.234375 86.972656 45.425781 86.78125 L 51.550781 80.660156 C 51.742188 80.46875 51.886719 80.246094 51.992188 79.996094 C 52.09375 79.746094 52.148438 79.488281 52.148438 79.214844 C 52.148438 78.945312 52.09375 78.683594 51.992188 78.433594 C 51.886719 78.183594 51.742188 77.964844 51.550781 77.773438 L 49.777344 76 C 51.011719 75.203125 52.296875 74.496094 53.632812 73.882812 C 54.96875 73.269531 56.339844 72.753906 57.75 72.335938 C 59.160156 71.917969 60.59375 71.605469 62.046875 71.394531 C 63.503906 71.183594 64.964844 71.078125 66.433594 71.078125 C 67.90625 71.078125 69.367188 71.183594 70.820312 71.394531 C 72.277344 71.605469 73.710938 71.917969 75.121094 72.335938 C 76.527344 72.753906 77.902344 73.269531 79.238281 73.882812 C 80.574219 74.496094 81.859375 75.203125 83.09375 76 L 81.3125 77.78125 C 81.121094 77.972656 80.976562 78.191406 80.871094 78.441406 C 80.769531 78.691406 80.714844 78.953125 80.714844 79.222656 C 80.714844 79.492188 80.769531 79.753906 80.871094 80.003906 C 80.976562 80.253906 81.121094 80.472656 81.3125 80.664062 L 87.4375 86.789062 C 87.628906 86.980469 87.847656 87.125 88.097656 87.230469 C 88.347656 87.332031 88.609375 87.386719 88.878906 87.386719 C 89.148438 87.386719 89.410156 87.332031 89.660156 87.230469 C 89.910156 87.125 90.132812 86.980469 90.324219 86.789062 L 96.445312 80.664062 C 96.636719 80.472656 96.785156 80.253906 96.886719 80.003906 C 96.992188 79.753906 97.042969 79.492188 97.042969 79.222656 C 97.042969 78.953125 96.992188 78.691406 96.886719 78.441406 C 96.785156 78.191406 96.636719 77.972656 96.445312 77.78125 L 90.324219 71.65625 C 90.132812 71.464844 89.910156 71.316406 89.660156 71.214844 C 89.410156 71.109375 89.148438 71.058594 88.878906 71.058594 C 88.609375 71.058594 88.347656 71.109375 88.097656 71.214844 C 87.847656 71.316406 87.628906 71.464844 87.4375 71.65625 L 86.007812 73.085938 C 83.960938 71.679688 81.789062 70.507812 79.492188 69.570312 C 77.191406 68.632812 74.820312 67.945312 72.378906 67.515625 C 69.933594 67.085938 67.46875 66.917969 64.988281 67.015625 C 62.507812 67.113281 60.066406 67.472656 57.664062 68.09375 L 63.269531 62.710938 C 63.636719 62.824219 64.011719 62.882812 64.398438 62.886719 C 64.664062 62.886719 64.929688 62.863281 65.195312 62.808594 C 65.457031 62.757812 65.710938 62.679688 65.960938 62.578125 C 66.207031 62.472656 66.441406 62.347656 66.664062 62.199219 C 66.886719 62.050781 67.09375 61.882812 67.285156 61.691406 C 67.472656 61.503906 67.644531 61.296875 67.792969 61.074219 C 67.941406 60.851562 68.066406 60.617188 68.167969 60.367188 C 68.269531 60.121094 68.347656 59.863281 68.402344 59.601562 C 68.453125 59.339844 68.480469 59.074219 68.480469 58.804688 C 68.480469 58.539062 68.453125 58.273438 68.402344 58.007812 C 68.347656 57.746094 68.269531 57.492188 68.167969 57.242188 C 68.066406 56.996094 67.941406 56.761719 67.792969 56.539062 C 67.644531 56.316406 67.472656 56.109375 67.285156 55.917969 C 67.09375 55.730469 66.886719 55.5625 66.664062 55.414062 C 66.441406 55.261719 66.207031 55.136719 65.960938 55.035156 C 65.710938 54.933594 65.457031 54.855469 65.195312 54.800781 C 64.929688 54.75 64.664062 54.722656 64.398438 54.722656 C 64.128906 54.722656 63.863281 54.75 63.601562 54.800781 C 63.339844 54.855469 63.082031 54.933594 62.835938 55.035156 C 62.589844 55.136719 62.351562 55.261719 62.128906 55.414062 C 61.90625 55.5625 61.703125 55.730469 61.511719 55.917969 C 61.324219 56.109375 61.152344 56.316406 61.003906 56.539062 C 60.855469 56.761719 60.730469 56.996094 60.628906 57.242188 C 60.523438 57.492188 60.445312 57.746094 60.394531 58.007812 C 60.34375 58.273438 60.316406 58.539062 60.316406 58.804688 C 60.320312 59.132812 60.363281 59.457031 60.445312 59.773438 L 46.730469 72.945312 L 45.433594 71.648438 C 45.242188 71.457031 45.019531 71.308594 44.769531 71.207031 C 44.519531 71.101562 44.261719 71.050781 43.988281 71.050781 C 43.71875 71.050781 43.457031 71.101562 43.207031 71.207031 C 42.957031 71.308594 42.738281 71.457031 42.546875 71.648438 L 36.425781 77.769531 C 36.234375 77.960938 36.085938 78.183594 35.980469 78.433594 C 35.878906 78.683594 35.828125 78.945312 35.828125 79.214844 C 35.828125 79.484375 35.878906 79.746094 35.980469 79.996094 C 36.085938 80.246094 36.234375 80.464844 36.425781 80.65625 L 37.71875 81.953125 L 24.550781 95.667969 C 24.230469 95.585938 23.910156 95.542969 23.582031 95.539062 C 23.3125 95.539062 23.046875 95.566406 22.785156 95.617188 C 22.523438 95.671875 22.265625 95.75 22.019531 95.851562 C 21.773438 95.953125 21.535156 96.078125 21.3125 96.226562 C 21.089844 96.378906 20.886719 96.546875 20.695312 96.734375 C 20.507812 96.925781 20.335938 97.132812 20.1875 97.355469 C 20.039062 97.578125 19.914062 97.8125 19.8125 98.058594 C 19.707031 98.308594 19.628906 98.5625 19.578125 98.824219 C 19.527344 99.089844 19.5 99.355469 19.5 99.621094 C 19.5 99.890625 19.527344 100.15625 19.578125 100.417969 C 19.628906 100.679688 19.707031 100.9375 19.8125 101.183594 C 19.914062 101.433594 20.039062 101.667969 20.1875 101.890625 C 20.335938 102.113281 20.507812 102.320312 20.695312 102.507812 C 20.886719 102.699219 21.089844 102.867188 21.3125 103.015625 C 21.535156 103.164062 21.773438 103.289062 22.019531 103.394531 C 22.265625 103.496094 22.523438 103.574219 22.785156 103.625 C 23.046875 103.675781 23.3125 103.703125 23.582031 103.703125 C 23.851562 103.703125 24.113281 103.675781 24.378906 103.625 C 24.640625 103.574219 24.894531 103.496094 25.144531 103.394531 C 25.390625 103.289062 25.625 103.164062 25.847656 103.015625 C 26.070312 102.867188 26.277344 102.699219 26.46875 102.507812 C 26.65625 102.320312 26.828125 102.113281 26.976562 101.890625 C 27.125 101.667969 27.25 101.433594 27.351562 101.183594 C 27.457031 100.9375 27.53125 100.679688 27.585938 100.417969 C 27.636719 100.15625 27.664062 99.890625 27.664062 99.621094 C 27.65625 99.242188 27.597656 98.867188 27.488281 98.5 L 32.871094 92.886719 C 32.25 95.292969 31.890625 97.734375 31.792969 100.214844 C 31.699219 102.695312 31.863281 105.160156 32.296875 107.605469 C 32.726562 110.046875 33.410156 112.421875 34.351562 114.71875 C 35.289062 117.015625 36.460938 119.191406 37.867188 121.238281 L 36.4375 122.664062 C 36.246094 122.855469 36.101562 123.078125 35.996094 123.328125 C 35.894531 123.578125 35.839844 123.835938 35.839844 124.109375 C 35.839844 124.378906 35.894531 124.640625 35.996094 124.890625 C 36.101562 125.140625 36.246094 125.359375 36.4375 125.550781 L 42.5625 131.671875 C 42.753906 131.863281 42.972656 132.011719 43.222656 132.117188 C 43.472656 132.21875 43.734375 132.269531 44.003906 132.269531 C 44.273438 132.269531 44.535156 132.21875 44.785156 132.117188 C 45.035156 132.011719 45.253906 131.863281 45.445312 131.671875 L 51.570312 125.550781 C 51.761719 125.359375 51.90625 125.140625 52.011719 124.890625 C 52.113281 124.640625 52.167969 124.378906 52.167969 124.109375 C 52.167969 123.835938 52.113281 123.578125 52.011719 123.328125 C 51.90625 123.078125 51.761719 122.855469 51.570312 122.664062 Z M 92.125 79.214844 L 88.886719 82.449219 L 85.652344 79.214844 L 88.886719 75.976562 Z M 43.988281 75.976562 L 47.226562 79.214844 L 43.988281 82.449219 L 40.753906 79.214844 Z M 43.988281 127.347656 L 40.753906 124.113281 L 43.988281 120.875 L 47.226562 124.113281 Z M 43.988281 127.347656 " fill-opacity="1" fill-rule="nonzero"/></g><g fill="#ffffff" fill-opacity="1"><g transform="translate(171.35633, 82.360396)"><g><path d="M 15.5 0.28125 C 10.695312 0.28125 7.035156 -1.242188 4.515625 -4.296875 C 2.460938 -6.785156 1.4375 -9.859375 1.4375 -13.515625 L 1.4375 -13.703125 C 1.4375 -17.390625 2.460938 -20.476562 4.515625 -22.96875 C 7.003906 -25.976562 10.648438 -27.484375 15.453125 -27.484375 C 19.046875 -27.484375 22.007812 -26.675781 24.34375 -25.0625 C 26.6875 -23.445312 28.085938 -21.289062 28.546875 -18.59375 L 22.09375 -18.59375 C 21.9375 -19.96875 21.265625 -21.015625 20.078125 -21.734375 C 18.898438 -22.460938 17.359375 -22.828125 15.453125 -22.828125 C 13.054688 -22.828125 11.15625 -21.96875 9.75 -20.25 C 8.351562 -18.53125 7.65625 -16.285156 7.65625 -13.515625 C 7.65625 -10.773438 8.363281 -8.566406 9.78125 -6.890625 C 11.195312 -5.210938 13.085938 -4.375 15.453125 -4.375 C 17.609375 -4.375 19.285156 -4.78125 20.484375 -5.59375 C 21.679688 -6.414062 22.601562 -7.78125 23.25 -9.6875 L 18.125 -9.6875 L 18.125 -14.15625 L 28.453125 -14.15625 L 28.453125 0 L 24.03125 0 L 23.75 -2.578125 C 21.539062 -0.671875 18.789062 0.28125 15.5 0.28125 Z M 15.5 0.28125 "/></g></g></g><g fill="#ffffff" fill-opacity="1"><g transform="translate(202.029493, 82.360396)"><g><path d="M 2.359375 0 L 2.359375 -19.609375 L 8.484375 -19.609375 L 8.765625 -17.625 C 9.710938 -19.25 11.832031 -20.0625 15.125 -20.0625 C 16.175781 -20.0625 16.992188 -19.941406 17.578125 -19.703125 L 17.578125 -14.984375 C 16.585938 -15.234375 15.691406 -15.359375 14.890625 -15.359375 C 13.265625 -15.359375 11.804688 -14.925781 10.515625 -14.0625 C 9.222656 -13.207031 8.578125 -12.101562 8.578125 -10.75 L 8.578125 0 Z M 2.359375 0 "/></g></g></g><g fill="#ffffff" fill-opacity="1"><g transform="translate(220.341138, 82.360396)"><g><path d="M 8.125 0.28125 C 6.269531 0.28125 4.660156 -0.222656 3.296875 -1.234375 C 1.929688 -2.253906 1.25 -3.734375 1.25 -5.671875 C 1.25 -7.054688 1.691406 -8.21875 2.578125 -9.15625 C 3.472656 -10.09375 4.71875 -10.757812 6.3125 -11.15625 C 7.914062 -11.5625 9.429688 -11.832031 10.859375 -11.96875 C 12.285156 -12.101562 13.941406 -12.171875 15.828125 -12.171875 C 15.828125 -13.429688 15.488281 -14.316406 14.8125 -14.828125 C 14.132812 -15.335938 13.179688 -15.59375 11.953125 -15.59375 C 9.429688 -15.59375 8.125 -14.929688 8.03125 -13.609375 L 2.40625 -13.609375 C 3.070312 -17.910156 6.160156 -20.0625 11.671875 -20.0625 C 15.453125 -20.0625 18.125 -19.304688 19.6875 -17.796875 C 21.257812 -16.296875 22.046875 -13.945312 22.046875 -10.75 L 22.046875 0 L 16.234375 0 L 15.828125 -2.171875 C 14.535156 -0.535156 11.96875 0.28125 8.125 0.28125 Z M 11.4375 -4.203125 C 11.957031 -4.203125 12.675781 -4.351562 13.59375 -4.65625 C 14.519531 -4.96875 15.265625 -5.351562 15.828125 -5.8125 L 15.828125 -8.390625 C 13.796875 -8.390625 11.882812 -8.195312 10.09375 -7.8125 C 8.3125 -7.425781 7.421875 -6.789062 7.421875 -5.90625 C 7.421875 -4.769531 8.757812 -4.203125 11.4375 -4.203125 Z M 11.4375 -4.203125 "/></g></g></g><g fill="#ffffff" fill-opacity="1"><g transform="translate(244.049415, 82.360396)"><g><path d="M 2.359375 7.890625 L 2.359375 -19.609375 L 8.203125 -19.609375 L 8.578125 -17.71875 C 10.210938 -19.28125 12.488281 -20.0625 15.40625 -20.0625 C 18.351562 -20.0625 20.648438 -19.144531 22.296875 -17.3125 C 23.941406 -15.488281 24.765625 -13.039062 24.765625 -9.96875 C 24.765625 -7.132812 23.972656 -4.71875 22.390625 -2.71875 C 20.804688 -0.71875 18.785156 0.28125 16.328125 0.28125 C 12.796875 0.28125 10.210938 -0.566406 8.578125 -2.265625 L 8.578125 7.890625 Z M 13.9375 -4.203125 C 15.25 -4.203125 16.34375 -4.738281 17.21875 -5.8125 C 18.101562 -6.882812 18.546875 -8.269531 18.546875 -9.96875 L 18.546875 -10.46875 C 18.546875 -12.25 18.078125 -13.546875 17.140625 -14.359375 C 16.203125 -15.179688 14.992188 -15.59375 13.515625 -15.59375 C 12.253906 -15.59375 11.113281 -15.195312 10.09375 -14.40625 C 9.082031 -13.625 8.578125 -12.664062 8.578125 -11.53125 L 8.578125 -8.4375 C 8.578125 -7.238281 9.109375 -6.234375 10.171875 -5.421875 C 11.234375 -4.609375 12.488281 -4.203125 13.9375 -4.203125 Z M 13.9375 -4.203125 "/></g></g></g><g fill="#ffffff" fill-opacity="1"><g transform="translate(270.248442, 82.360396)"><g><path d="M 2.359375 0 L 2.359375 -26.984375 L 8.578125 -26.984375 L 8.578125 -17.765625 C 10.054688 -19.296875 12.238281 -20.0625 15.125 -20.0625 C 17.832031 -20.0625 19.9375 -19.300781 21.4375 -17.78125 C 22.945312 -16.257812 23.703125 -14.113281 23.703125 -11.34375 L 23.703125 0 L 17.484375 0 L 17.484375 -10.65625 C 17.484375 -12.46875 17.128906 -13.742188 16.421875 -14.484375 C 15.710938 -15.222656 14.664062 -15.59375 13.28125 -15.59375 C 12.144531 -15.59375 11.078125 -15.144531 10.078125 -14.25 C 9.078125 -13.363281 8.578125 -12.332031 8.578125 -11.15625 L 8.578125 0 Z M 2.359375 0 "/></g></g></g><g fill="#ffffff" fill-opacity="1"><g transform="translate(295.847844, 82.360396)"><g><path d="M 2.4375 -21.03125 L 2.4375 -26.984375 L 8.53125 -26.984375 L 8.53125 -21.03125 Z M 2.359375 0 L 2.359375 -19.609375 L 8.578125 -19.609375 L 8.578125 0 Z M 2.359375 0 "/></g></g></g><g fill="#ffffff" fill-opacity="1"><g transform="translate(306.779481, 82.360396)"><g><path d="M 13.046875 0.28125 C 9.234375 0.28125 6.34375 -0.660156 4.375 -2.546875 C 2.414062 -4.441406 1.4375 -6.878906 1.4375 -9.859375 C 1.4375 -12.847656 2.414062 -15.296875 4.375 -17.203125 C 6.34375 -19.109375 9.234375 -20.0625 13.046875 -20.0625 C 16.398438 -20.0625 18.898438 -19.453125 20.546875 -18.234375 C 22.191406 -17.023438 23.210938 -15.222656 23.609375 -12.828125 L 17.390625 -12.828125 C 16.992188 -14.671875 15.546875 -15.59375 13.046875 -15.59375 C 11.296875 -15.59375 9.957031 -15.097656 9.03125 -14.109375 C 8.113281 -13.128906 7.65625 -11.71875 7.65625 -9.875 C 7.65625 -8.03125 8.113281 -6.625 9.03125 -5.65625 C 9.957031 -4.6875 11.296875 -4.203125 13.046875 -4.203125 C 15.546875 -4.203125 16.992188 -5.125 17.390625 -6.96875 L 23.609375 -6.96875 C 23.210938 -4.5625 22.195312 -2.75 20.5625 -1.53125 C 18.9375 -0.320312 16.429688 0.28125 13.046875 0.28125 Z M 13.046875 0.28125 "/></g></g></g><g fill="#ffffff" fill-opacity="1"><g transform="translate(171.35633, 128.110394)"><g><path d="M 9.875 0.28125 C 7.414062 0.28125 5.394531 -0.71875 3.8125 -2.71875 C 2.226562 -4.71875 1.4375 -7.132812 1.4375 -9.96875 C 1.4375 -13.039062 2.25 -15.488281 3.875 -17.3125 C 5.5 -19.144531 7.800781 -20.0625 10.78125 -20.0625 C 13.769531 -20.0625 16.050781 -19.28125 17.625 -17.71875 L 17.625 -26.984375 L 23.84375 -26.984375 L 23.84375 0 L 17.984375 0 L 17.625 -2.265625 C 15.988281 -0.566406 13.40625 0.28125 9.875 0.28125 Z M 12.265625 -4.203125 C 13.710938 -4.203125 14.96875 -4.609375 16.03125 -5.421875 C 17.09375 -6.234375 17.625 -7.238281 17.625 -8.4375 L 17.625 -11.53125 C 17.625 -12.695312 17.125 -13.664062 16.125 -14.4375 C 15.125 -15.207031 13.976562 -15.59375 12.6875 -15.59375 C 11.207031 -15.59375 10 -15.179688 9.0625 -14.359375 C 8.125 -13.546875 7.65625 -12.25 7.65625 -10.46875 L 7.65625 -9.96875 C 7.65625 -8.269531 8.097656 -6.882812 8.984375 -5.8125 C 9.878906 -4.738281 10.972656 -4.203125 12.265625 -4.203125 Z M 12.265625 -4.203125 "/></g></g></g><g fill="#ffffff" fill-opacity="1"><g transform="translate(197.555357, 128.110394)"><g><path d="M 12.6875 0.28125 C 8.9375 0.28125 6.125 -0.671875 4.25 -2.578125 C 2.375 -4.484375 1.4375 -6.914062 1.4375 -9.875 C 1.4375 -12.882812 2.347656 -15.332031 4.171875 -17.21875 C 6.003906 -19.113281 8.796875 -20.0625 12.546875 -20.0625 C 16.265625 -20.0625 19.007812 -19.113281 20.78125 -17.21875 C 22.550781 -15.332031 23.4375 -12.882812 23.4375 -9.875 L 23.4375 -7.609375 L 7.65625 -7.609375 C 7.84375 -6.316406 8.34375 -5.425781 9.15625 -4.9375 C 9.96875 -4.445312 11.128906 -4.203125 12.640625 -4.203125 C 14.453125 -4.203125 15.632812 -4.785156 16.1875 -5.953125 L 22.46875 -5.953125 C 22.25 -4.171875 21.21875 -2.6875 19.375 -1.5 C 17.53125 -0.3125 15.300781 0.28125 12.6875 0.28125 Z M 7.703125 -12 L 17.296875 -12 C 16.867188 -13.40625 16.285156 -14.351562 15.546875 -14.84375 C 14.804688 -15.34375 13.789062 -15.59375 12.5 -15.59375 C 11.207031 -15.59375 10.191406 -15.34375 9.453125 -14.84375 C 8.710938 -14.351562 8.128906 -13.40625 7.703125 -12 Z M 7.703125 -12 "/></g></g></g><g fill="#ffffff" fill-opacity="1"><g transform="translate(222.186132, 128.110394)"><g><path d="M 11.34375 0.28125 C 5.71875 0.28125 2.414062 -1.71875 1.4375 -5.71875 L 7.609375 -5.71875 C 8.253906 -4.488281 9.421875 -3.875 11.109375 -3.875 C 13.546875 -3.875 14.765625 -4.472656 14.765625 -5.671875 C 14.765625 -6.191406 14.347656 -6.5625 13.515625 -6.78125 C 12.585938 -7.03125 11.507812 -7.257812 10.28125 -7.46875 C 4.46875 -8.457031 1.5625 -10.535156 1.5625 -13.703125 C 1.5625 -17.941406 4.65625 -20.0625 10.84375 -20.0625 C 16.101562 -20.0625 19.222656 -18.0625 20.203125 -14.0625 L 13.96875 -14.0625 C 13.789062 -14.53125 13.609375 -14.867188 13.421875 -15.078125 C 13.234375 -15.296875 12.929688 -15.488281 12.515625 -15.65625 C 12.109375 -15.820312 11.550781 -15.90625 10.84375 -15.90625 C 8.8125 -15.90625 7.796875 -15.289062 7.796875 -14.0625 C 7.796875 -13.851562 7.878906 -13.640625 8.046875 -13.421875 C 8.210938 -13.203125 8.472656 -13.015625 8.828125 -12.859375 C 9.179688 -12.710938 9.535156 -12.578125 9.890625 -12.453125 C 10.242188 -12.328125 10.6875 -12.203125 11.21875 -12.078125 C 11.757812 -11.960938 12.222656 -11.863281 12.609375 -11.78125 C 12.992188 -11.707031 13.46875 -11.613281 14.03125 -11.5 C 14.601562 -11.394531 15.015625 -11.328125 15.265625 -11.296875 C 19.078125 -10.492188 20.984375 -8.832031 20.984375 -6.3125 C 20.984375 -4.226562 20.132812 -2.609375 18.4375 -1.453125 C 16.75 -0.296875 14.382812 0.28125 11.34375 0.28125 Z M 11.34375 0.28125 "/></g></g></g><g fill="#ffffff" fill-opacity="1"><g transform="translate(244.372277, 128.110394)"><g><path d="M 2.4375 -21.03125 L 2.4375 -26.984375 L 8.53125 -26.984375 L 8.53125 -21.03125 Z M 2.359375 0 L 2.359375 -19.609375 L 8.578125 -19.609375 L 8.578125 0 Z M 2.359375 0 "/></g></g></g><g fill="#ffffff" fill-opacity="1"><g transform="translate(255.303913, 128.110394)"><g><path d="M 12.6875 9.359375 C 10.164062 9.359375 7.910156 8.71875 5.921875 7.4375 C 3.941406 6.164062 2.769531 4.703125 2.40625 3.046875 L 9.125 3.046875 C 9.53125 3.785156 10.03125 4.273438 10.625 4.515625 C 11.226562 4.765625 12.007812 4.890625 12.96875 4.890625 C 16.070312 4.890625 17.625 3.351562 17.625 0.28125 L 17.625 -2.265625 C 15.988281 -0.566406 13.40625 0.28125 9.875 0.28125 C 7.414062 0.28125 5.394531 -0.71875 3.8125 -2.71875 C 2.226562 -4.71875 1.4375 -7.132812 1.4375 -9.96875 C 1.4375 -13.039062 2.25 -15.488281 3.875 -17.3125 C 5.5 -19.144531 7.800781 -20.0625 10.78125 -20.0625 C 13.769531 -20.0625 16.050781 -19.28125 17.625 -17.71875 L 17.984375 -19.609375 L 23.84375 -19.609375 L 23.84375 -1.34375 C 23.84375 2.320312 22.988281 5.019531 21.28125 6.75 C 19.582031 8.488281 16.71875 9.359375 12.6875 9.359375 Z M 12.265625 -4.203125 C 13.710938 -4.203125 14.96875 -4.609375 16.03125 -5.421875 C 17.09375 -6.234375 17.625 -7.238281 17.625 -8.4375 L 17.625 -11.53125 C 17.625 -12.695312 17.125 -13.664062 16.125 -14.4375 C 15.125 -15.207031 13.976562 -15.59375 12.6875 -15.59375 C 11.207031 -15.59375 10 -15.179688 9.0625 -14.359375 C 8.125 -13.546875 7.65625 -12.25 7.65625 -10.46875 L 7.65625 -9.96875 C 7.65625 -8.269531 8.097656 -6.882812 8.984375 -5.8125 C 9.878906 -4.738281 10.972656 -4.203125 12.265625 -4.203125 Z M 12.265625 -4.203125 "/></g></g></g><g fill="#ffffff" fill-opacity="1"><g transform="translate(281.50294, 128.110394)"><g><path d="M 2.359375 0 L 2.359375 -19.609375 L 8.203125 -19.609375 L 8.578125 -17.765625 C 10.054688 -19.296875 12.238281 -20.0625 15.125 -20.0625 C 17.832031 -20.0625 19.9375 -19.300781 21.4375 -17.78125 C 22.945312 -16.257812 23.703125 -14.113281 23.703125 -11.34375 L 23.703125 0 L 17.484375 0 L 17.484375 -10.65625 C 17.484375 -12.46875 17.128906 -13.742188 16.421875 -14.484375 C 15.710938 -15.222656 14.664062 -15.59375 13.28125 -15.59375 C 12.144531 -15.59375 11.078125 -15.144531 10.078125 -14.25 C 9.078125 -13.363281 8.578125 -12.332031 8.578125 -11.15625 L 8.578125 0 Z M 2.359375 0 "/></g></g></g><g fill="#ffffff" fill-opacity="1"><g transform="translate(171.368049, 177.949997)"><g><path d="M 5.9375 -12.140625 C 7.914062 -12.140625 9.421875 -11.628906 10.453125 -10.609375 C 11.492188 -9.585938 12.015625 -8.070312 12.015625 -6.0625 C 12.015625 -4.0625 11.492188 -2.550781 10.453125 -1.53125 C 9.421875 -0.507812 7.914062 0 5.9375 0 L 1.578125 0 L 1.578125 -12.140625 Z M 5.796875 -2.015625 C 7.046875 -2.015625 7.976562 -2.332031 8.59375 -2.96875 C 9.21875 -3.613281 9.53125 -4.644531 9.53125 -6.0625 C 9.53125 -7.488281 9.21875 -8.519531 8.59375 -9.15625 C 7.976562 -9.800781 7.046875 -10.125 5.796875 -10.125 L 3.96875 -10.125 L 3.96875 -2.015625 Z M 5.796875 -2.015625 "/></g></g></g><g fill="#ffffff" fill-opacity="1"><g transform="translate(184.336207, 177.949997)"><g><path d="M 2.46875 -10.25 C 2.050781 -10.25 1.710938 -10.375 1.453125 -10.625 C 1.191406 -10.875 1.0625 -11.203125 1.0625 -11.609375 C 1.0625 -11.992188 1.191406 -12.3125 1.453125 -12.5625 C 1.710938 -12.820312 2.050781 -12.953125 2.46875 -12.953125 C 2.738281 -12.953125 2.984375 -12.890625 3.203125 -12.765625 C 3.421875 -12.648438 3.585938 -12.492188 3.703125 -12.296875 C 3.828125 -12.097656 3.890625 -11.867188 3.890625 -11.609375 C 3.890625 -11.347656 3.828125 -11.113281 3.703125 -10.90625 C 3.585938 -10.695312 3.421875 -10.535156 3.203125 -10.421875 C 2.984375 -10.304688 2.738281 -10.25 2.46875 -10.25 Z M 1.3125 0 L 1.3125 -9.15625 L 3.625 -9.15625 L 3.625 0 Z M 1.3125 0 "/></g></g></g><g fill="#ffffff" fill-opacity="1"><g transform="translate(189.264605, 177.949997)"><g><path d="M 4.75 3.890625 C 3.238281 3.890625 2.125 3.664062 1.40625 3.21875 C 0.6875 2.78125 0.328125 2.164062 0.328125 1.375 C 0.328125 0.882812 0.476562 0.484375 0.78125 0.171875 C 1.09375 -0.128906 1.535156 -0.332031 2.109375 -0.4375 L 2.109375 -0.609375 C 1.796875 -0.796875 1.570312 -1.003906 1.4375 -1.234375 C 1.300781 -1.460938 1.234375 -1.726562 1.234375 -2.03125 C 1.234375 -2.769531 1.710938 -3.265625 2.671875 -3.515625 L 2.671875 -3.6875 C 2.179688 -3.976562 1.8125 -4.332031 1.5625 -4.75 C 1.3125 -5.164062 1.1875 -5.671875 1.1875 -6.265625 C 1.1875 -6.867188 1.328125 -7.398438 1.609375 -7.859375 C 1.890625 -8.328125 2.296875 -8.6875 2.828125 -8.9375 C 3.367188 -9.195312 4.015625 -9.328125 4.765625 -9.328125 C 5.535156 -9.328125 6.144531 -9.195312 6.59375 -8.9375 C 6.875 -9.34375 7.039062 -9.8125 7.09375 -10.34375 L 7.265625 -10.453125 L 8.921875 -10.046875 C 8.867188 -9.609375 8.738281 -9.242188 8.53125 -8.953125 C 8.320312 -8.660156 8.003906 -8.394531 7.578125 -8.15625 L 7.578125 -7.984375 C 8.085938 -7.523438 8.34375 -6.890625 8.34375 -6.078125 C 8.34375 -5.515625 8.203125 -5.007812 7.921875 -4.5625 C 7.640625 -4.113281 7.226562 -3.757812 6.6875 -3.5 C 6.15625 -3.238281 5.515625 -3.109375 4.765625 -3.109375 L 4.421875 -3.109375 C 4.203125 -3.117188 4.046875 -3.125 3.953125 -3.125 C 3.742188 -3.125 3.578125 -3.066406 3.453125 -2.953125 C 3.335938 -2.847656 3.28125 -2.707031 3.28125 -2.53125 C 3.28125 -2.332031 3.359375 -2.175781 3.515625 -2.0625 C 3.671875 -1.957031 3.898438 -1.898438 4.203125 -1.890625 L 6.25 -1.8125 C 8.269531 -1.757812 9.28125 -0.890625 9.28125 0.796875 C 9.28125 1.390625 9.128906 1.914062 8.828125 2.375 C 8.535156 2.84375 8.050781 3.210938 7.375 3.484375 C 6.695312 3.753906 5.820312 3.890625 4.75 3.890625 Z M 4.765625 -4.71875 C 5.210938 -4.71875 5.5625 -4.847656 5.8125 -5.109375 C 6.0625 -5.367188 6.1875 -5.738281 6.1875 -6.21875 C 6.1875 -6.695312 6.0625 -7.066406 5.8125 -7.328125 C 5.5625 -7.585938 5.210938 -7.71875 4.765625 -7.71875 C 4.316406 -7.71875 3.972656 -7.585938 3.734375 -7.328125 C 3.492188 -7.066406 3.375 -6.695312 3.375 -6.21875 C 3.375 -5.726562 3.492188 -5.351562 3.734375 -5.09375 C 3.972656 -4.84375 4.316406 -4.71875 4.765625 -4.71875 Z M 4.75 2.21875 C 5.53125 2.21875 6.097656 2.101562 6.453125 1.875 C 6.816406 1.65625 7 1.367188 7 1.015625 C 7 0.734375 6.90625 0.523438 6.71875 0.390625 C 6.539062 0.253906 6.253906 0.179688 5.859375 0.171875 L 4.046875 0.078125 C 3.984375 0.078125 3.925781 0.0703125 3.875 0.0625 C 3.820312 0.0625 3.769531 0.0625 3.71875 0.0625 C 3.332031 0.0625 3.035156 0.144531 2.828125 0.3125 C 2.628906 0.476562 2.53125 0.707031 2.53125 1 C 2.53125 1.382812 2.710938 1.679688 3.078125 1.890625 C 3.453125 2.109375 4.007812 2.21875 4.75 2.21875 Z M 4.75 2.21875 "/></g></g></g><g fill="#ffffff" fill-opacity="1"><g transform="translate(198.781225, 177.949997)"><g><path d="M 2.46875 -10.25 C 2.050781 -10.25 1.710938 -10.375 1.453125 -10.625 C 1.191406 -10.875 1.0625 -11.203125 1.0625 -11.609375 C 1.0625 -11.992188 1.191406 -12.3125 1.453125 -12.5625 C 1.710938 -12.820312 2.050781 -12.953125 2.46875 -12.953125 C 2.738281 -12.953125 2.984375 -12.890625 3.203125 -12.765625 C 3.421875 -12.648438 3.585938 -12.492188 3.703125 -12.296875 C 3.828125 -12.097656 3.890625 -11.867188 3.890625 -11.609375 C 3.890625 -11.347656 3.828125 -11.113281 3.703125 -10.90625 C 3.585938 -10.695312 3.421875 -10.535156 3.203125 -10.421875 C 2.984375 -10.304688 2.738281 -10.25 2.46875 -10.25 Z M 1.3125 0 L 1.3125 -9.15625 L 3.625 -9.15625 L 3.625 0 Z M 1.3125 0 "/></g></g></g><g fill="#ffffff" fill-opacity="1"><g transform="translate(203.709623, 177.949997)"><g><path d="M 6.3125 -2.1875 L 6.921875 -0.484375 C 6.671875 -0.273438 6.351562 -0.113281 5.96875 0 C 5.59375 0.113281 5.171875 0.171875 4.703125 0.171875 C 3.710938 0.171875 2.957031 -0.09375 2.4375 -0.625 C 1.925781 -1.164062 1.671875 -1.953125 1.671875 -2.984375 L 1.671875 -7.34375 L 0.28125 -7.34375 L 0.28125 -9.171875 L 1.671875 -9.171875 L 1.671875 -10.953125 L 3.96875 -11.328125 L 3.96875 -9.171875 L 6.5625 -9.171875 L 6.5625 -7.34375 L 3.96875 -7.34375 L 3.96875 -3.15625 C 3.96875 -2.695312 4.0625 -2.363281 4.25 -2.15625 C 4.4375 -1.945312 4.710938 -1.84375 5.078125 -1.84375 C 5.484375 -1.84375 5.835938 -1.957031 6.140625 -2.1875 Z M 6.3125 -2.1875 "/></g></g></g><g fill="#ffffff" fill-opacity="1"><g transform="translate(210.820123, 177.949997)"><g><path d="M 3.5625 0.171875 C 2.976562 0.171875 2.46875 0.0664062 2.03125 -0.140625 C 1.601562 -0.359375 1.273438 -0.675781 1.046875 -1.09375 C 0.816406 -1.519531 0.703125 -2.023438 0.703125 -2.609375 C 0.703125 -3.148438 0.816406 -3.601562 1.046875 -3.96875 C 1.273438 -4.34375 1.632812 -4.644531 2.125 -4.875 C 2.613281 -5.113281 3.25 -5.296875 4.03125 -5.421875 C 4.582031 -5.503906 5 -5.597656 5.28125 -5.703125 C 5.570312 -5.816406 5.765625 -5.9375 5.859375 -6.0625 C 5.960938 -6.195312 6.015625 -6.367188 6.015625 -6.578125 C 6.015625 -6.867188 5.910156 -7.09375 5.703125 -7.25 C 5.492188 -7.40625 5.15625 -7.484375 4.6875 -7.484375 C 4.175781 -7.484375 3.691406 -7.367188 3.234375 -7.140625 C 2.773438 -6.910156 2.375 -6.613281 2.03125 -6.25 L 1.875 -6.25 L 0.90625 -7.6875 C 1.375 -8.207031 1.941406 -8.609375 2.609375 -8.890625 C 3.273438 -9.179688 4.003906 -9.328125 4.796875 -9.328125 C 6.003906 -9.328125 6.878906 -9.066406 7.421875 -8.546875 C 7.972656 -8.035156 8.25 -7.304688 8.25 -6.359375 L 8.25 -2.390625 C 8.25 -1.984375 8.425781 -1.78125 8.78125 -1.78125 C 8.914062 -1.78125 9.050781 -1.800781 9.1875 -1.84375 L 9.3125 -1.8125 L 9.46875 -0.21875 C 9.34375 -0.132812 9.164062 -0.0664062 8.9375 -0.015625 C 8.707031 0.0351562 8.457031 0.0625 8.1875 0.0625 C 7.644531 0.0625 7.21875 -0.0390625 6.90625 -0.25 C 6.601562 -0.457031 6.382812 -0.785156 6.25 -1.234375 L 6.078125 -1.25 C 5.628906 -0.300781 4.789062 0.171875 3.5625 0.171875 Z M 4.296875 -1.546875 C 4.828125 -1.546875 5.25 -1.722656 5.5625 -2.078125 C 5.882812 -2.429688 6.046875 -2.925781 6.046875 -3.5625 L 6.046875 -4.5 L 5.890625 -4.53125 C 5.753906 -4.414062 5.570312 -4.320312 5.34375 -4.25 C 5.125 -4.175781 4.804688 -4.101562 4.390625 -4.03125 C 3.890625 -3.945312 3.53125 -3.800781 3.3125 -3.59375 C 3.09375 -3.394531 2.984375 -3.113281 2.984375 -2.75 C 2.984375 -2.351562 3.097656 -2.050781 3.328125 -1.84375 C 3.554688 -1.644531 3.878906 -1.546875 4.296875 -1.546875 Z M 4.296875 -1.546875 "/></g></g></g><g fill="#ffffff" fill-opacity="1"><g transform="translate(220.469495, 177.949997)"><g><path d="M 3.796875 0.171875 C 2.972656 0.171875 2.34375 -0.046875 1.90625 -0.484375 C 1.476562 -0.929688 1.265625 -1.613281 1.265625 -2.53125 L 1.265625 -12.828125 L 3.5625 -12.828125 L 3.5625 -2.609375 C 3.5625 -2.054688 3.796875 -1.78125 4.265625 -1.78125 C 4.390625 -1.78125 4.53125 -1.800781 4.6875 -1.84375 L 4.796875 -1.8125 L 5 -0.046875 C 4.875 0.0234375 4.707031 0.078125 4.5 0.109375 C 4.289062 0.148438 4.054688 0.171875 3.796875 0.171875 Z M 3.796875 0.171875 "/></g></g></g><g fill="#ffffff" fill-opacity="1"><g transform="translate(225.729772, 177.949997)"><g/></g></g><g fill="#ffffff" fill-opacity="1"><g transform="translate(229.737206, 177.949997)"><g><path d="M 3.5625 0.171875 C 2.976562 0.171875 2.46875 0.0664062 2.03125 -0.140625 C 1.601562 -0.359375 1.273438 -0.675781 1.046875 -1.09375 C 0.816406 -1.519531 0.703125 -2.023438 0.703125 -2.609375 C 0.703125 -3.148438 0.816406 -3.601562 1.046875 -3.96875 C 1.273438 -4.34375 1.632812 -4.644531 2.125 -4.875 C 2.613281 -5.113281 3.25 -5.296875 4.03125 -5.421875 C 4.582031 -5.503906 5 -5.597656 5.28125 -5.703125 C 5.570312 -5.816406 5.765625 -5.9375 5.859375 -6.0625 C 5.960938 -6.195312 6.015625 -6.367188 6.015625 -6.578125 C 6.015625 -6.867188 5.910156 -7.09375 5.703125 -7.25 C 5.492188 -7.40625 5.15625 -7.484375 4.6875 -7.484375 C 4.175781 -7.484375 3.691406 -7.367188 3.234375 -7.140625 C 2.773438 -6.910156 2.375 -6.613281 2.03125 -6.25 L 1.875 -6.25 L 0.90625 -7.6875 C 1.375 -8.207031 1.941406 -8.609375 2.609375 -8.890625 C 3.273438 -9.179688 4.003906 -9.328125 4.796875 -9.328125 C 6.003906 -9.328125 6.878906 -9.066406 7.421875 -8.546875 C 7.972656 -8.035156 8.25 -7.304688 8.25 -6.359375 L 8.25 -2.390625 C 8.25 -1.984375 8.425781 -1.78125 8.78125 -1.78125 C 8.914062 -1.78125 9.050781 -1.800781 9.1875 -1.84375 L 9.3125 -1.8125 L 9.46875 -0.21875 C 9.34375 -0.132812 9.164062 -0.0664062 8.9375 -0.015625 C 8.707031 0.0351562 8.457031 0.0625 8.1875 0.0625 C 7.644531 0.0625 7.21875 -0.0390625 6.90625 -0.25 C 6.601562 -0.457031 6.382812 -0.785156 6.25 -1.234375 L 6.078125 -1.25 C 5.628906 -0.300781 4.789062 0.171875 3.5625 0.171875 Z M 4.296875 -1.546875 C 4.828125 -1.546875 5.25 -1.722656 5.5625 -2.078125 C 5.882812 -2.429688 6.046875 -2.925781 6.046875 -3.5625 L 6.046875 -4.5 L 5.890625 -4.53125 C 5.753906 -4.414062 5.570312 -4.320312 5.34375 -4.25 C 5.125 -4.175781 4.804688 -4.101562 4.390625 -4.03125 C 3.890625 -3.945312 3.53125 -3.800781 3.3125 -3.59375 C 3.09375 -3.394531 2.984375 -3.113281 2.984375 -2.75 C 2.984375 -2.351562 3.097656 -2.050781 3.328125 -1.84375 C 3.554688 -1.644531 3.878906 -1.546875 4.296875 -1.546875 Z M 4.296875 -1.546875 "/></g></g></g><g fill="#ffffff" fill-opacity="1"><g transform="translate(239.386578, 177.949997)"><g><path d="M 1.3125 0 L 1.3125 -9.15625 L 3.53125 -9.15625 L 3.53125 -7.8125 L 3.703125 -7.765625 C 4.273438 -8.804688 5.195312 -9.328125 6.46875 -9.328125 C 7.53125 -9.328125 8.304688 -9.039062 8.796875 -8.46875 C 9.296875 -7.894531 9.546875 -7.054688 9.546875 -5.953125 L 9.546875 0 L 7.25 0 L 7.25 -5.671875 C 7.25 -6.273438 7.125 -6.710938 6.875 -6.984375 C 6.632812 -7.253906 6.25 -7.390625 5.71875 -7.390625 C 5.050781 -7.390625 4.535156 -7.175781 4.171875 -6.75 C 3.804688 -6.320312 3.625 -5.648438 3.625 -4.734375 L 3.625 0 Z M 1.3125 0 "/></g></g></g><g fill="#ffffff" fill-opacity="1"><g transform="translate(250.106258, 177.949997)"><g><path d="M 4.53125 0.171875 C 3.800781 0.171875 3.15625 0 2.59375 -0.34375 C 2.039062 -0.695312 1.609375 -1.226562 1.296875 -1.9375 C 0.984375 -2.65625 0.828125 -3.535156 0.828125 -4.578125 C 0.828125 -5.617188 0.988281 -6.492188 1.3125 -7.203125 C 1.632812 -7.921875 2.082031 -8.453125 2.65625 -8.796875 C 3.226562 -9.148438 3.890625 -9.328125 4.640625 -9.328125 C 5.210938 -9.328125 5.707031 -9.226562 6.125 -9.03125 C 6.539062 -8.832031 6.894531 -8.53125 7.1875 -8.125 L 7.359375 -8.15625 L 7.359375 -12.828125 L 9.65625 -12.828125 L 9.65625 0 L 7.359375 0 L 7.359375 -1.1875 L 7.1875 -1.21875 C 6.925781 -0.789062 6.570312 -0.453125 6.125 -0.203125 C 5.6875 0.046875 5.15625 0.171875 4.53125 0.171875 Z M 5.265625 -1.78125 C 5.921875 -1.78125 6.4375 -2.007812 6.8125 -2.46875 C 7.1875 -2.925781 7.375 -3.628906 7.375 -4.578125 C 7.375 -5.515625 7.1875 -6.210938 6.8125 -6.671875 C 6.4375 -7.140625 5.921875 -7.375 5.265625 -7.375 C 4.597656 -7.375 4.082031 -7.148438 3.71875 -6.703125 C 3.363281 -6.253906 3.1875 -5.546875 3.1875 -4.578125 C 3.1875 -3.609375 3.363281 -2.898438 3.71875 -2.453125 C 4.082031 -2.003906 4.597656 -1.78125 5.265625 -1.78125 Z M 5.265625 -1.78125 "/></g></g></g><g fill="#ffffff" fill-opacity="1"><g transform="translate(261.074848, 177.949997)"><g/></g></g><g fill="#ffffff" fill-opacity="1"><g transform="translate(265.082282, 177.949997)"><g><path d="M 1.3125 3.703125 L 1.3125 -9.15625 L 3.625 -9.15625 L 3.625 -7.953125 L 3.796875 -7.921875 C 4.066406 -8.390625 4.425781 -8.738281 4.875 -8.96875 C 5.332031 -9.207031 5.863281 -9.328125 6.46875 -9.328125 C 7.207031 -9.328125 7.851562 -9.148438 8.40625 -8.796875 C 8.957031 -8.453125 9.382812 -7.925781 9.6875 -7.21875 C 10 -6.507812 10.15625 -5.628906 10.15625 -4.578125 C 10.15625 -3.523438 9.992188 -2.644531 9.671875 -1.9375 C 9.347656 -1.226562 8.894531 -0.695312 8.3125 -0.34375 C 7.738281 0 7.078125 0.171875 6.328125 0.171875 C 5.753906 0.171875 5.257812 0.078125 4.84375 -0.109375 C 4.425781 -0.304688 4.078125 -0.601562 3.796875 -1 L 3.625 -0.96875 L 3.625 3.703125 Z M 5.6875 -1.78125 C 6.375 -1.78125 6.894531 -2.003906 7.25 -2.453125 C 7.601562 -2.898438 7.78125 -3.609375 7.78125 -4.578125 C 7.78125 -5.546875 7.601562 -6.253906 7.25 -6.703125 C 6.894531 -7.148438 6.375 -7.375 5.6875 -7.375 C 5.039062 -7.375 4.53125 -7.140625 4.15625 -6.671875 C 3.78125 -6.210938 3.59375 -5.515625 3.59375 -4.578125 C 3.59375 -3.640625 3.78125 -2.9375 4.15625 -2.46875 C 4.53125 -2.007812 5.039062 -1.78125 5.6875 -1.78125 Z M 5.6875 -1.78125 "/></g></g></g><g fill="#ffffff" fill-opacity="1"><g transform="translate(276.042575, 177.949997)"><g><path d="M 1.3125 0 L 1.3125 -9.15625 L 3.546875 -9.15625 L 3.546875 -7.796875 L 3.734375 -7.765625 C 3.953125 -8.273438 4.238281 -8.644531 4.59375 -8.875 C 4.957031 -9.113281 5.394531 -9.234375 5.90625 -9.234375 C 6.425781 -9.234375 6.820312 -9.144531 7.09375 -8.96875 L 6.703125 -6.984375 L 6.53125 -6.953125 C 6.382812 -7.015625 6.238281 -7.054688 6.09375 -7.078125 C 5.957031 -7.109375 5.789062 -7.125 5.59375 -7.125 C 4.945312 -7.125 4.457031 -6.898438 4.125 -6.453125 C 3.789062 -6.003906 3.625 -5.28125 3.625 -4.28125 L 3.625 0 Z M 1.3125 0 "/></g></g></g><g fill="#ffffff" fill-opacity="1"><g transform="translate(283.219451, 177.949997)"><g><path d="M 2.46875 -10.25 C 2.050781 -10.25 1.710938 -10.375 1.453125 -10.625 C 1.191406 -10.875 1.0625 -11.203125 1.0625 -11.609375 C 1.0625 -11.992188 1.191406 -12.3125 1.453125 -12.5625 C 1.710938 -12.820312 2.050781 -12.953125 2.46875 -12.953125 C 2.738281 -12.953125 2.984375 -12.890625 3.203125 -12.765625 C 3.421875 -12.648438 3.585938 -12.492188 3.703125 -12.296875 C 3.828125 -12.097656 3.890625 -11.867188 3.890625 -11.609375 C 3.890625 -11.347656 3.828125 -11.113281 3.703125 -10.90625 C 3.585938 -10.695312 3.421875 -10.535156 3.203125 -10.421875 C 2.984375 -10.304688 2.738281 -10.25 2.46875 -10.25 Z M 1.3125 0 L 1.3125 -9.15625 L 3.625 -9.15625 L 3.625 0 Z M 1.3125 0 "/></g></g></g><g fill="#ffffff" fill-opacity="1"><g transform="translate(288.147848, 177.949997)"><g><path d="M 1.3125 0 L 1.3125 -9.15625 L 3.53125 -9.15625 L 3.53125 -7.8125 L 3.703125 -7.765625 C 4.273438 -8.804688 5.195312 -9.328125 6.46875 -9.328125 C 7.53125 -9.328125 8.304688 -9.039062 8.796875 -8.46875 C 9.296875 -7.894531 9.546875 -7.054688 9.546875 -5.953125 L 9.546875 0 L 7.25 0 L 7.25 -5.671875 C 7.25 -6.273438 7.125 -6.710938 6.875 -6.984375 C 6.632812 -7.253906 6.25 -7.390625 5.71875 -7.390625 C 5.050781 -7.390625 4.535156 -7.175781 4.171875 -6.75 C 3.804688 -6.320312 3.625 -5.648438 3.625 -4.734375 L 3.625 0 Z M 1.3125 0 "/></g></g></g><g fill="#ffffff" fill-opacity="1"><g transform="translate(298.867529, 177.949997)"><g><path d="M 6.3125 -2.1875 L 6.921875 -0.484375 C 6.671875 -0.273438 6.351562 -0.113281 5.96875 0 C 5.59375 0.113281 5.171875 0.171875 4.703125 0.171875 C 3.710938 0.171875 2.957031 -0.09375 2.4375 -0.625 C 1.925781 -1.164062 1.671875 -1.953125 1.671875 -2.984375 L 1.671875 -7.34375 L 0.28125 -7.34375 L 0.28125 -9.171875 L 1.671875 -9.171875 L 1.671875 -10.953125 L 3.96875 -11.328125 L 3.96875 -9.171875 L 6.5625 -9.171875 L 6.5625 -7.34375 L 3.96875 -7.34375 L 3.96875 -3.15625 C 3.96875 -2.695312 4.0625 -2.363281 4.25 -2.15625 C 4.4375 -1.945312 4.710938 -1.84375 5.078125 -1.84375 C 5.484375 -1.84375 5.835938 -1.957031 6.140625 -2.1875 Z M 6.3125 -2.1875 "/></g></g></g><g fill="#ffffff" fill-opacity="1"><g transform="translate(305.978029, 177.949997)"><g><path d="M 9.046875 -4.0625 L 3.15625 -4.0625 C 3.226562 -3.257812 3.457031 -2.675781 3.84375 -2.3125 C 4.226562 -1.957031 4.753906 -1.78125 5.421875 -1.78125 C 5.953125 -1.78125 6.378906 -1.875 6.703125 -2.0625 C 7.035156 -2.257812 7.300781 -2.5625 7.5 -2.96875 L 7.671875 -2.96875 L 9.203125 -1.984375 C 8.898438 -1.335938 8.445312 -0.816406 7.84375 -0.421875 C 7.238281 -0.0234375 6.429688 0.171875 5.421875 0.171875 C 4.484375 0.171875 3.664062 -0.00390625 2.96875 -0.359375 C 2.28125 -0.722656 1.75 -1.257812 1.375 -1.96875 C 1.007812 -2.675781 0.828125 -3.546875 0.828125 -4.578125 C 0.828125 -5.617188 1.019531 -6.492188 1.40625 -7.203125 C 1.800781 -7.921875 2.332031 -8.453125 3 -8.796875 C 3.675781 -9.148438 4.429688 -9.328125 5.265625 -9.328125 C 6.554688 -9.328125 7.546875 -8.984375 8.234375 -8.296875 C 8.921875 -7.609375 9.265625 -6.601562 9.265625 -5.28125 C 9.265625 -4.800781 9.25 -4.425781 9.21875 -4.15625 Z M 7.078125 -5.546875 C 7.054688 -6.242188 6.894531 -6.75 6.59375 -7.0625 C 6.289062 -7.382812 5.847656 -7.546875 5.265625 -7.546875 C 4.097656 -7.546875 3.414062 -6.878906 3.21875 -5.546875 Z M 7.078125 -5.546875 "/></g></g></g><g fill="#ffffff" fill-opacity="1"><g transform="translate(315.926091, 177.949997)"><g><path d="M 4.53125 0.171875 C 3.800781 0.171875 3.15625 0 2.59375 -0.34375 C 2.039062 -0.695312 1.609375 -1.226562 1.296875 -1.9375 C 0.984375 -2.65625 0.828125 -3.535156 0.828125 -4.578125 C 0.828125 -5.617188 0.988281 -6.492188 1.3125 -7.203125 C 1.632812 -7.921875 2.082031 -8.453125 2.65625 -8.796875 C 3.226562 -9.148438 3.890625 -9.328125 4.640625 -9.328125 C 5.210938 -9.328125 5.707031 -9.226562 6.125 -9.03125 C 6.539062 -8.832031 6.894531 -8.53125 7.1875 -8.125 L 7.359375 -8.15625 L 7.359375 -12.828125 L 9.65625 -12.828125 L 9.65625 0 L 7.359375 0 L 7.359375 -1.1875 L 7.1875 -1.21875 C 6.925781 -0.789062 6.570312 -0.453125 6.125 -0.203125 C 5.6875 0.046875 5.15625 0.171875 4.53125 0.171875 Z M 5.265625 -1.78125 C 5.921875 -1.78125 6.4375 -2.007812 6.8125 -2.46875 C 7.1875 -2.925781 7.375 -3.628906 7.375 -4.578125 C 7.375 -5.515625 7.1875 -6.210938 6.8125 -6.671875 C 6.4375 -7.140625 5.921875 -7.375 5.265625 -7.375 C 4.597656 -7.375 4.082031 -7.148438 3.71875 -6.703125 C 3.363281 -6.253906 3.1875 -5.546875 3.1875 -4.578125 C 3.1875 -3.609375 3.363281 -2.898438 3.71875 -2.453125 C 4.082031 -2.003906 4.597656 -1.78125 5.265625 -1.78125 Z M 5.265625 -1.78125 "/></g></g></g></svg>