<svg xmlns="http://www.w3.org/2000/svg" xmlns:xlink="http://www.w3.org/1999/xlink" width="200" zoomAndPan="magnify" viewBox="0 0 150 149.999998" height="200" preserveAspectRatio="xMidYMid meet" version="1.0"><defs><clipPath id="5d20ce3f05"><path d="M 12.542969 24.488281 L 137.792969 24.488281 L 137.792969 125.738281 L 12.542969 125.738281 Z M 12.542969 24.488281 " clip-rule="nonzero"/></clipPath><clipPath id="0874f4fc18"><path d="M 12.542969 46 L 137.792969 46 L 137.792969 50 L 12.542969 50 Z M 12.542969 46 " clip-rule="nonzero"/></clipPath></defs><path fill="#ffffff" d="M 127.9375 61.53125 L 96.984375 61.53125 C 96.253906 61.53125 95.742188 60.945312 95.742188 60.285156 C 95.742188 59.628906 96.253906 59.042969 96.984375 59.042969 L 127.9375 59.042969 C 128.597656 59.042969 129.183594 59.628906 129.183594 60.285156 C 129.183594 60.945312 128.597656 61.53125 127.9375 61.53125 Z M 127.9375 61.53125 " fill-opacity="1" fill-rule="evenodd"/><path fill="#ffffff" d="M 127.9375 69.359375 L 96.984375 69.359375 C 96.253906 69.359375 95.742188 68.847656 95.742188 68.1875 C 95.742188 67.457031 96.253906 66.945312 96.984375 66.945312 L 127.9375 66.945312 C 128.597656 66.945312 129.183594 67.457031 129.183594 68.1875 C 129.183594 68.847656 128.597656 69.359375 127.9375 69.359375 Z M 127.9375 69.359375 " fill-opacity="1" fill-rule="evenodd"/><path fill="#ffffff" d="M 49.859375 92.265625 L 46.640625 92.265625 C 45.984375 92.265625 45.398438 91.75 45.398438 91.09375 C 45.398438 90.363281 45.984375 89.847656 46.640625 89.847656 L 49.859375 89.847656 C 50.519531 89.847656 51.03125 90.363281 51.03125 91.09375 C 51.03125 91.75 50.519531 92.265625 49.859375 92.265625 Z M 49.859375 92.265625 " fill-opacity="1" fill-rule="evenodd"/><path fill="#ffffff" d="M 60.03125 92.265625 L 56.886719 92.265625 C 56.226562 92.265625 55.640625 91.75 55.640625 91.09375 C 55.640625 90.363281 56.226562 89.847656 56.886719 89.847656 L 60.03125 89.847656 C 60.765625 89.847656 61.277344 90.363281 61.277344 91.09375 C 61.277344 91.75 60.765625 92.265625 60.03125 92.265625 Z M 60.03125 92.265625 " fill-opacity="1" fill-rule="evenodd"/><path fill="#ffffff" d="M 53.375 88.75 C 52.714844 88.75 52.128906 88.238281 52.128906 87.582031 L 52.128906 84.359375 C 52.128906 83.703125 52.714844 83.117188 53.375 83.117188 C 54.03125 83.117188 54.542969 83.703125 54.542969 84.359375 L 54.542969 87.582031 C 54.542969 88.238281 54.03125 88.75 53.375 88.75 Z M 53.375 88.75 " fill-opacity="1" fill-rule="evenodd"/><path fill="#ffffff" d="M 53.375 98.996094 C 52.714844 98.996094 52.128906 98.410156 52.128906 97.753906 L 52.128906 94.605469 C 52.128906 93.875 52.714844 93.363281 53.375 93.363281 C 54.03125 93.363281 54.542969 93.875 54.542969 94.605469 L 54.542969 97.753906 C 54.542969 98.410156 54.03125 98.996094 53.375 98.996094 Z M 53.375 98.996094 " fill-opacity="1" fill-rule="evenodd"/><path fill="#ffffff" d="M 103.351562 92.265625 L 90.984375 92.265625 C 90.328125 92.265625 89.742188 91.75 89.742188 91.09375 C 89.742188 90.363281 90.328125 89.847656 90.984375 89.847656 L 103.351562 89.847656 C 104.011719 89.847656 104.523438 90.363281 104.523438 91.09375 C 104.523438 91.75 104.011719 92.265625 103.351562 92.265625 Z M 103.351562 92.265625 " fill-opacity="1" fill-rule="evenodd"/><path fill="#ffffff" d="M 97.132812 98.410156 C 96.472656 98.410156 95.960938 97.898438 95.960938 97.238281 L 95.960938 84.875 C 95.960938 84.214844 96.472656 83.703125 97.132812 83.703125 C 97.863281 83.703125 98.375 84.214844 98.375 84.875 L 98.375 97.238281 C 98.375 97.898438 97.863281 98.410156 97.132812 98.410156 Z M 97.132812 98.410156 " fill-opacity="1" fill-rule="evenodd"/><path fill="#ffffff" d="M 85.570312 89.777344 L 64.421875 89.777344 C 63.765625 89.777344 63.179688 89.265625 63.179688 88.53125 L 63.179688 79.09375 C 63.179688 78.433594 63.765625 77.921875 64.421875 77.921875 L 85.570312 77.921875 C 86.230469 77.921875 86.8125 78.433594 86.8125 79.09375 L 86.8125 88.53125 C 86.8125 89.265625 86.230469 89.777344 85.570312 89.777344 Z M 65.59375 87.359375 L 84.328125 87.359375 L 84.328125 80.335938 L 65.59375 80.335938 Z M 65.59375 87.359375 " fill-opacity="1" fill-rule="evenodd"/><path fill="#ffffff" d="M 69.984375 100.898438 C 67.933594 100.898438 66.324219 99.289062 66.324219 97.238281 C 66.324219 95.265625 67.933594 93.652344 69.984375 93.652344 C 71.960938 93.652344 73.570312 95.265625 73.570312 97.238281 C 73.570312 99.289062 71.960938 100.898438 69.984375 100.898438 Z M 69.984375 96.070312 C 69.324219 96.070312 68.8125 96.65625 68.8125 97.238281 C 68.8125 97.898438 69.324219 98.410156 69.984375 98.410156 C 70.570312 98.410156 71.15625 97.898438 71.15625 97.238281 C 71.15625 96.65625 70.570312 96.070312 69.984375 96.070312 Z M 69.984375 96.070312 " fill-opacity="1" fill-rule="evenodd"/><path fill="#ffffff" d="M 80.007812 100.898438 C 78.035156 100.898438 76.421875 99.289062 76.421875 97.238281 C 76.421875 95.265625 78.035156 93.652344 80.007812 93.652344 C 81.984375 93.652344 83.59375 95.265625 83.59375 97.238281 C 83.59375 99.289062 81.984375 100.898438 80.007812 100.898438 Z M 80.007812 96.070312 C 79.351562 96.070312 78.839844 96.65625 78.839844 97.238281 C 78.839844 97.898438 79.351562 98.410156 80.007812 98.410156 C 80.667969 98.410156 81.179688 97.898438 81.179688 97.238281 C 81.179688 96.65625 80.667969 96.070312 80.007812 96.070312 Z M 80.007812 96.070312 " fill-opacity="1" fill-rule="evenodd"/><g clip-path="url(#5d20ce3f05)"><path fill="#ffffff" d="M 131.085938 125.484375 L 18.90625 125.484375 C 15.394531 125.484375 12.542969 122.632812 12.542969 119.121094 L 12.542969 30.871094 C 12.542969 27.359375 15.394531 24.503906 18.90625 24.503906 L 131.085938 24.503906 C 134.597656 24.503906 137.453125 27.359375 137.453125 30.871094 L 137.453125 119.121094 C 137.453125 122.632812 134.597656 125.484375 131.085938 125.484375 Z M 18.90625 26.992188 C 16.710938 26.992188 14.957031 28.746094 14.957031 30.871094 L 14.957031 119.121094 C 14.957031 121.316406 16.710938 123.070312 18.90625 123.070312 L 131.085938 123.070312 C 133.207031 123.070312 134.964844 121.316406 134.964844 119.121094 L 134.964844 30.871094 C 134.964844 28.746094 133.207031 26.992188 131.085938 26.992188 Z M 18.90625 26.992188 " fill-opacity="1" fill-rule="evenodd"/></g><g clip-path="url(#0874f4fc18)"><path fill="#ffffff" d="M 136.207031 49.308594 L 13.785156 49.308594 C 13.054688 49.308594 12.542969 48.726562 12.542969 48.066406 C 12.542969 47.40625 13.054688 46.820312 13.785156 46.820312 L 136.207031 46.820312 C 136.867188 46.820312 137.453125 47.40625 137.453125 48.066406 C 137.453125 48.726562 136.867188 49.308594 136.207031 49.308594 Z M 136.207031 49.308594 " fill-opacity="1" fill-rule="evenodd"/></g><path fill="#ffffff" d="M 25.128906 43.308594 C 21.617188 43.308594 18.6875 40.457031 18.6875 36.945312 C 18.6875 33.359375 21.617188 30.503906 25.128906 30.503906 C 28.640625 30.503906 31.492188 33.359375 31.492188 36.945312 C 31.492188 40.457031 28.640625 43.308594 25.128906 43.308594 Z M 25.128906 32.992188 C 22.933594 32.992188 21.175781 34.75 21.175781 36.945312 C 21.175781 39.066406 22.933594 40.820312 25.128906 40.820312 C 27.324219 40.820312 29.078125 39.066406 29.078125 36.945312 C 29.078125 34.75 27.324219 32.992188 25.128906 32.992188 Z M 25.128906 32.992188 " fill-opacity="1" fill-rule="evenodd"/><path fill="#ffffff" d="M 41.152344 43.308594 C 37.640625 43.308594 34.714844 40.457031 34.714844 36.945312 C 34.714844 33.359375 37.640625 30.503906 41.152344 30.503906 C 44.664062 30.503906 47.519531 33.359375 47.519531 36.945312 C 47.519531 40.457031 44.664062 43.308594 41.152344 43.308594 Z M 41.152344 32.992188 C 38.957031 32.992188 37.203125 34.75 37.203125 36.945312 C 37.203125 39.066406 38.957031 40.820312 41.152344 40.820312 C 43.273438 40.820312 45.105469 39.066406 45.105469 36.945312 C 45.105469 34.75 43.273438 32.992188 41.152344 32.992188 Z M 41.152344 32.992188 " fill-opacity="1" fill-rule="evenodd"/><path fill="#ffffff" d="M 57.179688 43.308594 C 53.59375 43.308594 50.738281 40.457031 50.738281 36.945312 C 50.738281 33.359375 53.59375 30.503906 57.179688 30.503906 C 60.691406 30.503906 63.542969 33.359375 63.542969 36.945312 C 63.542969 40.457031 60.691406 43.308594 57.179688 43.308594 Z M 57.179688 32.992188 C 54.984375 32.992188 53.226562 34.75 53.226562 36.945312 C 53.226562 39.066406 54.984375 40.820312 57.179688 40.820312 C 59.300781 40.820312 61.128906 39.066406 61.128906 36.945312 C 61.128906 34.75 59.300781 32.992188 57.179688 32.992188 Z M 57.179688 32.992188 " fill-opacity="1" fill-rule="evenodd"/><path fill="#ffffff" d="M 129.988281 38.113281 L 86.230469 38.113281 C 85.570312 38.113281 84.984375 37.601562 84.984375 36.945312 C 84.984375 36.210938 85.570312 35.699219 86.230469 35.699219 L 129.988281 35.699219 C 130.71875 35.699219 131.230469 36.210938 131.230469 36.945312 C 131.230469 37.601562 130.71875 38.113281 129.988281 38.113281 Z M 129.988281 38.113281 " fill-opacity="1" fill-rule="evenodd"/><path fill="#ffffff" d="M 97.644531 117.582031 C 89.816406 117.582031 82.9375 112.242188 80.886719 104.851562 L 69.105469 104.851562 C 67.058594 112.242188 60.179688 117.582031 52.347656 117.582031 C 48.46875 117.582031 44.371094 116.046875 41.078125 113.339844 C 37.496094 110.484375 35.445312 106.753906 35.226562 102.949219 C 35.078125 100.824219 35.152344 94.972656 35.152344 92.484375 C 35.152344 91.898438 35.152344 91.53125 35.152344 91.386719 C 35.152344 83.921875 41.226562 77.921875 48.617188 77.921875 L 101.304688 77.921875 C 108.765625 77.921875 114.765625 83.921875 114.765625 91.386719 C 114.765625 91.53125 114.765625 91.898438 114.765625 92.484375 C 114.839844 94.972656 114.839844 100.753906 114.765625 102.875 C 114.546875 106.753906 112.5 110.484375 108.914062 113.339844 C 105.621094 116.046875 101.523438 117.582031 97.644531 117.582031 Z M 68.15625 102.363281 L 81.839844 102.363281 C 82.425781 102.363281 82.863281 102.800781 83.007812 103.3125 C 84.472656 110.191406 90.621094 115.167969 97.644531 115.167969 C 104.15625 115.167969 111.988281 109.753906 112.351562 102.726562 C 112.425781 100.679688 112.351562 94.972656 112.351562 92.484375 C 112.351562 91.972656 112.351562 91.53125 112.351562 91.386719 C 112.351562 85.3125 107.375 80.335938 101.304688 80.335938 L 48.617188 80.335938 C 42.542969 80.335938 37.640625 85.3125 37.640625 91.386719 C 37.640625 91.53125 37.640625 91.972656 37.640625 92.484375 C 37.566406 94.972656 37.566406 100.753906 37.640625 102.800781 C 38.007812 109.753906 45.835938 115.167969 52.347656 115.167969 C 59.375 115.167969 65.519531 110.191406 66.984375 103.3125 C 67.058594 102.800781 67.570312 102.363281 68.15625 102.363281 Z M 68.15625 102.363281 " fill-opacity="1" fill-rule="evenodd"/><path fill="#ffffff" d="M 73.058594 80.335938 C 72.765625 80.335938 72.472656 80.261719 72.253906 79.96875 C 67.058594 74.921875 65.15625 71.847656 65.960938 69.578125 C 66.835938 67.089844 70.277344 66.871094 74.226562 66.507812 C 77.8125 66.285156 81.839844 65.921875 82.863281 63.945312 C 83.59375 62.554688 82.863281 59.992188 80.8125 56.628906 C 80.449219 56.042969 80.667969 55.308594 81.253906 54.945312 C 81.839844 54.578125 82.570312 54.796875 82.9375 55.308594 C 85.496094 59.628906 86.15625 62.773438 85.058594 65.042969 C 83.375 68.261719 78.617188 68.628906 74.449219 68.996094 C 71.960938 69.140625 68.59375 69.433594 68.226562 70.382812 C 68.082031 70.824219 68.082031 72.578125 73.9375 78.214844 C 74.449219 78.726562 74.449219 79.457031 73.9375 79.96875 C 73.714844 80.191406 73.421875 80.335938 73.058594 80.335938 Z M 73.058594 80.335938 " fill-opacity="1" fill-rule="evenodd"/><path fill="#ffffff" d="M 53.007812 61.53125 L 21.980469 61.53125 C 21.324219 61.53125 20.808594 60.945312 20.808594 60.285156 C 20.808594 59.628906 21.324219 59.042969 21.980469 59.042969 L 53.007812 59.042969 C 53.667969 59.042969 54.25 59.628906 54.25 60.285156 C 54.25 60.945312 53.667969 61.53125 53.007812 61.53125 Z M 53.007812 61.53125 " fill-opacity="1" fill-rule="evenodd"/><path fill="#ffffff" d="M 53.007812 69.359375 L 21.980469 69.359375 C 21.324219 69.359375 20.808594 68.847656 20.808594 68.1875 C 20.808594 67.457031 21.324219 66.945312 21.980469 66.945312 L 53.007812 66.945312 C 53.667969 66.945312 54.25 67.457031 54.25 68.1875 C 54.25 68.847656 53.667969 69.359375 53.007812 69.359375 Z M 53.007812 69.359375 " fill-opacity="1" fill-rule="evenodd"/></svg>