<svg xmlns="http://www.w3.org/2000/svg" xmlns:xlink="http://www.w3.org/1999/xlink" width="500" zoomAndPan="magnify" viewBox="0 0 375 225" height="300" preserveAspectRatio="xMidYMid meet" version="1.0"><defs><g/><clipPath id="1892609a38"><path d="M 0 0 L 142.5 0 L 142.5 225 L 0 225 Z M 0 0 " clip-rule="nonzero"/></clipPath><clipPath id="f170e84e7f"><path d="M 130.011719 0 L 142.5 0 L 142.5 225 L 130.011719 225 Z M 130.011719 0 " clip-rule="nonzero"/></clipPath><clipPath id="c3cb47aeed"><path d="M 17.382812 74 L 107.382812 74 L 107.382812 142 L 17.382812 142 Z M 17.382812 74 " clip-rule="nonzero"/></clipPath><clipPath id="641e0113ee"><path d="M 17.382812 130 L 107.382812 130 L 107.382812 135 L 17.382812 135 Z M 17.382812 130 " clip-rule="nonzero"/></clipPath></defs><g clip-path="url(#1892609a38)"><path fill="#401f68" d="M -40.625 -29.6875 L 142.5 -29.6875 L 142.5 246.429688 L -40.625 246.429688 Z M -40.625 -29.6875 " fill-opacity="1" fill-rule="nonzero"/></g><g clip-path="url(#f170e84e7f)"><path fill="#ffffff" d="M 130.011719 0 L 142.5 0 L 142.5 225.015625 L 130.011719 225.015625 Z M 130.011719 0 " fill-opacity="1" fill-rule="nonzero"/></g><g fill="#ffffff" fill-opacity="1"><g transform="translate(156.010438, 90.839245)"><g><path d="M 2.359375 0 L 2.359375 -26.984375 L 22.234375 -26.984375 L 22.234375 -22.28125 L 8.578125 -22.28125 L 8.578125 -14.34375 L 20.34375 -14.34375 L 20.34375 -9.640625 L 8.578125 -9.640625 L 8.578125 0 Z M 2.359375 0 "/></g></g></g><g fill="#ffffff" fill-opacity="1"><g transform="translate(179.441964, 90.839245)"><g><path d="M 2.359375 0 L 2.359375 -19.609375 L 8.484375 -19.609375 L 8.765625 -17.625 C 9.710938 -19.25 11.832031 -20.0625 15.125 -20.0625 C 16.175781 -20.0625 16.992188 -19.941406 17.578125 -19.703125 L 17.578125 -14.984375 C 16.585938 -15.234375 15.691406 -15.359375 14.890625 -15.359375 C 13.265625 -15.359375 11.804688 -14.925781 10.515625 -14.0625 C 9.222656 -13.207031 8.578125 -12.101562 8.578125 -10.75 L 8.578125 0 Z M 2.359375 0 "/></g></g></g><g fill="#ffffff" fill-opacity="1"><g transform="translate(197.753608, 90.839245)"><g><path d="M 21.359375 -2.53125 C 19.453125 -0.65625 16.609375 0.28125 12.828125 0.28125 C 9.046875 0.28125 6.203125 -0.65625 4.296875 -2.53125 C 2.390625 -4.40625 1.4375 -6.847656 1.4375 -9.859375 C 1.4375 -12.878906 2.390625 -15.332031 4.296875 -17.21875 C 6.203125 -19.113281 9.046875 -20.0625 12.828125 -20.0625 C 16.609375 -20.0625 19.453125 -19.113281 21.359375 -17.21875 C 23.265625 -15.332031 24.21875 -12.878906 24.21875 -9.859375 C 24.21875 -6.847656 23.265625 -4.40625 21.359375 -2.53125 Z M 12.828125 -4.203125 C 14.390625 -4.203125 15.640625 -4.660156 16.578125 -5.578125 C 17.515625 -6.503906 17.984375 -7.9375 17.984375 -9.875 C 17.984375 -11.8125 17.503906 -13.25 16.546875 -14.1875 C 15.597656 -15.125 14.359375 -15.59375 12.828125 -15.59375 C 11.316406 -15.59375 10.078125 -15.113281 9.109375 -14.15625 C 8.140625 -13.207031 7.65625 -11.78125 7.65625 -9.875 C 7.65625 -7.96875 8.140625 -6.546875 9.109375 -5.609375 C 10.078125 -4.671875 11.316406 -4.203125 12.828125 -4.203125 Z M 12.828125 -4.203125 "/></g></g></g><g fill="#ffffff" fill-opacity="1"><g transform="translate(223.399141, 90.839245)"><g><path d="M 2.359375 0 L 2.359375 -19.609375 L 8.203125 -19.609375 L 8.578125 -17.765625 C 10.054688 -19.296875 12.238281 -20.0625 15.125 -20.0625 C 17.832031 -20.0625 19.9375 -19.300781 21.4375 -17.78125 C 22.945312 -16.257812 23.703125 -14.113281 23.703125 -11.34375 L 23.703125 0 L 17.484375 0 L 17.484375 -10.65625 C 17.484375 -12.46875 17.128906 -13.742188 16.421875 -14.484375 C 15.710938 -15.222656 14.664062 -15.59375 13.28125 -15.59375 C 12.144531 -15.59375 11.078125 -15.144531 10.078125 -14.25 C 9.078125 -13.363281 8.578125 -12.332031 8.578125 -11.15625 L 8.578125 0 Z M 2.359375 0 "/></g></g></g><g fill="#ffffff" fill-opacity="1"><g transform="translate(248.998544, 90.839245)"><g><path d="M 11.484375 0.28125 C 9.085938 0.28125 7.359375 -0.414062 6.296875 -1.8125 C 5.234375 -3.21875 4.703125 -5.347656 4.703125 -8.203125 L 4.703125 -14.890625 L 0.96875 -14.890625 L 0.96875 -19.609375 L 4.703125 -19.609375 L 4.703125 -25.46875 L 10.984375 -27.125 L 10.984375 -19.609375 L 15.90625 -19.609375 L 15.90625 -14.890625 L 10.984375 -14.890625 L 10.984375 -7.65625 C 10.984375 -5.53125 12.148438 -4.46875 14.484375 -4.46875 C 14.753906 -4.46875 15.226562 -4.5 15.90625 -4.5625 L 15.90625 -0.1875 C 15.050781 0.03125 13.578125 0.1875 11.484375 0.28125 Z M 11.484375 0.28125 "/></g></g></g><g fill="#ffffff" fill-opacity="1"><g transform="translate(266.572194, 90.839245)"><g><path d="M 2.578125 -6.046875 L 2.578125 -10.75 L 19.78125 -10.75 L 19.78125 -6.046875 Z M 2.578125 -6.046875 "/></g></g></g><g fill="#ffffff" fill-opacity="1"><g transform="translate(288.94284, 90.839245)"><g><path d="M 12.6875 0.28125 C 8.9375 0.28125 6.125 -0.671875 4.25 -2.578125 C 2.375 -4.484375 1.4375 -6.914062 1.4375 -9.875 C 1.4375 -12.882812 2.347656 -15.332031 4.171875 -17.21875 C 6.003906 -19.113281 8.796875 -20.0625 12.546875 -20.0625 C 16.265625 -20.0625 19.007812 -19.113281 20.78125 -17.21875 C 22.550781 -15.332031 23.4375 -12.882812 23.4375 -9.875 L 23.4375 -7.609375 L 7.65625 -7.609375 C 7.84375 -6.316406 8.34375 -5.425781 9.15625 -4.9375 C 9.96875 -4.445312 11.128906 -4.203125 12.640625 -4.203125 C 14.453125 -4.203125 15.632812 -4.785156 16.1875 -5.953125 L 22.46875 -5.953125 C 22.25 -4.171875 21.21875 -2.6875 19.375 -1.5 C 17.53125 -0.3125 15.300781 0.28125 12.6875 0.28125 Z M 7.703125 -12 L 17.296875 -12 C 16.867188 -13.40625 16.285156 -14.351562 15.546875 -14.84375 C 14.804688 -15.34375 13.789062 -15.59375 12.5 -15.59375 C 11.207031 -15.59375 10.191406 -15.34375 9.453125 -14.84375 C 8.710938 -14.351562 8.128906 -13.40625 7.703125 -12 Z M 7.703125 -12 "/></g></g></g><g fill="#ffffff" fill-opacity="1"><g transform="translate(313.573615, 90.839245)"><g><path d="M 2.359375 0 L 2.359375 -19.609375 L 8.203125 -19.609375 L 8.578125 -17.765625 C 10.054688 -19.296875 12.238281 -20.0625 15.125 -20.0625 C 17.832031 -20.0625 19.9375 -19.300781 21.4375 -17.78125 C 22.945312 -16.257812 23.703125 -14.113281 23.703125 -11.34375 L 23.703125 0 L 17.484375 0 L 17.484375 -10.65625 C 17.484375 -12.46875 17.128906 -13.742188 16.421875 -14.484375 C 15.710938 -15.222656 14.664062 -15.59375 13.28125 -15.59375 C 12.144531 -15.59375 11.078125 -15.144531 10.078125 -14.25 C 9.078125 -13.363281 8.578125 -12.332031 8.578125 -11.15625 L 8.578125 0 Z M 2.359375 0 "/></g></g></g><g fill="#ffffff" fill-opacity="1"><g transform="translate(339.173017, 90.839245)"><g><path d="M 9.875 0.28125 C 7.414062 0.28125 5.394531 -0.71875 3.8125 -2.71875 C 2.226562 -4.71875 1.4375 -7.132812 1.4375 -9.96875 C 1.4375 -13.039062 2.25 -15.488281 3.875 -17.3125 C 5.5 -19.144531 7.800781 -20.0625 10.78125 -20.0625 C 13.769531 -20.0625 16.050781 -19.28125 17.625 -17.71875 L 17.625 -26.984375 L 23.84375 -26.984375 L 23.84375 0 L 17.984375 0 L 17.625 -2.265625 C 15.988281 -0.566406 13.40625 0.28125 9.875 0.28125 Z M 12.265625 -4.203125 C 13.710938 -4.203125 14.96875 -4.609375 16.03125 -5.421875 C 17.09375 -6.234375 17.625 -7.238281 17.625 -8.4375 L 17.625 -11.53125 C 17.625 -12.695312 17.125 -13.664062 16.125 -14.4375 C 15.125 -15.207031 13.976562 -15.59375 12.6875 -15.59375 C 11.207031 -15.59375 10 -15.179688 9.0625 -14.359375 C 8.125 -13.546875 7.65625 -12.25 7.65625 -10.46875 L 7.65625 -9.96875 C 7.65625 -8.269531 8.097656 -6.882812 8.984375 -5.8125 C 9.878906 -4.738281 10.972656 -4.203125 12.265625 -4.203125 Z M 12.265625 -4.203125 "/></g></g></g><g fill="#ffffff" fill-opacity="1"><g transform="translate(156.010438, 136.589244)"><g><path d="M 9.875 0.28125 C 7.414062 0.28125 5.394531 -0.71875 3.8125 -2.71875 C 2.226562 -4.71875 1.4375 -7.132812 1.4375 -9.96875 C 1.4375 -13.039062 2.25 -15.488281 3.875 -17.3125 C 5.5 -19.144531 7.800781 -20.0625 10.78125 -20.0625 C 13.769531 -20.0625 16.050781 -19.28125 17.625 -17.71875 L 17.625 -26.984375 L 23.84375 -26.984375 L 23.84375 0 L 17.984375 0 L 17.625 -2.265625 C 15.988281 -0.566406 13.40625 0.28125 9.875 0.28125 Z M 12.265625 -4.203125 C 13.710938 -4.203125 14.96875 -4.609375 16.03125 -5.421875 C 17.09375 -6.234375 17.625 -7.238281 17.625 -8.4375 L 17.625 -11.53125 C 17.625 -12.695312 17.125 -13.664062 16.125 -14.4375 C 15.125 -15.207031 13.976562 -15.59375 12.6875 -15.59375 C 11.207031 -15.59375 10 -15.179688 9.0625 -14.359375 C 8.125 -13.546875 7.65625 -12.25 7.65625 -10.46875 L 7.65625 -9.96875 C 7.65625 -8.269531 8.097656 -6.882812 8.984375 -5.8125 C 9.878906 -4.738281 10.972656 -4.203125 12.265625 -4.203125 Z M 12.265625 -4.203125 "/></g></g></g><g fill="#ffffff" fill-opacity="1"><g transform="translate(182.209465, 136.589244)"><g><path d="M 12.6875 0.28125 C 8.9375 0.28125 6.125 -0.671875 4.25 -2.578125 C 2.375 -4.484375 1.4375 -6.914062 1.4375 -9.875 C 1.4375 -12.882812 2.347656 -15.332031 4.171875 -17.21875 C 6.003906 -19.113281 8.796875 -20.0625 12.546875 -20.0625 C 16.265625 -20.0625 19.007812 -19.113281 20.78125 -17.21875 C 22.550781 -15.332031 23.4375 -12.882812 23.4375 -9.875 L 23.4375 -7.609375 L 7.65625 -7.609375 C 7.84375 -6.316406 8.34375 -5.425781 9.15625 -4.9375 C 9.96875 -4.445312 11.128906 -4.203125 12.640625 -4.203125 C 14.453125 -4.203125 15.632812 -4.785156 16.1875 -5.953125 L 22.46875 -5.953125 C 22.25 -4.171875 21.21875 -2.6875 19.375 -1.5 C 17.53125 -0.3125 15.300781 0.28125 12.6875 0.28125 Z M 7.703125 -12 L 17.296875 -12 C 16.867188 -13.40625 16.285156 -14.351562 15.546875 -14.84375 C 14.804688 -15.34375 13.789062 -15.59375 12.5 -15.59375 C 11.207031 -15.59375 10.191406 -15.34375 9.453125 -14.84375 C 8.710938 -14.351562 8.128906 -13.40625 7.703125 -12 Z M 7.703125 -12 "/></g></g></g><g fill="#ffffff" fill-opacity="1"><g transform="translate(206.840239, 136.589244)"><g><path d="M 11.34375 0.28125 C 5.71875 0.28125 2.414062 -1.71875 1.4375 -5.71875 L 7.609375 -5.71875 C 8.253906 -4.488281 9.421875 -3.875 11.109375 -3.875 C 13.546875 -3.875 14.765625 -4.472656 14.765625 -5.671875 C 14.765625 -6.191406 14.347656 -6.5625 13.515625 -6.78125 C 12.585938 -7.03125 11.507812 -7.257812 10.28125 -7.46875 C 4.46875 -8.457031 1.5625 -10.535156 1.5625 -13.703125 C 1.5625 -17.941406 4.65625 -20.0625 10.84375 -20.0625 C 16.101562 -20.0625 19.222656 -18.0625 20.203125 -14.0625 L 13.96875 -14.0625 C 13.789062 -14.53125 13.609375 -14.867188 13.421875 -15.078125 C 13.234375 -15.296875 12.929688 -15.488281 12.515625 -15.65625 C 12.109375 -15.820312 11.550781 -15.90625 10.84375 -15.90625 C 8.8125 -15.90625 7.796875 -15.289062 7.796875 -14.0625 C 7.796875 -13.851562 7.878906 -13.640625 8.046875 -13.421875 C 8.210938 -13.203125 8.472656 -13.015625 8.828125 -12.859375 C 9.179688 -12.710938 9.535156 -12.578125 9.890625 -12.453125 C 10.242188 -12.328125 10.6875 -12.203125 11.21875 -12.078125 C 11.757812 -11.960938 12.222656 -11.863281 12.609375 -11.78125 C 12.992188 -11.707031 13.46875 -11.613281 14.03125 -11.5 C 14.601562 -11.394531 15.015625 -11.328125 15.265625 -11.296875 C 19.078125 -10.492188 20.984375 -8.832031 20.984375 -6.3125 C 20.984375 -4.226562 20.132812 -2.609375 18.4375 -1.453125 C 16.75 -0.296875 14.382812 0.28125 11.34375 0.28125 Z M 11.34375 0.28125 "/></g></g></g><g fill="#ffffff" fill-opacity="1"><g transform="translate(229.026385, 136.589244)"><g><path d="M 2.4375 -21.03125 L 2.4375 -26.984375 L 8.53125 -26.984375 L 8.53125 -21.03125 Z M 2.359375 0 L 2.359375 -19.609375 L 8.578125 -19.609375 L 8.578125 0 Z M 2.359375 0 "/></g></g></g><g fill="#ffffff" fill-opacity="1"><g transform="translate(239.958021, 136.589244)"><g><path d="M 12.6875 9.359375 C 10.164062 9.359375 7.910156 8.71875 5.921875 7.4375 C 3.941406 6.164062 2.769531 4.703125 2.40625 3.046875 L 9.125 3.046875 C 9.53125 3.785156 10.03125 4.273438 10.625 4.515625 C 11.226562 4.765625 12.007812 4.890625 12.96875 4.890625 C 16.070312 4.890625 17.625 3.351562 17.625 0.28125 L 17.625 -2.265625 C 15.988281 -0.566406 13.40625 0.28125 9.875 0.28125 C 7.414062 0.28125 5.394531 -0.71875 3.8125 -2.71875 C 2.226562 -4.71875 1.4375 -7.132812 1.4375 -9.96875 C 1.4375 -13.039062 2.25 -15.488281 3.875 -17.3125 C 5.5 -19.144531 7.800781 -20.0625 10.78125 -20.0625 C 13.769531 -20.0625 16.050781 -19.28125 17.625 -17.71875 L 17.984375 -19.609375 L 23.84375 -19.609375 L 23.84375 -1.34375 C 23.84375 2.320312 22.988281 5.019531 21.28125 6.75 C 19.582031 8.488281 16.71875 9.359375 12.6875 9.359375 Z M 12.265625 -4.203125 C 13.710938 -4.203125 14.96875 -4.609375 16.03125 -5.421875 C 17.09375 -6.234375 17.625 -7.238281 17.625 -8.4375 L 17.625 -11.53125 C 17.625 -12.695312 17.125 -13.664062 16.125 -14.4375 C 15.125 -15.207031 13.976562 -15.59375 12.6875 -15.59375 C 11.207031 -15.59375 10 -15.179688 9.0625 -14.359375 C 8.125 -13.546875 7.65625 -12.25 7.65625 -10.46875 L 7.65625 -9.96875 C 7.65625 -8.269531 8.097656 -6.882812 8.984375 -5.8125 C 9.878906 -4.738281 10.972656 -4.203125 12.265625 -4.203125 Z M 12.265625 -4.203125 "/></g></g></g><g fill="#ffffff" fill-opacity="1"><g transform="translate(266.157047, 136.589244)"><g><path d="M 2.359375 0 L 2.359375 -19.609375 L 8.203125 -19.609375 L 8.578125 -17.765625 C 10.054688 -19.296875 12.238281 -20.0625 15.125 -20.0625 C 17.832031 -20.0625 19.9375 -19.300781 21.4375 -17.78125 C 22.945312 -16.257812 23.703125 -14.113281 23.703125 -11.34375 L 23.703125 0 L 17.484375 0 L 17.484375 -10.65625 C 17.484375 -12.46875 17.128906 -13.742188 16.421875 -14.484375 C 15.710938 -15.222656 14.664062 -15.59375 13.28125 -15.59375 C 12.144531 -15.59375 11.078125 -15.144531 10.078125 -14.25 C 9.078125 -13.363281 8.578125 -12.332031 8.578125 -11.15625 L 8.578125 0 Z M 2.359375 0 "/></g></g></g><g fill="#ffffff" fill-opacity="1"><g transform="translate(185.280549, 187.700011)"><g><path d="M 5.796875 0 L 3.109375 0 L 0.328125 -12.140625 L 2.71875 -12.140625 L 4.5625 -3.609375 L 4.765625 -3.609375 L 6.9375 -12.140625 L 8.984375 -12.140625 L 11.203125 -3.609375 L 11.40625 -3.609375 L 13.25 -12.140625 L 15.5625 -12.140625 L 12.796875 0 L 10.109375 0 L 7.984375 -7.828125 L 7.796875 -7.828125 Z M 5.796875 0 "/></g></g></g><g fill="#ffffff" fill-opacity="1"><g transform="translate(201.160942, 187.700011)"><g><path d="M 9.046875 -4.0625 L 3.15625 -4.0625 C 3.226562 -3.257812 3.457031 -2.675781 3.84375 -2.3125 C 4.226562 -1.957031 4.753906 -1.78125 5.421875 -1.78125 C 5.953125 -1.78125 6.378906 -1.875 6.703125 -2.0625 C 7.035156 -2.257812 7.300781 -2.5625 7.5 -2.96875 L 7.671875 -2.96875 L 9.203125 -1.984375 C 8.898438 -1.335938 8.445312 -0.816406 7.84375 -0.421875 C 7.238281 -0.0234375 6.429688 0.171875 5.421875 0.171875 C 4.484375 0.171875 3.664062 -0.00390625 2.96875 -0.359375 C 2.28125 -0.722656 1.75 -1.257812 1.375 -1.96875 C 1.007812 -2.675781 0.828125 -3.546875 0.828125 -4.578125 C 0.828125 -5.617188 1.019531 -6.492188 1.40625 -7.203125 C 1.800781 -7.921875 2.332031 -8.453125 3 -8.796875 C 3.675781 -9.148438 4.429688 -9.328125 5.265625 -9.328125 C 6.554688 -9.328125 7.546875 -8.984375 8.234375 -8.296875 C 8.921875 -7.609375 9.265625 -6.601562 9.265625 -5.28125 C 9.265625 -4.800781 9.25 -4.425781 9.21875 -4.15625 Z M 7.078125 -5.546875 C 7.054688 -6.242188 6.894531 -6.75 6.59375 -7.0625 C 6.289062 -7.382812 5.847656 -7.546875 5.265625 -7.546875 C 4.097656 -7.546875 3.414062 -6.878906 3.21875 -5.546875 Z M 7.078125 -5.546875 "/></g></g></g><g fill="#ffffff" fill-opacity="1"><g transform="translate(211.109005, 187.700011)"><g><path d="M 6.40625 0.171875 C 5.238281 0.171875 4.367188 -0.265625 3.796875 -1.140625 L 3.625 -1.109375 L 3.625 0 L 1.3125 0 L 1.3125 -12.828125 L 3.625 -12.828125 L 3.625 -8.078125 L 3.796875 -8.046875 C 4.109375 -8.484375 4.476562 -8.804688 4.90625 -9.015625 C 5.332031 -9.222656 5.847656 -9.328125 6.453125 -9.328125 C 7.191406 -9.328125 7.835938 -9.148438 8.390625 -8.796875 C 8.941406 -8.453125 9.375 -7.925781 9.6875 -7.21875 C 10 -6.507812 10.15625 -5.628906 10.15625 -4.578125 C 10.15625 -3.535156 9.992188 -2.65625 9.671875 -1.9375 C 9.347656 -1.226562 8.90625 -0.695312 8.34375 -0.34375 C 7.78125 0 7.132812 0.171875 6.40625 0.171875 Z M 5.703125 -1.78125 C 6.378906 -1.78125 6.894531 -2.003906 7.25 -2.453125 C 7.601562 -2.898438 7.78125 -3.609375 7.78125 -4.578125 C 7.78125 -5.546875 7.601562 -6.253906 7.25 -6.703125 C 6.894531 -7.148438 6.378906 -7.375 5.703125 -7.375 C 5.054688 -7.375 4.539062 -7.140625 4.15625 -6.671875 C 3.78125 -6.210938 3.59375 -5.515625 3.59375 -4.578125 C 3.59375 -3.628906 3.78125 -2.925781 4.15625 -2.46875 C 4.539062 -2.007812 5.054688 -1.78125 5.703125 -1.78125 Z M 5.703125 -1.78125 "/></g></g></g><g fill="#ffffff" fill-opacity="1"><g transform="translate(222.069297, 187.700011)"><g/></g></g><g fill="#ffffff" fill-opacity="1"><g transform="translate(226.076732, 187.700011)"><g><path d="M 3.5625 0.171875 C 2.976562 0.171875 2.46875 0.0664062 2.03125 -0.140625 C 1.601562 -0.359375 1.273438 -0.675781 1.046875 -1.09375 C 0.816406 -1.519531 0.703125 -2.023438 0.703125 -2.609375 C 0.703125 -3.148438 0.816406 -3.601562 1.046875 -3.96875 C 1.273438 -4.34375 1.632812 -4.644531 2.125 -4.875 C 2.613281 -5.113281 3.25 -5.296875 4.03125 -5.421875 C 4.582031 -5.503906 5 -5.597656 5.28125 -5.703125 C 5.570312 -5.816406 5.765625 -5.9375 5.859375 -6.0625 C 5.960938 -6.195312 6.015625 -6.367188 6.015625 -6.578125 C 6.015625 -6.867188 5.910156 -7.09375 5.703125 -7.25 C 5.492188 -7.40625 5.15625 -7.484375 4.6875 -7.484375 C 4.175781 -7.484375 3.691406 -7.367188 3.234375 -7.140625 C 2.773438 -6.910156 2.375 -6.613281 2.03125 -6.25 L 1.875 -6.25 L 0.90625 -7.6875 C 1.375 -8.207031 1.941406 -8.609375 2.609375 -8.890625 C 3.273438 -9.179688 4.003906 -9.328125 4.796875 -9.328125 C 6.003906 -9.328125 6.878906 -9.066406 7.421875 -8.546875 C 7.972656 -8.035156 8.25 -7.304688 8.25 -6.359375 L 8.25 -2.390625 C 8.25 -1.984375 8.425781 -1.78125 8.78125 -1.78125 C 8.914062 -1.78125 9.050781 -1.800781 9.1875 -1.84375 L 9.3125 -1.8125 L 9.46875 -0.21875 C 9.34375 -0.132812 9.164062 -0.0664062 8.9375 -0.015625 C 8.707031 0.0351562 8.457031 0.0625 8.1875 0.0625 C 7.644531 0.0625 7.21875 -0.0390625 6.90625 -0.25 C 6.601562 -0.457031 6.382812 -0.785156 6.25 -1.234375 L 6.078125 -1.25 C 5.628906 -0.300781 4.789062 0.171875 3.5625 0.171875 Z M 4.296875 -1.546875 C 4.828125 -1.546875 5.25 -1.722656 5.5625 -2.078125 C 5.882812 -2.429688 6.046875 -2.925781 6.046875 -3.5625 L 6.046875 -4.5 L 5.890625 -4.53125 C 5.753906 -4.414062 5.570312 -4.320312 5.34375 -4.25 C 5.125 -4.175781 4.804688 -4.101562 4.390625 -4.03125 C 3.890625 -3.945312 3.53125 -3.800781 3.3125 -3.59375 C 3.09375 -3.394531 2.984375 -3.113281 2.984375 -2.75 C 2.984375 -2.351562 3.097656 -2.050781 3.328125 -1.84375 C 3.554688 -1.644531 3.878906 -1.546875 4.296875 -1.546875 Z M 4.296875 -1.546875 "/></g></g></g><g fill="#ffffff" fill-opacity="1"><g transform="translate(235.726104, 187.700011)"><g><path d="M 1.3125 0 L 1.3125 -9.15625 L 3.53125 -9.15625 L 3.53125 -7.8125 L 3.703125 -7.765625 C 4.273438 -8.804688 5.195312 -9.328125 6.46875 -9.328125 C 7.53125 -9.328125 8.304688 -9.039062 8.796875 -8.46875 C 9.296875 -7.894531 9.546875 -7.054688 9.546875 -5.953125 L 9.546875 0 L 7.25 0 L 7.25 -5.671875 C 7.25 -6.273438 7.125 -6.710938 6.875 -6.984375 C 6.632812 -7.253906 6.25 -7.390625 5.71875 -7.390625 C 5.050781 -7.390625 4.535156 -7.175781 4.171875 -6.75 C 3.804688 -6.320312 3.625 -5.648438 3.625 -4.734375 L 3.625 0 Z M 1.3125 0 "/></g></g></g><g fill="#ffffff" fill-opacity="1"><g transform="translate(246.445784, 187.700011)"><g><path d="M 4.53125 0.171875 C 3.800781 0.171875 3.15625 0 2.59375 -0.34375 C 2.039062 -0.695312 1.609375 -1.226562 1.296875 -1.9375 C 0.984375 -2.65625 0.828125 -3.535156 0.828125 -4.578125 C 0.828125 -5.617188 0.988281 -6.492188 1.3125 -7.203125 C 1.632812 -7.921875 2.082031 -8.453125 2.65625 -8.796875 C 3.226562 -9.148438 3.890625 -9.328125 4.640625 -9.328125 C 5.210938 -9.328125 5.707031 -9.226562 6.125 -9.03125 C 6.539062 -8.832031 6.894531 -8.53125 7.1875 -8.125 L 7.359375 -8.15625 L 7.359375 -12.828125 L 9.65625 -12.828125 L 9.65625 0 L 7.359375 0 L 7.359375 -1.1875 L 7.1875 -1.21875 C 6.925781 -0.789062 6.570312 -0.453125 6.125 -0.203125 C 5.6875 0.046875 5.15625 0.171875 4.53125 0.171875 Z M 5.265625 -1.78125 C 5.921875 -1.78125 6.4375 -2.007812 6.8125 -2.46875 C 7.1875 -2.925781 7.375 -3.628906 7.375 -4.578125 C 7.375 -5.515625 7.1875 -6.210938 6.8125 -6.671875 C 6.4375 -7.140625 5.921875 -7.375 5.265625 -7.375 C 4.597656 -7.375 4.082031 -7.148438 3.71875 -6.703125 C 3.363281 -6.253906 3.1875 -5.546875 3.1875 -4.578125 C 3.1875 -3.609375 3.363281 -2.898438 3.71875 -2.453125 C 4.082031 -2.003906 4.597656 -1.78125 5.265625 -1.78125 Z M 5.265625 -1.78125 "/></g></g></g><g fill="#ffffff" fill-opacity="1"><g transform="translate(257.414373, 187.700011)"><g/></g></g><g fill="#ffffff" fill-opacity="1"><g transform="translate(261.421808, 187.700011)"><g><path d="M 1.3125 0 L 1.3125 -9.15625 L 3.53125 -9.15625 L 3.53125 -7.921875 L 3.703125 -7.890625 C 4.003906 -8.390625 4.351562 -8.753906 4.75 -8.984375 C 5.15625 -9.210938 5.671875 -9.328125 6.296875 -9.328125 C 6.984375 -9.328125 7.535156 -9.191406 7.953125 -8.921875 C 8.378906 -8.648438 8.6875 -8.25 8.875 -7.71875 L 9.0625 -7.71875 C 9.34375 -8.269531 9.703125 -8.675781 10.140625 -8.9375 C 10.585938 -9.195312 11.144531 -9.328125 11.8125 -9.328125 C 13.707031 -9.328125 14.65625 -8.269531 14.65625 -6.15625 L 14.65625 0 L 12.359375 0 L 12.359375 -5.875 C 12.359375 -6.40625 12.253906 -6.789062 12.046875 -7.03125 C 11.835938 -7.269531 11.5 -7.390625 11.03125 -7.390625 C 9.769531 -7.390625 9.140625 -6.546875 9.140625 -4.859375 L 9.140625 0 L 6.84375 0 L 6.84375 -5.875 C 6.84375 -6.40625 6.734375 -6.789062 6.515625 -7.03125 C 6.304688 -7.269531 5.96875 -7.390625 5.5 -7.390625 C 4.90625 -7.390625 4.441406 -7.191406 4.109375 -6.796875 C 3.785156 -6.398438 3.625 -5.769531 3.625 -4.90625 L 3.625 0 Z M 1.3125 0 "/></g></g></g><g fill="#ffffff" fill-opacity="1"><g transform="translate(277.25242, 187.700011)"><g><path d="M 5.328125 0.171875 C 4.421875 0.171875 3.628906 -0.0078125 2.953125 -0.375 C 2.273438 -0.75 1.75 -1.289062 1.375 -2 C 1.007812 -2.707031 0.828125 -3.566406 0.828125 -4.578125 C 0.828125 -5.578125 1.007812 -6.429688 1.375 -7.140625 C 1.75 -7.859375 2.273438 -8.398438 2.953125 -8.765625 C 3.628906 -9.140625 4.421875 -9.328125 5.328125 -9.328125 C 6.222656 -9.328125 7.007812 -9.140625 7.6875 -8.765625 C 8.363281 -8.398438 8.890625 -7.859375 9.265625 -7.140625 C 9.640625 -6.429688 9.828125 -5.578125 9.828125 -4.578125 C 9.828125 -3.566406 9.640625 -2.707031 9.265625 -2 C 8.890625 -1.289062 8.363281 -0.75 7.6875 -0.375 C 7.007812 -0.0078125 6.222656 0.171875 5.328125 0.171875 Z M 5.328125 -1.78125 C 6.742188 -1.78125 7.453125 -2.710938 7.453125 -4.578125 C 7.453125 -5.546875 7.269531 -6.253906 6.90625 -6.703125 C 6.539062 -7.148438 6.015625 -7.375 5.328125 -7.375 C 3.898438 -7.375 3.1875 -6.441406 3.1875 -4.578125 C 3.1875 -2.710938 3.898438 -1.78125 5.328125 -1.78125 Z M 5.328125 -1.78125 "/></g></g></g><g fill="#ffffff" fill-opacity="1"><g transform="translate(287.88913, 187.700011)"><g><path d="M 6.40625 0.171875 C 5.238281 0.171875 4.367188 -0.265625 3.796875 -1.140625 L 3.625 -1.109375 L 3.625 0 L 1.3125 0 L 1.3125 -12.828125 L 3.625 -12.828125 L 3.625 -8.078125 L 3.796875 -8.046875 C 4.109375 -8.484375 4.476562 -8.804688 4.90625 -9.015625 C 5.332031 -9.222656 5.847656 -9.328125 6.453125 -9.328125 C 7.191406 -9.328125 7.835938 -9.148438 8.390625 -8.796875 C 8.941406 -8.453125 9.375 -7.925781 9.6875 -7.21875 C 10 -6.507812 10.15625 -5.628906 10.15625 -4.578125 C 10.15625 -3.535156 9.992188 -2.65625 9.671875 -1.9375 C 9.347656 -1.226562 8.90625 -0.695312 8.34375 -0.34375 C 7.78125 0 7.132812 0.171875 6.40625 0.171875 Z M 5.703125 -1.78125 C 6.378906 -1.78125 6.894531 -2.003906 7.25 -2.453125 C 7.601562 -2.898438 7.78125 -3.609375 7.78125 -4.578125 C 7.78125 -5.546875 7.601562 -6.253906 7.25 -6.703125 C 6.894531 -7.148438 6.378906 -7.375 5.703125 -7.375 C 5.054688 -7.375 4.539062 -7.140625 4.15625 -6.671875 C 3.78125 -6.210938 3.59375 -5.515625 3.59375 -4.578125 C 3.59375 -3.628906 3.78125 -2.925781 4.15625 -2.46875 C 4.539062 -2.007812 5.054688 -1.78125 5.703125 -1.78125 Z M 5.703125 -1.78125 "/></g></g></g><g fill="#ffffff" fill-opacity="1"><g transform="translate(298.849423, 187.700011)"><g><path d="M 2.46875 -10.25 C 2.050781 -10.25 1.710938 -10.375 1.453125 -10.625 C 1.191406 -10.875 1.0625 -11.203125 1.0625 -11.609375 C 1.0625 -11.992188 1.191406 -12.3125 1.453125 -12.5625 C 1.710938 -12.820312 2.050781 -12.953125 2.46875 -12.953125 C 2.738281 -12.953125 2.984375 -12.890625 3.203125 -12.765625 C 3.421875 -12.648438 3.585938 -12.492188 3.703125 -12.296875 C 3.828125 -12.097656 3.890625 -11.867188 3.890625 -11.609375 C 3.890625 -11.347656 3.828125 -11.113281 3.703125 -10.90625 C 3.585938 -10.695312 3.421875 -10.535156 3.203125 -10.421875 C 2.984375 -10.304688 2.738281 -10.25 2.46875 -10.25 Z M 1.3125 0 L 1.3125 -9.15625 L 3.625 -9.15625 L 3.625 0 Z M 1.3125 0 "/></g></g></g><g fill="#ffffff" fill-opacity="1"><g transform="translate(303.777821, 187.700011)"><g><path d="M 3.796875 0.171875 C 2.972656 0.171875 2.34375 -0.046875 1.90625 -0.484375 C 1.476562 -0.929688 1.265625 -1.613281 1.265625 -2.53125 L 1.265625 -12.828125 L 3.5625 -12.828125 L 3.5625 -2.609375 C 3.5625 -2.054688 3.796875 -1.78125 4.265625 -1.78125 C 4.390625 -1.78125 4.53125 -1.800781 4.6875 -1.84375 L 4.796875 -1.8125 L 5 -0.046875 C 4.875 0.0234375 4.707031 0.078125 4.5 0.109375 C 4.289062 0.148438 4.054688 0.171875 3.796875 0.171875 Z M 3.796875 0.171875 "/></g></g></g><g fill="#ffffff" fill-opacity="1"><g transform="translate(309.038097, 187.700011)"><g><path d="M 9.046875 -4.0625 L 3.15625 -4.0625 C 3.226562 -3.257812 3.457031 -2.675781 3.84375 -2.3125 C 4.226562 -1.957031 4.753906 -1.78125 5.421875 -1.78125 C 5.953125 -1.78125 6.378906 -1.875 6.703125 -2.0625 C 7.035156 -2.257812 7.300781 -2.5625 7.5 -2.96875 L 7.671875 -2.96875 L 9.203125 -1.984375 C 8.898438 -1.335938 8.445312 -0.816406 7.84375 -0.421875 C 7.238281 -0.0234375 6.429688 0.171875 5.421875 0.171875 C 4.484375 0.171875 3.664062 -0.00390625 2.96875 -0.359375 C 2.28125 -0.722656 1.75 -1.257812 1.375 -1.96875 C 1.007812 -2.675781 0.828125 -3.546875 0.828125 -4.578125 C 0.828125 -5.617188 1.019531 -6.492188 1.40625 -7.203125 C 1.800781 -7.921875 2.332031 -8.453125 3 -8.796875 C 3.675781 -9.148438 4.429688 -9.328125 5.265625 -9.328125 C 6.554688 -9.328125 7.546875 -8.984375 8.234375 -8.296875 C 8.921875 -7.609375 9.265625 -6.601562 9.265625 -5.28125 C 9.265625 -4.800781 9.25 -4.425781 9.21875 -4.15625 Z M 7.078125 -5.546875 C 7.054688 -6.242188 6.894531 -6.75 6.59375 -7.0625 C 6.289062 -7.382812 5.847656 -7.546875 5.265625 -7.546875 C 4.097656 -7.546875 3.414062 -6.878906 3.21875 -5.546875 Z M 7.078125 -5.546875 "/></g></g></g><g clip-path="url(#c3cb47aeed)"><path fill="#ffffff" d="M 103.519531 137.996094 L 21.25 137.996094 L 21.25 78.160156 L 69.230469 78.160156 C 70.261719 78.160156 71.101562 77.324219 71.101562 76.292969 C 71.101562 75.257812 70.261719 74.421875 69.230469 74.421875 L 19.378906 74.421875 C 18.347656 74.421875 17.507812 75.257812 17.507812 76.292969 L 17.507812 139.863281 C 17.507812 140.898438 18.347656 141.734375 19.378906 141.734375 L 105.390625 141.734375 C 106.421875 141.734375 107.261719 140.898438 107.261719 139.863281 L 107.261719 76.292969 C 107.261719 75.257812 106.421875 74.421875 105.390625 74.421875 C 104.359375 74.421875 103.519531 75.257812 103.519531 76.292969 Z M 103.519531 137.996094 " fill-opacity="1" fill-rule="nonzero"/></g><g clip-path="url(#641e0113ee)"><path fill="#ffffff" d="M 19.378906 134.253906 L 105.390625 134.253906 C 106.421875 134.253906 107.261719 133.417969 107.261719 132.386719 C 107.261719 131.355469 106.421875 130.515625 105.390625 130.515625 L 19.378906 130.515625 C 18.347656 130.515625 17.507812 131.355469 17.507812 132.386719 C 17.507812 133.417969 18.347656 134.253906 19.378906 134.253906 Z M 19.378906 134.253906 " fill-opacity="1" fill-rule="nonzero"/></g><path fill="#ffffff" d="M 45.554688 152.953125 L 79.214844 152.953125 C 80.246094 152.953125 81.082031 152.117188 81.082031 151.085938 C 81.082031 150.050781 80.246094 149.214844 79.214844 149.214844 L 45.554688 149.214844 C 44.523438 149.214844 43.6875 150.050781 43.6875 151.085938 C 43.6875 152.117188 44.523438 152.953125 45.554688 152.953125 Z M 45.554688 152.953125 " fill-opacity="1" fill-rule="nonzero"/><path fill="#ffffff" d="M 51.070312 151.679688 L 54.808594 140.460938 C 55.140625 139.476562 54.605469 138.414062 53.628906 138.09375 C 52.644531 137.761719 51.585938 138.296875 51.261719 139.269531 L 47.523438 150.488281 C 47.191406 151.472656 47.726562 152.535156 48.703125 152.855469 C 49.6875 153.1875 50.746094 152.652344 51.070312 151.679688 Z M 51.070312 151.679688 " fill-opacity="1" fill-rule="nonzero"/><path fill="#ffffff" d="M 73.699219 151.679688 L 69.960938 140.460938 C 69.628906 139.476562 70.164062 138.414062 71.140625 138.09375 C 72.125 137.761719 73.183594 138.296875 73.507812 139.269531 L 77.246094 150.488281 C 77.578125 151.472656 77.042969 152.535156 76.066406 152.855469 C 75.082031 153.1875 74.023438 152.652344 73.699219 151.679688 Z M 73.699219 151.679688 " fill-opacity="1" fill-rule="nonzero"/><path fill="#ffffff" d="M 97.464844 79.984375 L 59.199219 113.582031 C 58.839844 113.890625 57.136719 111.488281 55.238281 109.617188 C 53.171875 107.582031 50.933594 106.042969 51.273438 105.652344 L 84.871094 67.390625 C 88.339844 63.484375 94.171875 63.308594 97.851562 67 C 101.554688 70.691406 101.367188 76.515625 97.464844 79.984375 Z M 95.214844 69.640625 C 93.042969 67.476562 89.710938 67.574219 87.675781 69.863281 L 55.238281 106.804688 L 58.050781 109.617188 L 94.980469 77.1875 C 97.277344 75.144531 97.386719 71.8125 95.214844 69.640625 Z M 95.214844 69.640625 " fill-opacity="1" fill-rule="nonzero"/><path fill="#ffffff" d="M 35.222656 122.675781 C 34.105469 121.769531 34.386719 119.988281 35.730469 119.472656 C 38.136719 118.558594 39.390625 116.851562 41.085938 112.9375 C 42.605469 109.433594 43.023438 108.613281 44.210938 107.417969 C 47.863281 103.765625 53.785156 103.765625 57.4375 107.417969 C 61.089844 111.066406 61.089844 116.988281 57.4375 120.640625 C 52.519531 125.550781 41.632812 127.820312 35.222656 122.675781 Z M 54.789062 117.992188 C 56.980469 115.800781 56.980469 112.257812 54.789062 110.066406 C 52.597656 107.875 49.050781 107.875 46.863281 110.066406 C 46.160156 110.765625 45.789062 111.476562 44.523438 114.417969 C 43.152344 117.59375 41.914062 119.707031 40.171875 121.175781 C 45.019531 122.882812 51.703125 121.089844 54.789062 117.992188 Z M 54.789062 117.992188 " fill-opacity="1" fill-rule="nonzero"/><path fill="#ffffff" d="M 59.054688 100.394531 L 64.449219 105.761719 C 65.179688 106.492188 66.359375 106.492188 67.089844 105.761719 C 67.820312 105.03125 67.820312 103.84375 67.089844 103.113281 L 61.691406 97.746094 C 60.960938 97.015625 59.773438 97.023438 59.042969 97.753906 C 58.3125 98.484375 58.324219 99.664062 59.054688 100.394531 Z M 59.054688 100.394531 " fill-opacity="1" fill-rule="nonzero"/></svg>