<svg xmlns="http://www.w3.org/2000/svg" xmlns:xlink="http://www.w3.org/1999/xlink" width="200" zoomAndPan="magnify" viewBox="0 0 150 149.999998" height="200" preserveAspectRatio="xMidYMid meet" version="1.0"><defs><clipPath id="16ab588d74"><path d="M 33 20.660156 L 77 20.660156 L 77 79 L 33 79 Z M 33 20.660156 " clip-rule="nonzero"/></clipPath><clipPath id="51e788cfd7"><path d="M 38 83 L 67 83 L 67 129.410156 L 38 129.410156 Z M 38 83 " clip-rule="nonzero"/></clipPath><clipPath id="3a919091f7"><path d="M 86 42 L 116.816406 42 L 116.816406 129.410156 L 86 129.410156 Z M 86 42 " clip-rule="nonzero"/></clipPath><clipPath id="8118ffa7a9"><path d="M 86 20.660156 L 116.816406 20.660156 L 116.816406 46 L 86 46 Z M 86 20.660156 " clip-rule="nonzero"/></clipPath><clipPath id="f3c62ab52f"><path d="M 86 102 L 116.816406 102 L 116.816406 115 L 86 115 Z M 86 102 " clip-rule="nonzero"/></clipPath></defs><path fill="#ffffff" d="M 106.019531 104.714844 L 97.238281 104.714844 C 96.601562 104.714844 96.027344 104.714844 95.457031 104.648438 C 94.820312 104.585938 94.375 104.011719 94.375 103.378906 L 94.375 44.265625 C 94.375 43.566406 94.882812 42.992188 95.582031 42.992188 L 107.609375 42.992188 C 108.308594 42.992188 108.882812 43.566406 108.882812 44.265625 L 108.882812 103.378906 C 108.882812 104.011719 108.4375 104.585938 107.800781 104.648438 C 107.226562 104.714844 106.589844 104.714844 106.019531 104.714844 Z M 96.855469 102.167969 C 96.984375 102.167969 97.109375 102.167969 97.238281 102.167969 L 106.019531 102.167969 C 106.144531 102.167969 106.273438 102.167969 106.335938 102.167969 L 106.335938 45.539062 L 96.855469 45.539062 Z M 96.855469 102.167969 " fill-opacity="1" fill-rule="evenodd"/><g clip-path="url(#16ab588d74)"><path fill="#ffffff" d="M 61.988281 78.433594 C 61.542969 78.433594 61.160156 78.179688 60.90625 77.863281 C 60.523438 77.226562 60.714844 76.460938 61.285156 76.078125 C 69.941406 70.351562 74.332031 63.800781 74.332031 56.546875 C 74.265625 42.164062 57.277344 28.613281 51.425781 24.414062 C 51.167969 27.976562 50.023438 34.65625 44.871094 39.683594 C 44.488281 40.066406 35.453125 49.800781 35.898438 60.871094 C 36.152344 66.535156 38.953125 71.691406 44.105469 76.207031 C 44.617188 76.652344 44.679688 77.417969 44.234375 77.988281 C 43.726562 78.496094 42.960938 78.5625 42.453125 78.117188 C 36.726562 73.152344 33.671875 67.363281 33.417969 60.9375 C 32.84375 48.59375 42.644531 38.347656 43.023438 37.902344 C 43.023438 37.902344 43.023438 37.902344 43.089844 37.902344 C 49.453125 31.667969 48.941406 22.1875 48.941406 22.058594 C 48.878906 21.613281 49.132812 21.167969 49.578125 20.914062 C 49.960938 20.660156 50.46875 20.660156 50.851562 20.914062 C 51.167969 21.105469 57.40625 25.175781 63.769531 31.539062 C 72.421875 40.257812 76.8125 48.65625 76.875 56.546875 C 76.875 64.691406 72.105469 72.007812 62.6875 78.179688 C 62.496094 78.371094 62.242188 78.433594 61.988281 78.433594 Z M 61.988281 78.433594 " fill-opacity="1" fill-rule="evenodd"/></g><path fill="#ffffff" d="M 61.988281 86.386719 L 43.28125 86.386719 C 42.578125 86.386719 42.007812 85.816406 42.007812 85.117188 L 42.007812 77.160156 C 42.007812 76.460938 42.578125 75.890625 43.28125 75.890625 L 61.988281 75.890625 C 62.6875 75.890625 63.257812 76.460938 63.257812 77.160156 L 63.257812 85.117188 C 63.257812 85.816406 62.6875 86.386719 61.988281 86.386719 Z M 44.550781 83.84375 L 60.714844 83.84375 L 60.714844 78.433594 L 44.550781 78.433594 Z M 44.550781 83.84375 " fill-opacity="1" fill-rule="evenodd"/><g clip-path="url(#51e788cfd7)"><path fill="#ffffff" d="M 61.988281 129.339844 L 43.28125 129.339844 C 42.707031 129.339844 42.199219 128.957031 42.007812 128.382812 C 37.808594 113.75 37.808594 99.050781 42.007812 84.734375 C 42.199219 84.226562 42.707031 83.84375 43.28125 83.84375 L 61.988281 83.84375 C 62.558594 83.84375 63.070312 84.226562 63.195312 84.734375 C 67.394531 99.050781 67.394531 113.75 63.195312 128.382812 C 63.070312 128.957031 62.558594 129.339844 61.988281 129.339844 Z M 44.234375 126.792969 L 61.03125 126.792969 C 64.722656 113.238281 64.785156 99.625 61.03125 86.386719 L 44.234375 86.386719 C 40.480469 99.625 40.480469 113.238281 44.234375 126.792969 Z M 44.234375 126.792969 " fill-opacity="1" fill-rule="evenodd"/></g><path fill="#ffffff" d="M 45.1875 72.261719 C 44.871094 72.261719 44.488281 72.136719 44.234375 71.878906 C 39.335938 66.664062 37.679688 60.554688 39.527344 54.320312 C 39.714844 53.617188 40.417969 53.238281 41.117188 53.429688 C 41.753906 53.617188 42.132812 54.382812 41.945312 55.019531 C 40.351562 60.425781 41.753906 65.515625 46.078125 70.097656 C 46.589844 70.609375 46.589844 71.433594 46.078125 71.945312 C 45.824219 72.136719 45.507812 72.261719 45.1875 72.261719 Z M 45.1875 72.261719 " fill-opacity="1" fill-rule="evenodd"/><g clip-path="url(#3a919091f7)"><path fill="#ffffff" d="M 106.019531 129.273438 L 97.238281 129.273438 C 91.128906 129.273438 86.101562 124.3125 86.101562 118.203125 L 86.101562 44.265625 C 86.101562 43.566406 86.675781 42.992188 87.375 42.992188 L 115.816406 42.992188 C 116.515625 42.992188 117.089844 43.566406 117.089844 44.265625 L 117.089844 118.203125 C 117.089844 124.3125 112.128906 129.273438 106.019531 129.273438 Z M 88.648438 45.539062 L 88.648438 118.203125 C 88.648438 122.910156 92.527344 126.730469 97.238281 126.730469 L 106.019531 126.730469 C 110.726562 126.730469 114.609375 122.910156 114.609375 118.203125 L 114.609375 45.539062 Z M 88.648438 45.539062 " fill-opacity="1" fill-rule="evenodd"/></g><g clip-path="url(#8118ffa7a9)"><path fill="#ffffff" d="M 115.816406 45.539062 L 87.375 45.539062 C 86.929688 45.539062 86.484375 45.285156 86.292969 44.902344 C 86.039062 44.457031 86.101562 44.011719 86.355469 43.566406 L 100.355469 21.359375 C 100.609375 20.976562 100.992188 20.785156 101.4375 20.785156 C 101.820312 20.785156 102.265625 20.976562 102.457031 21.359375 L 116.898438 43.566406 C 117.152344 43.945312 117.152344 44.457031 116.960938 44.902344 C 116.707031 45.285156 116.328125 45.539062 115.816406 45.539062 Z M 89.664062 42.992188 L 113.527344 42.992188 L 101.4375 24.414062 Z M 89.664062 42.992188 " fill-opacity="1" fill-rule="evenodd"/></g><path fill="#ffffff" d="M 107.671875 33.003906 L 95.328125 33.003906 C 94.628906 33.003906 94.054688 32.429688 94.054688 31.730469 C 94.054688 31.03125 94.628906 30.457031 95.328125 30.457031 L 107.671875 30.457031 C 108.371094 30.457031 108.945312 31.03125 108.945312 31.730469 C 108.945312 32.429688 108.371094 33.003906 107.671875 33.003906 Z M 107.671875 33.003906 " fill-opacity="1" fill-rule="evenodd"/><g clip-path="url(#f3c62ab52f)"><path fill="#ffffff" d="M 115.816406 114.320312 L 87.375 114.320312 C 86.675781 114.320312 86.101562 113.8125 86.101562 113.113281 L 86.101562 103.503906 C 86.101562 102.804688 86.675781 102.230469 87.375 102.230469 C 88.648438 102.230469 89.921875 102.167969 91.191406 102.167969 L 112.0625 102.167969 C 113.335938 102.167969 114.609375 102.230469 115.882812 102.230469 C 116.582031 102.230469 117.089844 102.804688 117.089844 103.503906 L 117.089844 113.113281 C 117.089844 113.8125 116.515625 114.320312 115.816406 114.320312 Z M 88.648438 111.839844 L 114.609375 111.839844 L 114.609375 104.714844 C 113.71875 104.714844 112.890625 104.714844 112.0625 104.714844 L 91.191406 104.714844 C 90.367188 104.714844 89.539062 104.714844 88.648438 104.714844 Z M 88.648438 111.839844 " fill-opacity="1" fill-rule="evenodd"/></g></svg>