<svg xmlns="http://www.w3.org/2000/svg" xmlns:xlink="http://www.w3.org/1999/xlink" width="500" zoomAndPan="magnify" viewBox="0 0 375 225" height="300" preserveAspectRatio="xMidYMid meet" version="1.0"><defs><g/><clipPath id="66bb5d3ce5"><path d="M 0 0 L 142.5 0 L 142.5 225 L 0 225 Z M 0 0 " clip-rule="nonzero"/></clipPath><clipPath id="b6d756b375"><path d="M 130.011719 0 L 142.5 0 L 142.5 225 L 130.011719 225 Z M 130.011719 0 " clip-rule="nonzero"/></clipPath><clipPath id="bf4f713d0f"><path d="M 110 81 L 115.5 81 L 115.5 85 L 110 85 Z M 110 81 " clip-rule="nonzero"/></clipPath><clipPath id="6364edc862"><path d="M 89 60.28125 L 93 60.28125 L 93 65 L 89 65 Z M 89 60.28125 " clip-rule="nonzero"/></clipPath><clipPath id="8a44b6ead7"><path d="M 22.5 97 L 47 97 L 47 153.28125 L 22.5 153.28125 Z M 22.5 97 " clip-rule="nonzero"/></clipPath></defs><g clip-path="url(#66bb5d3ce5)"><path fill="#ff914d" d="M -40.625 -25.390625 L 142.5 -25.390625 L 142.5 250.726562 L -40.625 250.726562 Z M -40.625 -25.390625 " fill-opacity="1" fill-rule="nonzero"/></g><g clip-path="url(#b6d756b375)"><path fill="#ffffff" d="M 130.011719 0 L 142.5 0 L 142.5 225.015625 L 130.011719 225.015625 Z M 130.011719 0 " fill-opacity="1" fill-rule="nonzero"/></g><g fill="#ffffff" fill-opacity="1"><g transform="translate(172.146115, 103.675846)"><g><path d="M 14.78125 0.265625 C 10.21875 0.265625 6.734375 -1.191406 4.328125 -4.109375 C 2.359375 -6.492188 1.375 -9.4375 1.375 -12.9375 L 1.375 -13.109375 C 1.375 -16.640625 2.359375 -19.597656 4.328125 -21.984375 C 6.710938 -24.867188 10.195312 -26.3125 14.78125 -26.3125 C 18.226562 -26.3125 21.066406 -25.535156 23.296875 -23.984375 C 25.535156 -22.441406 26.878906 -20.375 27.328125 -17.78125 L 21.140625 -17.78125 C 20.992188 -19.113281 20.351562 -20.125 19.21875 -20.8125 C 18.09375 -21.5 16.613281 -21.84375 14.78125 -21.84375 C 12.488281 -21.84375 10.671875 -21.019531 9.328125 -19.375 C 7.992188 -17.726562 7.328125 -15.582031 7.328125 -12.9375 C 7.328125 -10.3125 8.003906 -8.195312 9.359375 -6.59375 C 10.710938 -4.988281 12.519531 -4.1875 14.78125 -4.1875 C 16.613281 -4.1875 18.09375 -4.53125 19.21875 -5.21875 C 20.351562 -5.914062 20.992188 -6.925781 21.140625 -8.25 L 27.328125 -8.25 C 26.878906 -5.6875 25.53125 -3.625 23.28125 -2.0625 C 21.03125 -0.507812 18.195312 0.265625 14.78125 0.265625 Z M 14.78125 0.265625 "/></g></g></g><g fill="#ffffff" fill-opacity="1"><g transform="translate(200.832493, 103.675846)"><g><path d="M 14.65625 0.265625 C 10.15625 0.265625 6.695312 -1.21875 4.28125 -4.1875 C 2.34375 -6.570312 1.375 -9.398438 1.375 -12.671875 C 1.375 -16.140625 2.34375 -19.140625 4.28125 -21.671875 C 6.695312 -24.765625 10.15625 -26.3125 14.65625 -26.3125 C 19.125 -26.3125 22.597656 -24.765625 25.078125 -21.671875 C 26.984375 -19.203125 27.9375 -16.203125 27.9375 -12.671875 C 27.9375 -9.367188 26.984375 -6.539062 25.078125 -4.1875 C 22.597656 -1.21875 19.125 0.265625 14.65625 0.265625 Z M 9.3125 -6.546875 C 10.632812 -4.972656 12.414062 -4.1875 14.65625 -4.1875 C 16.894531 -4.1875 18.675781 -4.972656 20 -6.546875 C 21.320312 -8.128906 21.984375 -10.171875 21.984375 -12.671875 C 21.984375 -15.347656 21.328125 -17.546875 20.015625 -19.265625 C 18.703125 -20.984375 16.914062 -21.84375 14.65625 -21.84375 C 12.414062 -21.84375 10.632812 -20.984375 9.3125 -19.265625 C 7.988281 -17.546875 7.328125 -15.347656 7.328125 -12.671875 C 7.328125 -10.171875 7.988281 -8.128906 9.3125 -6.546875 Z M 9.3125 -6.546875 "/></g></g></g><g fill="#ffffff" fill-opacity="1"><g transform="translate(230.136725, 103.675846)"><g><path d="M 1.8125 0 L 2.203125 -6.046875 C 2.265625 -7.191406 2.351562 -8.648438 2.46875 -10.421875 C 2.46875 -10.453125 2.765625 -15.585938 3.359375 -25.828125 L 13.375 -25.828125 L 18.765625 -8.875 L 24.140625 -25.828125 L 34.171875 -25.828125 C 34.398438 -22.203125 34.570312 -19.210938 34.6875 -16.859375 C 34.925781 -12.597656 35.148438 -8.992188 35.359375 -6.046875 C 35.390625 -5.460938 35.425781 -4.734375 35.46875 -3.859375 C 35.507812 -2.992188 35.554688 -2.171875 35.609375 -1.390625 C 35.671875 -0.609375 35.703125 -0.144531 35.703125 0 L 29.65625 0 L 28.421875 -20.65625 L 21.84375 0 L 15.671875 0 L 9.09375 -20.65625 L 7.859375 0 Z M 1.8125 0 "/></g></g></g><g fill="#ffffff" fill-opacity="1"><g transform="translate(267.649678, 103.675846)"><g><path d="M 1.8125 0 L 2.203125 -6.046875 C 2.265625 -7.191406 2.351562 -8.648438 2.46875 -10.421875 C 2.46875 -10.453125 2.765625 -15.585938 3.359375 -25.828125 L 13.375 -25.828125 L 18.765625 -8.875 L 24.140625 -25.828125 L 34.171875 -25.828125 C 34.398438 -22.203125 34.570312 -19.210938 34.6875 -16.859375 C 34.925781 -12.597656 35.148438 -8.992188 35.359375 -6.046875 C 35.390625 -5.460938 35.425781 -4.734375 35.46875 -3.859375 C 35.507812 -2.992188 35.554688 -2.171875 35.609375 -1.390625 C 35.671875 -0.609375 35.703125 -0.144531 35.703125 0 L 29.65625 0 L 28.421875 -20.65625 L 21.84375 0 L 15.671875 0 L 9.09375 -20.65625 L 7.859375 0 Z M 1.8125 0 "/></g></g></g><g fill="#ffffff" fill-opacity="1"><g transform="translate(305.162631, 103.675846)"><g><path d="M 14.03125 0.265625 C 11.945312 0.265625 10 0.0078125 8.1875 -0.5 C 6.375 -1.019531 4.832031 -1.90625 3.5625 -3.15625 C 2.300781 -4.40625 1.671875 -5.925781 1.671875 -7.71875 L 8.953125 -7.71875 C 8.953125 -5.363281 10.660156 -4.1875 14.078125 -4.1875 C 16.078125 -4.1875 17.46875 -4.421875 18.25 -4.890625 C 19.03125 -5.367188 19.421875 -6.195312 19.421875 -7.375 C 19.421875 -7.664062 19.359375 -7.9375 19.234375 -8.1875 C 19.117188 -8.4375 18.898438 -8.664062 18.578125 -8.875 C 18.253906 -9.082031 17.96875 -9.242188 17.71875 -9.359375 C 17.46875 -9.472656 17.0625 -9.601562 16.5 -9.75 C 15.945312 -9.894531 15.519531 -10 15.21875 -10.0625 C 14.925781 -10.125 14.441406 -10.226562 13.765625 -10.375 C 13.390625 -10.457031 13.097656 -10.515625 12.890625 -10.546875 C 11.472656 -10.816406 10.359375 -11.046875 9.546875 -11.234375 C 8.742188 -11.421875 7.757812 -11.734375 6.59375 -12.171875 C 5.4375 -12.617188 4.546875 -13.097656 3.921875 -13.609375 C 3.304688 -14.128906 2.765625 -14.828125 2.296875 -15.703125 C 1.828125 -16.585938 1.59375 -17.59375 1.59375 -18.71875 C 1.59375 -21.007812 2.398438 -22.800781 4.015625 -24.09375 C 5.929688 -25.570312 8.921875 -26.3125 12.984375 -26.3125 C 15.066406 -26.3125 16.972656 -26.046875 18.703125 -25.515625 C 20.441406 -24.984375 21.90625 -24.097656 23.09375 -22.859375 C 24.289062 -21.628906 24.890625 -20.113281 24.890625 -18.3125 L 17.609375 -18.3125 C 17.609375 -19.582031 17.234375 -20.488281 16.484375 -21.03125 C 15.734375 -21.570312 14.578125 -21.84375 13.015625 -21.84375 C 11.253906 -21.84375 9.929688 -21.59375 9.046875 -21.09375 C 8.160156 -20.59375 7.71875 -19.90625 7.71875 -19.03125 C 7.71875 -18.53125 7.882812 -18.085938 8.21875 -17.703125 C 8.5625 -17.316406 9.078125 -17 9.765625 -16.75 C 10.460938 -16.5 11.128906 -16.289062 11.765625 -16.125 C 12.398438 -15.96875 13.21875 -15.785156 14.21875 -15.578125 C 14.363281 -15.546875 14.460938 -15.523438 14.515625 -15.515625 C 14.578125 -15.503906 14.664062 -15.488281 14.78125 -15.46875 C 14.90625 -15.457031 15.007812 -15.4375 15.09375 -15.40625 C 16.507812 -15.113281 17.757812 -14.796875 18.84375 -14.453125 C 19.9375 -14.117188 21.023438 -13.664062 22.109375 -13.09375 C 23.203125 -12.519531 24.050781 -11.789062 24.65625 -10.90625 C 25.257812 -10.019531 25.5625 -9.003906 25.5625 -7.859375 C 25.5625 -5.265625 24.722656 -3.320312 23.046875 -2.03125 C 21.128906 -0.5 18.125 0.265625 14.03125 0.265625 Z M 14.03125 0.265625 "/></g></g></g><g fill="#ffffff" fill-opacity="1"><g transform="translate(164.451365, 162.003109)"><g><path d="M 5.375 0.171875 C 4.539062 0.171875 3.796875 0.0664062 3.140625 -0.140625 C 2.484375 -0.347656 1.9375 -0.617188 1.5 -0.953125 C 1.0625 -1.296875 0.722656 -1.664062 0.484375 -2.0625 L 1.8125 -3.671875 L 2.015625 -3.671875 C 2.378906 -3.128906 2.84375 -2.695312 3.40625 -2.375 C 3.96875 -2.0625 4.625 -1.90625 5.375 -1.90625 C 6.019531 -1.90625 6.503906 -2.039062 6.828125 -2.3125 C 7.160156 -2.582031 7.328125 -2.953125 7.328125 -3.421875 C 7.328125 -3.710938 7.269531 -3.953125 7.15625 -4.140625 C 7.050781 -4.335938 6.878906 -4.503906 6.640625 -4.640625 C 6.398438 -4.785156 6.070312 -4.90625 5.65625 -5 L 4.09375 -5.359375 C 3 -5.609375 2.1875 -6.019531 1.65625 -6.59375 C 1.125 -7.175781 0.859375 -7.929688 0.859375 -8.859375 C 0.859375 -9.546875 1.03125 -10.148438 1.375 -10.671875 C 1.71875 -11.191406 2.21875 -11.59375 2.875 -11.875 C 3.53125 -12.164062 4.3125 -12.3125 5.21875 -12.3125 C 6.15625 -12.3125 6.957031 -12.1875 7.625 -11.9375 C 8.289062 -11.695312 8.851562 -11.320312 9.3125 -10.8125 L 8.125 -9.1875 L 7.921875 -9.1875 C 7.578125 -9.539062 7.179688 -9.804688 6.734375 -9.984375 C 6.296875 -10.171875 5.789062 -10.265625 5.21875 -10.265625 C 4.5625 -10.265625 4.0625 -10.144531 3.71875 -9.90625 C 3.375 -9.675781 3.203125 -9.359375 3.203125 -8.953125 C 3.203125 -8.566406 3.320312 -8.257812 3.5625 -8.03125 C 3.800781 -7.800781 4.21875 -7.625 4.8125 -7.5 L 6.40625 -7.171875 C 7.582031 -6.921875 8.4375 -6.5 8.96875 -5.90625 C 9.5 -5.3125 9.765625 -4.535156 9.765625 -3.578125 C 9.765625 -2.816406 9.601562 -2.15625 9.28125 -1.59375 C 8.957031 -1.03125 8.460938 -0.59375 7.796875 -0.28125 C 7.140625 0.0195312 6.332031 0.171875 5.375 0.171875 Z M 5.375 0.171875 "/></g></g></g><g fill="#ffffff" fill-opacity="1"><g transform="translate(174.872355, 162.003109)"><g><path d="M 6.3125 -2.1875 L 6.921875 -0.484375 C 6.671875 -0.273438 6.351562 -0.113281 5.96875 0 C 5.59375 0.113281 5.171875 0.171875 4.703125 0.171875 C 3.710938 0.171875 2.957031 -0.09375 2.4375 -0.625 C 1.925781 -1.164062 1.671875 -1.953125 1.671875 -2.984375 L 1.671875 -7.34375 L 0.28125 -7.34375 L 0.28125 -9.171875 L 1.671875 -9.171875 L 1.671875 -10.953125 L 3.96875 -11.328125 L 3.96875 -9.171875 L 6.5625 -9.171875 L 6.5625 -7.34375 L 3.96875 -7.34375 L 3.96875 -3.15625 C 3.96875 -2.695312 4.0625 -2.363281 4.25 -2.15625 C 4.4375 -1.945312 4.710938 -1.84375 5.078125 -1.84375 C 5.484375 -1.84375 5.835938 -1.957031 6.140625 -2.1875 Z M 6.3125 -2.1875 "/></g></g></g><g fill="#ffffff" fill-opacity="1"><g transform="translate(181.982855, 162.003109)"><g><path d="M 1.3125 0 L 1.3125 -9.15625 L 3.546875 -9.15625 L 3.546875 -7.796875 L 3.734375 -7.765625 C 3.953125 -8.273438 4.238281 -8.644531 4.59375 -8.875 C 4.957031 -9.113281 5.394531 -9.234375 5.90625 -9.234375 C 6.425781 -9.234375 6.820312 -9.144531 7.09375 -8.96875 L 6.703125 -6.984375 L 6.53125 -6.953125 C 6.382812 -7.015625 6.238281 -7.054688 6.09375 -7.078125 C 5.957031 -7.109375 5.789062 -7.125 5.59375 -7.125 C 4.945312 -7.125 4.457031 -6.898438 4.125 -6.453125 C 3.789062 -6.003906 3.625 -5.28125 3.625 -4.28125 L 3.625 0 Z M 1.3125 0 "/></g></g></g><g fill="#ffffff" fill-opacity="1"><g transform="translate(189.15973, 162.003109)"><g><path d="M 3.5625 0.171875 C 2.976562 0.171875 2.46875 0.0664062 2.03125 -0.140625 C 1.601562 -0.359375 1.273438 -0.675781 1.046875 -1.09375 C 0.816406 -1.519531 0.703125 -2.023438 0.703125 -2.609375 C 0.703125 -3.148438 0.816406 -3.601562 1.046875 -3.96875 C 1.273438 -4.34375 1.632812 -4.644531 2.125 -4.875 C 2.613281 -5.113281 3.25 -5.296875 4.03125 -5.421875 C 4.582031 -5.503906 5 -5.597656 5.28125 -5.703125 C 5.570312 -5.816406 5.765625 -5.9375 5.859375 -6.0625 C 5.960938 -6.195312 6.015625 -6.367188 6.015625 -6.578125 C 6.015625 -6.867188 5.910156 -7.09375 5.703125 -7.25 C 5.492188 -7.40625 5.15625 -7.484375 4.6875 -7.484375 C 4.175781 -7.484375 3.691406 -7.367188 3.234375 -7.140625 C 2.773438 -6.910156 2.375 -6.613281 2.03125 -6.25 L 1.875 -6.25 L 0.90625 -7.6875 C 1.375 -8.207031 1.941406 -8.609375 2.609375 -8.890625 C 3.273438 -9.179688 4.003906 -9.328125 4.796875 -9.328125 C 6.003906 -9.328125 6.878906 -9.066406 7.421875 -8.546875 C 7.972656 -8.035156 8.25 -7.304688 8.25 -6.359375 L 8.25 -2.390625 C 8.25 -1.984375 8.425781 -1.78125 8.78125 -1.78125 C 8.914062 -1.78125 9.050781 -1.800781 9.1875 -1.84375 L 9.3125 -1.8125 L 9.46875 -0.21875 C 9.34375 -0.132812 9.164062 -0.0664062 8.9375 -0.015625 C 8.707031 0.0351562 8.457031 0.0625 8.1875 0.0625 C 7.644531 0.0625 7.21875 -0.0390625 6.90625 -0.25 C 6.601562 -0.457031 6.382812 -0.785156 6.25 -1.234375 L 6.078125 -1.25 C 5.628906 -0.300781 4.789062 0.171875 3.5625 0.171875 Z M 4.296875 -1.546875 C 4.828125 -1.546875 5.25 -1.722656 5.5625 -2.078125 C 5.882812 -2.429688 6.046875 -2.925781 6.046875 -3.5625 L 6.046875 -4.5 L 5.890625 -4.53125 C 5.753906 -4.414062 5.570312 -4.320312 5.34375 -4.25 C 5.125 -4.175781 4.804688 -4.101562 4.390625 -4.03125 C 3.890625 -3.945312 3.53125 -3.800781 3.3125 -3.59375 C 3.09375 -3.394531 2.984375 -3.113281 2.984375 -2.75 C 2.984375 -2.351562 3.097656 -2.050781 3.328125 -1.84375 C 3.554688 -1.644531 3.878906 -1.546875 4.296875 -1.546875 Z M 4.296875 -1.546875 "/></g></g></g><g fill="#ffffff" fill-opacity="1"><g transform="translate(198.809102, 162.003109)"><g><path d="M 6.3125 -2.1875 L 6.921875 -0.484375 C 6.671875 -0.273438 6.351562 -0.113281 5.96875 0 C 5.59375 0.113281 5.171875 0.171875 4.703125 0.171875 C 3.710938 0.171875 2.957031 -0.09375 2.4375 -0.625 C 1.925781 -1.164062 1.671875 -1.953125 1.671875 -2.984375 L 1.671875 -7.34375 L 0.28125 -7.34375 L 0.28125 -9.171875 L 1.671875 -9.171875 L 1.671875 -10.953125 L 3.96875 -11.328125 L 3.96875 -9.171875 L 6.5625 -9.171875 L 6.5625 -7.34375 L 3.96875 -7.34375 L 3.96875 -3.15625 C 3.96875 -2.695312 4.0625 -2.363281 4.25 -2.15625 C 4.4375 -1.945312 4.710938 -1.84375 5.078125 -1.84375 C 5.484375 -1.84375 5.835938 -1.957031 6.140625 -2.1875 Z M 6.3125 -2.1875 "/></g></g></g><g fill="#ffffff" fill-opacity="1"><g transform="translate(205.919602, 162.003109)"><g><path d="M 9.046875 -4.0625 L 3.15625 -4.0625 C 3.226562 -3.257812 3.457031 -2.675781 3.84375 -2.3125 C 4.226562 -1.957031 4.753906 -1.78125 5.421875 -1.78125 C 5.953125 -1.78125 6.378906 -1.875 6.703125 -2.0625 C 7.035156 -2.257812 7.300781 -2.5625 7.5 -2.96875 L 7.671875 -2.96875 L 9.203125 -1.984375 C 8.898438 -1.335938 8.445312 -0.816406 7.84375 -0.421875 C 7.238281 -0.0234375 6.429688 0.171875 5.421875 0.171875 C 4.484375 0.171875 3.664062 -0.00390625 2.96875 -0.359375 C 2.28125 -0.722656 1.75 -1.257812 1.375 -1.96875 C 1.007812 -2.675781 0.828125 -3.546875 0.828125 -4.578125 C 0.828125 -5.617188 1.019531 -6.492188 1.40625 -7.203125 C 1.800781 -7.921875 2.332031 -8.453125 3 -8.796875 C 3.675781 -9.148438 4.429688 -9.328125 5.265625 -9.328125 C 6.554688 -9.328125 7.546875 -8.984375 8.234375 -8.296875 C 8.921875 -7.609375 9.265625 -6.601562 9.265625 -5.28125 C 9.265625 -4.800781 9.25 -4.425781 9.21875 -4.15625 Z M 7.078125 -5.546875 C 7.054688 -6.242188 6.894531 -6.75 6.59375 -7.0625 C 6.289062 -7.382812 5.847656 -7.546875 5.265625 -7.546875 C 4.097656 -7.546875 3.414062 -6.878906 3.21875 -5.546875 Z M 7.078125 -5.546875 "/></g></g></g><g fill="#ffffff" fill-opacity="1"><g transform="translate(215.867665, 162.003109)"><g><path d="M 4.75 3.890625 C 3.238281 3.890625 2.125 3.664062 1.40625 3.21875 C 0.6875 2.78125 0.328125 2.164062 0.328125 1.375 C 0.328125 0.882812 0.476562 0.484375 0.78125 0.171875 C 1.09375 -0.128906 1.535156 -0.332031 2.109375 -0.4375 L 2.109375 -0.609375 C 1.796875 -0.796875 1.570312 -1.003906 1.4375 -1.234375 C 1.300781 -1.460938 1.234375 -1.726562 1.234375 -2.03125 C 1.234375 -2.769531 1.710938 -3.265625 2.671875 -3.515625 L 2.671875 -3.6875 C 2.179688 -3.976562 1.8125 -4.332031 1.5625 -4.75 C 1.3125 -5.164062 1.1875 -5.671875 1.1875 -6.265625 C 1.1875 -6.867188 1.328125 -7.398438 1.609375 -7.859375 C 1.890625 -8.328125 2.296875 -8.6875 2.828125 -8.9375 C 3.367188 -9.195312 4.015625 -9.328125 4.765625 -9.328125 C 5.535156 -9.328125 6.144531 -9.195312 6.59375 -8.9375 C 6.875 -9.34375 7.039062 -9.8125 7.09375 -10.34375 L 7.265625 -10.453125 L 8.921875 -10.046875 C 8.867188 -9.609375 8.738281 -9.242188 8.53125 -8.953125 C 8.320312 -8.660156 8.003906 -8.394531 7.578125 -8.15625 L 7.578125 -7.984375 C 8.085938 -7.523438 8.34375 -6.890625 8.34375 -6.078125 C 8.34375 -5.515625 8.203125 -5.007812 7.921875 -4.5625 C 7.640625 -4.113281 7.226562 -3.757812 6.6875 -3.5 C 6.15625 -3.238281 5.515625 -3.109375 4.765625 -3.109375 L 4.421875 -3.109375 C 4.203125 -3.117188 4.046875 -3.125 3.953125 -3.125 C 3.742188 -3.125 3.578125 -3.066406 3.453125 -2.953125 C 3.335938 -2.847656 3.28125 -2.707031 3.28125 -2.53125 C 3.28125 -2.332031 3.359375 -2.175781 3.515625 -2.0625 C 3.671875 -1.957031 3.898438 -1.898438 4.203125 -1.890625 L 6.25 -1.8125 C 8.269531 -1.757812 9.28125 -0.890625 9.28125 0.796875 C 9.28125 1.390625 9.128906 1.914062 8.828125 2.375 C 8.535156 2.84375 8.050781 3.210938 7.375 3.484375 C 6.695312 3.753906 5.820312 3.890625 4.75 3.890625 Z M 4.765625 -4.71875 C 5.210938 -4.71875 5.5625 -4.847656 5.8125 -5.109375 C 6.0625 -5.367188 6.1875 -5.738281 6.1875 -6.21875 C 6.1875 -6.695312 6.0625 -7.066406 5.8125 -7.328125 C 5.5625 -7.585938 5.210938 -7.71875 4.765625 -7.71875 C 4.316406 -7.71875 3.972656 -7.585938 3.734375 -7.328125 C 3.492188 -7.066406 3.375 -6.695312 3.375 -6.21875 C 3.375 -5.726562 3.492188 -5.351562 3.734375 -5.09375 C 3.972656 -4.84375 4.316406 -4.71875 4.765625 -4.71875 Z M 4.75 2.21875 C 5.53125 2.21875 6.097656 2.101562 6.453125 1.875 C 6.816406 1.65625 7 1.367188 7 1.015625 C 7 0.734375 6.90625 0.523438 6.71875 0.390625 C 6.539062 0.253906 6.253906 0.179688 5.859375 0.171875 L 4.046875 0.078125 C 3.984375 0.078125 3.925781 0.0703125 3.875 0.0625 C 3.820312 0.0625 3.769531 0.0625 3.71875 0.0625 C 3.332031 0.0625 3.035156 0.144531 2.828125 0.3125 C 2.628906 0.476562 2.53125 0.707031 2.53125 1 C 2.53125 1.382812 2.710938 1.679688 3.078125 1.890625 C 3.453125 2.109375 4.007812 2.21875 4.75 2.21875 Z M 4.75 2.21875 "/></g></g></g><g fill="#ffffff" fill-opacity="1"><g transform="translate(225.384285, 162.003109)"><g><path d="M 2.46875 -10.25 C 2.050781 -10.25 1.710938 -10.375 1.453125 -10.625 C 1.191406 -10.875 1.0625 -11.203125 1.0625 -11.609375 C 1.0625 -11.992188 1.191406 -12.3125 1.453125 -12.5625 C 1.710938 -12.820312 2.050781 -12.953125 2.46875 -12.953125 C 2.738281 -12.953125 2.984375 -12.890625 3.203125 -12.765625 C 3.421875 -12.648438 3.585938 -12.492188 3.703125 -12.296875 C 3.828125 -12.097656 3.890625 -11.867188 3.890625 -11.609375 C 3.890625 -11.347656 3.828125 -11.113281 3.703125 -10.90625 C 3.585938 -10.695312 3.421875 -10.535156 3.203125 -10.421875 C 2.984375 -10.304688 2.738281 -10.25 2.46875 -10.25 Z M 1.3125 0 L 1.3125 -9.15625 L 3.625 -9.15625 L 3.625 0 Z M 1.3125 0 "/></g></g></g><g fill="#ffffff" fill-opacity="1"><g transform="translate(230.312683, 162.003109)"><g><path d="M 9.046875 -4.0625 L 3.15625 -4.0625 C 3.226562 -3.257812 3.457031 -2.675781 3.84375 -2.3125 C 4.226562 -1.957031 4.753906 -1.78125 5.421875 -1.78125 C 5.953125 -1.78125 6.378906 -1.875 6.703125 -2.0625 C 7.035156 -2.257812 7.300781 -2.5625 7.5 -2.96875 L 7.671875 -2.96875 L 9.203125 -1.984375 C 8.898438 -1.335938 8.445312 -0.816406 7.84375 -0.421875 C 7.238281 -0.0234375 6.429688 0.171875 5.421875 0.171875 C 4.484375 0.171875 3.664062 -0.00390625 2.96875 -0.359375 C 2.28125 -0.722656 1.75 -1.257812 1.375 -1.96875 C 1.007812 -2.675781 0.828125 -3.546875 0.828125 -4.578125 C 0.828125 -5.617188 1.019531 -6.492188 1.40625 -7.203125 C 1.800781 -7.921875 2.332031 -8.453125 3 -8.796875 C 3.675781 -9.148438 4.429688 -9.328125 5.265625 -9.328125 C 6.554688 -9.328125 7.546875 -8.984375 8.234375 -8.296875 C 8.921875 -7.609375 9.265625 -6.601562 9.265625 -5.28125 C 9.265625 -4.800781 9.25 -4.425781 9.21875 -4.15625 Z M 7.078125 -5.546875 C 7.054688 -6.242188 6.894531 -6.75 6.59375 -7.0625 C 6.289062 -7.382812 5.847656 -7.546875 5.265625 -7.546875 C 4.097656 -7.546875 3.414062 -6.878906 3.21875 -5.546875 Z M 7.078125 -5.546875 "/></g></g></g><g fill="#ffffff" fill-opacity="1"><g transform="translate(240.260745, 162.003109)"><g><path d="M 4.28125 0.171875 C 3.65625 0.171875 3.082031 0.0976562 2.5625 -0.046875 C 2.039062 -0.191406 1.597656 -0.390625 1.234375 -0.640625 C 0.867188 -0.898438 0.597656 -1.195312 0.421875 -1.53125 L 1.6875 -2.90625 L 1.875 -2.90625 C 2.175781 -2.5 2.53125 -2.191406 2.9375 -1.984375 C 3.351562 -1.785156 3.804688 -1.6875 4.296875 -1.6875 C 4.742188 -1.6875 5.082031 -1.765625 5.3125 -1.921875 C 5.539062 -2.085938 5.65625 -2.316406 5.65625 -2.609375 C 5.65625 -2.847656 5.570312 -3.046875 5.40625 -3.203125 C 5.238281 -3.359375 4.972656 -3.476562 4.609375 -3.5625 L 3.40625 -3.859375 C 2.5 -4.078125 1.832031 -4.40625 1.40625 -4.84375 C 0.988281 -5.289062 0.78125 -5.859375 0.78125 -6.546875 C 0.78125 -7.117188 0.925781 -7.613281 1.21875 -8.03125 C 1.507812 -8.457031 1.921875 -8.78125 2.453125 -9 C 2.984375 -9.21875 3.597656 -9.328125 4.296875 -9.328125 C 5.117188 -9.328125 5.800781 -9.207031 6.34375 -8.96875 C 6.882812 -8.726562 7.3125 -8.410156 7.625 -8.015625 L 6.390625 -6.6875 L 6.21875 -6.6875 C 5.96875 -6.976562 5.679688 -7.1875 5.359375 -7.3125 C 5.046875 -7.445312 4.691406 -7.515625 4.296875 -7.515625 C 3.390625 -7.515625 2.9375 -7.234375 2.9375 -6.671875 C 2.9375 -6.429688 3.019531 -6.238281 3.1875 -6.09375 C 3.351562 -5.945312 3.648438 -5.828125 4.078125 -5.734375 L 5.21875 -5.484375 C 6.144531 -5.285156 6.820312 -4.960938 7.25 -4.515625 C 7.675781 -4.078125 7.890625 -3.488281 7.890625 -2.75 C 7.890625 -2.164062 7.742188 -1.648438 7.453125 -1.203125 C 7.171875 -0.765625 6.757812 -0.425781 6.21875 -0.1875 C 5.675781 0.0507812 5.03125 0.171875 4.28125 0.171875 Z M 4.28125 0.171875 "/></g></g></g><g fill="#ffffff" fill-opacity="1"><g transform="translate(248.69876, 162.003109)"><g/></g></g><g fill="#ffffff" fill-opacity="1"><g transform="translate(252.706195, 162.003109)"><g><path d="M 1.609375 0 L 1.609375 -7.34375 L 0.3125 -7.34375 L 0.3125 -9.171875 L 1.609375 -9.171875 C 1.515625 -9.554688 1.46875 -9.914062 1.46875 -10.25 C 1.46875 -10.832031 1.597656 -11.328125 1.859375 -11.734375 C 2.128906 -12.148438 2.507812 -12.460938 3 -12.671875 C 3.5 -12.890625 4.09375 -13 4.78125 -13 C 5.789062 -13 6.546875 -12.828125 7.046875 -12.484375 L 6.515625 -10.796875 L 6.328125 -10.765625 C 5.984375 -11.003906 5.546875 -11.125 5.015625 -11.125 C 4.597656 -11.125 4.285156 -11.019531 4.078125 -10.8125 C 3.867188 -10.613281 3.765625 -10.34375 3.765625 -10 C 3.765625 -9.84375 3.773438 -9.703125 3.796875 -9.578125 C 3.816406 -9.453125 3.851562 -9.316406 3.90625 -9.171875 L 6.515625 -9.171875 L 6.515625 -7.34375 L 3.90625 -7.34375 L 3.90625 0 Z M 1.609375 0 "/></g></g></g><g fill="#ffffff" fill-opacity="1"><g transform="translate(259.31058, 162.003109)"><g><path d="M 5.328125 0.171875 C 4.421875 0.171875 3.628906 -0.0078125 2.953125 -0.375 C 2.273438 -0.75 1.75 -1.289062 1.375 -2 C 1.007812 -2.707031 0.828125 -3.566406 0.828125 -4.578125 C 0.828125 -5.578125 1.007812 -6.429688 1.375 -7.140625 C 1.75 -7.859375 2.273438 -8.398438 2.953125 -8.765625 C 3.628906 -9.140625 4.421875 -9.328125 5.328125 -9.328125 C 6.222656 -9.328125 7.007812 -9.140625 7.6875 -8.765625 C 8.363281 -8.398438 8.890625 -7.859375 9.265625 -7.140625 C 9.640625 -6.429688 9.828125 -5.578125 9.828125 -4.578125 C 9.828125 -3.566406 9.640625 -2.707031 9.265625 -2 C 8.890625 -1.289062 8.363281 -0.75 7.6875 -0.375 C 7.007812 -0.0078125 6.222656 0.171875 5.328125 0.171875 Z M 5.328125 -1.78125 C 6.742188 -1.78125 7.453125 -2.710938 7.453125 -4.578125 C 7.453125 -5.546875 7.269531 -6.253906 6.90625 -6.703125 C 6.539062 -7.148438 6.015625 -7.375 5.328125 -7.375 C 3.898438 -7.375 3.1875 -6.441406 3.1875 -4.578125 C 3.1875 -2.710938 3.898438 -1.78125 5.328125 -1.78125 Z M 5.328125 -1.78125 "/></g></g></g><g fill="#ffffff" fill-opacity="1"><g transform="translate(269.94729, 162.003109)"><g><path d="M 1.3125 0 L 1.3125 -9.15625 L 3.546875 -9.15625 L 3.546875 -7.796875 L 3.734375 -7.765625 C 3.953125 -8.273438 4.238281 -8.644531 4.59375 -8.875 C 4.957031 -9.113281 5.394531 -9.234375 5.90625 -9.234375 C 6.425781 -9.234375 6.820312 -9.144531 7.09375 -8.96875 L 6.703125 -6.984375 L 6.53125 -6.953125 C 6.382812 -7.015625 6.238281 -7.054688 6.09375 -7.078125 C 5.957031 -7.109375 5.789062 -7.125 5.59375 -7.125 C 4.945312 -7.125 4.457031 -6.898438 4.125 -6.453125 C 3.789062 -6.003906 3.625 -5.28125 3.625 -4.28125 L 3.625 0 Z M 1.3125 0 "/></g></g></g><g fill="#ffffff" fill-opacity="1"><g transform="translate(277.124166, 162.003109)"><g/></g></g><g fill="#ffffff" fill-opacity="1"><g transform="translate(281.131601, 162.003109)"><g><path d="M 3.96875 0 L 1.578125 0 L 1.578125 -12.140625 L 3.96875 -12.140625 Z M 3.96875 0 "/></g></g></g><g fill="#ffffff" fill-opacity="1"><g transform="translate(286.690568, 162.003109)"><g><path d="M 1.3125 0 L 1.3125 -9.15625 L 3.53125 -9.15625 L 3.53125 -7.8125 L 3.703125 -7.765625 C 4.273438 -8.804688 5.195312 -9.328125 6.46875 -9.328125 C 7.53125 -9.328125 8.304688 -9.039062 8.796875 -8.46875 C 9.296875 -7.894531 9.546875 -7.054688 9.546875 -5.953125 L 9.546875 0 L 7.25 0 L 7.25 -5.671875 C 7.25 -6.273438 7.125 -6.710938 6.875 -6.984375 C 6.632812 -7.253906 6.25 -7.390625 5.71875 -7.390625 C 5.050781 -7.390625 4.535156 -7.175781 4.171875 -6.75 C 3.804688 -6.320312 3.625 -5.648438 3.625 -4.734375 L 3.625 0 Z M 1.3125 0 "/></g></g></g><g fill="#ffffff" fill-opacity="1"><g transform="translate(297.410249, 162.003109)"><g><path d="M 6.3125 -2.1875 L 6.921875 -0.484375 C 6.671875 -0.273438 6.351562 -0.113281 5.96875 0 C 5.59375 0.113281 5.171875 0.171875 4.703125 0.171875 C 3.710938 0.171875 2.957031 -0.09375 2.4375 -0.625 C 1.925781 -1.164062 1.671875 -1.953125 1.671875 -2.984375 L 1.671875 -7.34375 L 0.28125 -7.34375 L 0.28125 -9.171875 L 1.671875 -9.171875 L 1.671875 -10.953125 L 3.96875 -11.328125 L 3.96875 -9.171875 L 6.5625 -9.171875 L 6.5625 -7.34375 L 3.96875 -7.34375 L 3.96875 -3.15625 C 3.96875 -2.695312 4.0625 -2.363281 4.25 -2.15625 C 4.4375 -1.945312 4.710938 -1.84375 5.078125 -1.84375 C 5.484375 -1.84375 5.835938 -1.957031 6.140625 -2.1875 Z M 6.3125 -2.1875 "/></g></g></g><g fill="#ffffff" fill-opacity="1"><g transform="translate(304.520749, 162.003109)"><g><path d="M 9.046875 -4.0625 L 3.15625 -4.0625 C 3.226562 -3.257812 3.457031 -2.675781 3.84375 -2.3125 C 4.226562 -1.957031 4.753906 -1.78125 5.421875 -1.78125 C 5.953125 -1.78125 6.378906 -1.875 6.703125 -2.0625 C 7.035156 -2.257812 7.300781 -2.5625 7.5 -2.96875 L 7.671875 -2.96875 L 9.203125 -1.984375 C 8.898438 -1.335938 8.445312 -0.816406 7.84375 -0.421875 C 7.238281 -0.0234375 6.429688 0.171875 5.421875 0.171875 C 4.484375 0.171875 3.664062 -0.00390625 2.96875 -0.359375 C 2.28125 -0.722656 1.75 -1.257812 1.375 -1.96875 C 1.007812 -2.675781 0.828125 -3.546875 0.828125 -4.578125 C 0.828125 -5.617188 1.019531 -6.492188 1.40625 -7.203125 C 1.800781 -7.921875 2.332031 -8.453125 3 -8.796875 C 3.675781 -9.148438 4.429688 -9.328125 5.265625 -9.328125 C 6.554688 -9.328125 7.546875 -8.984375 8.234375 -8.296875 C 8.921875 -7.609375 9.265625 -6.601562 9.265625 -5.28125 C 9.265625 -4.800781 9.25 -4.425781 9.21875 -4.15625 Z M 7.078125 -5.546875 C 7.054688 -6.242188 6.894531 -6.75 6.59375 -7.0625 C 6.289062 -7.382812 5.847656 -7.546875 5.265625 -7.546875 C 4.097656 -7.546875 3.414062 -6.878906 3.21875 -5.546875 Z M 7.078125 -5.546875 "/></g></g></g><g fill="#ffffff" fill-opacity="1"><g transform="translate(314.468811, 162.003109)"><g><path d="M 1.3125 0 L 1.3125 -9.15625 L 3.546875 -9.15625 L 3.546875 -7.796875 L 3.734375 -7.765625 C 3.953125 -8.273438 4.238281 -8.644531 4.59375 -8.875 C 4.957031 -9.113281 5.394531 -9.234375 5.90625 -9.234375 C 6.425781 -9.234375 6.820312 -9.144531 7.09375 -8.96875 L 6.703125 -6.984375 L 6.53125 -6.953125 C 6.382812 -7.015625 6.238281 -7.054688 6.09375 -7.078125 C 5.957031 -7.109375 5.789062 -7.125 5.59375 -7.125 C 4.945312 -7.125 4.457031 -6.898438 4.125 -6.453125 C 3.789062 -6.003906 3.625 -5.28125 3.625 -4.28125 L 3.625 0 Z M 1.3125 0 "/></g></g></g><g fill="#ffffff" fill-opacity="1"><g transform="translate(321.645687, 162.003109)"><g><path d="M 1.3125 0 L 1.3125 -9.15625 L 3.53125 -9.15625 L 3.53125 -7.8125 L 3.703125 -7.765625 C 4.273438 -8.804688 5.195312 -9.328125 6.46875 -9.328125 C 7.53125 -9.328125 8.304688 -9.039062 8.796875 -8.46875 C 9.296875 -7.894531 9.546875 -7.054688 9.546875 -5.953125 L 9.546875 0 L 7.25 0 L 7.25 -5.671875 C 7.25 -6.273438 7.125 -6.710938 6.875 -6.984375 C 6.632812 -7.253906 6.25 -7.390625 5.71875 -7.390625 C 5.050781 -7.390625 4.535156 -7.175781 4.171875 -6.75 C 3.804688 -6.320312 3.625 -5.648438 3.625 -4.734375 L 3.625 0 Z M 1.3125 0 "/></g></g></g><g fill="#ffffff" fill-opacity="1"><g transform="translate(332.365367, 162.003109)"><g><path d="M 3.5625 0.171875 C 2.976562 0.171875 2.46875 0.0664062 2.03125 -0.140625 C 1.601562 -0.359375 1.273438 -0.675781 1.046875 -1.09375 C 0.816406 -1.519531 0.703125 -2.023438 0.703125 -2.609375 C 0.703125 -3.148438 0.816406 -3.601562 1.046875 -3.96875 C 1.273438 -4.34375 1.632812 -4.644531 2.125 -4.875 C 2.613281 -5.113281 3.25 -5.296875 4.03125 -5.421875 C 4.582031 -5.503906 5 -5.597656 5.28125 -5.703125 C 5.570312 -5.816406 5.765625 -5.9375 5.859375 -6.0625 C 5.960938 -6.195312 6.015625 -6.367188 6.015625 -6.578125 C 6.015625 -6.867188 5.910156 -7.09375 5.703125 -7.25 C 5.492188 -7.40625 5.15625 -7.484375 4.6875 -7.484375 C 4.175781 -7.484375 3.691406 -7.367188 3.234375 -7.140625 C 2.773438 -6.910156 2.375 -6.613281 2.03125 -6.25 L 1.875 -6.25 L 0.90625 -7.6875 C 1.375 -8.207031 1.941406 -8.609375 2.609375 -8.890625 C 3.273438 -9.179688 4.003906 -9.328125 4.796875 -9.328125 C 6.003906 -9.328125 6.878906 -9.066406 7.421875 -8.546875 C 7.972656 -8.035156 8.25 -7.304688 8.25 -6.359375 L 8.25 -2.390625 C 8.25 -1.984375 8.425781 -1.78125 8.78125 -1.78125 C 8.914062 -1.78125 9.050781 -1.800781 9.1875 -1.84375 L 9.3125 -1.8125 L 9.46875 -0.21875 C 9.34375 -0.132812 9.164062 -0.0664062 8.9375 -0.015625 C 8.707031 0.0351562 8.457031 0.0625 8.1875 0.0625 C 7.644531 0.0625 7.21875 -0.0390625 6.90625 -0.25 C 6.601562 -0.457031 6.382812 -0.785156 6.25 -1.234375 L 6.078125 -1.25 C 5.628906 -0.300781 4.789062 0.171875 3.5625 0.171875 Z M 4.296875 -1.546875 C 4.828125 -1.546875 5.25 -1.722656 5.5625 -2.078125 C 5.882812 -2.429688 6.046875 -2.925781 6.046875 -3.5625 L 6.046875 -4.5 L 5.890625 -4.53125 C 5.753906 -4.414062 5.570312 -4.320312 5.34375 -4.25 C 5.125 -4.175781 4.804688 -4.101562 4.390625 -4.03125 C 3.890625 -3.945312 3.53125 -3.800781 3.3125 -3.59375 C 3.09375 -3.394531 2.984375 -3.113281 2.984375 -2.75 C 2.984375 -2.351562 3.097656 -2.050781 3.328125 -1.84375 C 3.554688 -1.644531 3.878906 -1.546875 4.296875 -1.546875 Z M 4.296875 -1.546875 "/></g></g></g><g fill="#ffffff" fill-opacity="1"><g transform="translate(342.014739, 162.003109)"><g><path d="M 3.796875 0.171875 C 2.972656 0.171875 2.34375 -0.046875 1.90625 -0.484375 C 1.476562 -0.929688 1.265625 -1.613281 1.265625 -2.53125 L 1.265625 -12.828125 L 3.5625 -12.828125 L 3.5625 -2.609375 C 3.5625 -2.054688 3.796875 -1.78125 4.265625 -1.78125 C 4.390625 -1.78125 4.53125 -1.800781 4.6875 -1.84375 L 4.796875 -1.8125 L 5 -0.046875 C 4.875 0.0234375 4.707031 0.078125 4.5 0.109375 C 4.289062 0.148438 4.054688 0.171875 3.796875 0.171875 Z M 3.796875 0.171875 "/></g></g></g><g fill="#ffffff" fill-opacity="1"><g transform="translate(190.631051, 185.253108)"><g><path d="M 5.34375 0.171875 C 4.457031 0.171875 3.671875 -0.0078125 2.984375 -0.375 C 2.304688 -0.75 1.773438 -1.289062 1.390625 -2 C 1.015625 -2.71875 0.828125 -3.578125 0.828125 -4.578125 C 0.828125 -5.578125 1.015625 -6.429688 1.390625 -7.140625 C 1.773438 -7.859375 2.304688 -8.398438 2.984375 -8.765625 C 3.660156 -9.140625 4.429688 -9.328125 5.296875 -9.328125 C 7.222656 -9.328125 8.457031 -8.628906 9 -7.234375 L 7.421875 -6.09375 L 7.25 -6.09375 C 7.0625 -6.53125 6.816406 -6.851562 6.515625 -7.0625 C 6.210938 -7.269531 5.804688 -7.375 5.296875 -7.375 C 4.628906 -7.375 4.109375 -7.144531 3.734375 -6.6875 C 3.367188 -6.226562 3.1875 -5.523438 3.1875 -4.578125 C 3.1875 -3.628906 3.375 -2.925781 3.75 -2.46875 C 4.125 -2.007812 4.65625 -1.78125 5.34375 -1.78125 C 5.832031 -1.78125 6.25 -1.910156 6.59375 -2.171875 C 6.945312 -2.441406 7.195312 -2.832031 7.34375 -3.34375 L 7.515625 -3.359375 L 9.15625 -2.453125 C 8.925781 -1.679688 8.492188 -1.050781 7.859375 -0.5625 C 7.234375 -0.0703125 6.394531 0.171875 5.34375 0.171875 Z M 5.34375 0.171875 "/></g></g></g><g fill="#ffffff" fill-opacity="1"><g transform="translate(200.064702, 185.253108)"><g><path d="M 5.328125 0.171875 C 4.421875 0.171875 3.628906 -0.0078125 2.953125 -0.375 C 2.273438 -0.75 1.75 -1.289062 1.375 -2 C 1.007812 -2.707031 0.828125 -3.566406 0.828125 -4.578125 C 0.828125 -5.578125 1.007812 -6.429688 1.375 -7.140625 C 1.75 -7.859375 2.273438 -8.398438 2.953125 -8.765625 C 3.628906 -9.140625 4.421875 -9.328125 5.328125 -9.328125 C 6.222656 -9.328125 7.007812 -9.140625 7.6875 -8.765625 C 8.363281 -8.398438 8.890625 -7.859375 9.265625 -7.140625 C 9.640625 -6.429688 9.828125 -5.578125 9.828125 -4.578125 C 9.828125 -3.566406 9.640625 -2.707031 9.265625 -2 C 8.890625 -1.289062 8.363281 -0.75 7.6875 -0.375 C 7.007812 -0.0078125 6.222656 0.171875 5.328125 0.171875 Z M 5.328125 -1.78125 C 6.742188 -1.78125 7.453125 -2.710938 7.453125 -4.578125 C 7.453125 -5.546875 7.269531 -6.253906 6.90625 -6.703125 C 6.539062 -7.148438 6.015625 -7.375 5.328125 -7.375 C 3.898438 -7.375 3.1875 -6.441406 3.1875 -4.578125 C 3.1875 -2.710938 3.898438 -1.78125 5.328125 -1.78125 Z M 5.328125 -1.78125 "/></g></g></g><g fill="#ffffff" fill-opacity="1"><g transform="translate(210.701413, 185.253108)"><g><path d="M 1.3125 0 L 1.3125 -9.15625 L 3.53125 -9.15625 L 3.53125 -7.921875 L 3.703125 -7.890625 C 4.003906 -8.390625 4.351562 -8.753906 4.75 -8.984375 C 5.15625 -9.210938 5.671875 -9.328125 6.296875 -9.328125 C 6.984375 -9.328125 7.535156 -9.191406 7.953125 -8.921875 C 8.378906 -8.648438 8.6875 -8.25 8.875 -7.71875 L 9.0625 -7.71875 C 9.34375 -8.269531 9.703125 -8.675781 10.140625 -8.9375 C 10.585938 -9.195312 11.144531 -9.328125 11.8125 -9.328125 C 13.707031 -9.328125 14.65625 -8.269531 14.65625 -6.15625 L 14.65625 0 L 12.359375 0 L 12.359375 -5.875 C 12.359375 -6.40625 12.253906 -6.789062 12.046875 -7.03125 C 11.835938 -7.269531 11.5 -7.390625 11.03125 -7.390625 C 9.769531 -7.390625 9.140625 -6.546875 9.140625 -4.859375 L 9.140625 0 L 6.84375 0 L 6.84375 -5.875 C 6.84375 -6.40625 6.734375 -6.789062 6.515625 -7.03125 C 6.304688 -7.269531 5.96875 -7.390625 5.5 -7.390625 C 4.90625 -7.390625 4.441406 -7.191406 4.109375 -6.796875 C 3.785156 -6.398438 3.625 -5.769531 3.625 -4.90625 L 3.625 0 Z M 1.3125 0 "/></g></g></g><g fill="#ffffff" fill-opacity="1"><g transform="translate(226.532024, 185.253108)"><g><path d="M 1.3125 0 L 1.3125 -9.15625 L 3.53125 -9.15625 L 3.53125 -7.921875 L 3.703125 -7.890625 C 4.003906 -8.390625 4.351562 -8.753906 4.75 -8.984375 C 5.15625 -9.210938 5.671875 -9.328125 6.296875 -9.328125 C 6.984375 -9.328125 7.535156 -9.191406 7.953125 -8.921875 C 8.378906 -8.648438 8.6875 -8.25 8.875 -7.71875 L 9.0625 -7.71875 C 9.34375 -8.269531 9.703125 -8.675781 10.140625 -8.9375 C 10.585938 -9.195312 11.144531 -9.328125 11.8125 -9.328125 C 13.707031 -9.328125 14.65625 -8.269531 14.65625 -6.15625 L 14.65625 0 L 12.359375 0 L 12.359375 -5.875 C 12.359375 -6.40625 12.253906 -6.789062 12.046875 -7.03125 C 11.835938 -7.269531 11.5 -7.390625 11.03125 -7.390625 C 9.769531 -7.390625 9.140625 -6.546875 9.140625 -4.859375 L 9.140625 0 L 6.84375 0 L 6.84375 -5.875 C 6.84375 -6.40625 6.734375 -6.789062 6.515625 -7.03125 C 6.304688 -7.269531 5.96875 -7.390625 5.5 -7.390625 C 4.90625 -7.390625 4.441406 -7.191406 4.109375 -6.796875 C 3.785156 -6.398438 3.625 -5.769531 3.625 -4.90625 L 3.625 0 Z M 1.3125 0 "/></g></g></g><g fill="#ffffff" fill-opacity="1"><g transform="translate(242.362636, 185.253108)"><g><path d="M 4.1875 0.171875 C 3.15625 0.171875 2.394531 -0.109375 1.90625 -0.671875 C 1.414062 -1.234375 1.171875 -2.039062 1.171875 -3.09375 L 1.171875 -9.15625 L 3.484375 -9.15625 L 3.484375 -3.375 C 3.484375 -2.820312 3.601562 -2.414062 3.84375 -2.15625 C 4.082031 -1.894531 4.453125 -1.765625 4.953125 -1.765625 C 5.585938 -1.765625 6.082031 -1.972656 6.4375 -2.390625 C 6.789062 -2.804688 6.96875 -3.460938 6.96875 -4.359375 L 6.96875 -9.15625 L 9.265625 -9.15625 L 9.265625 0 L 7.0625 0 L 7.0625 -1.34375 L 6.890625 -1.390625 C 6.597656 -0.859375 6.238281 -0.460938 5.8125 -0.203125 C 5.394531 0.046875 4.851562 0.171875 4.1875 0.171875 Z M 4.1875 0.171875 "/></g></g></g><g fill="#ffffff" fill-opacity="1"><g transform="translate(252.949565, 185.253108)"><g><path d="M 1.3125 0 L 1.3125 -9.15625 L 3.53125 -9.15625 L 3.53125 -7.8125 L 3.703125 -7.765625 C 4.273438 -8.804688 5.195312 -9.328125 6.46875 -9.328125 C 7.53125 -9.328125 8.304688 -9.039062 8.796875 -8.46875 C 9.296875 -7.894531 9.546875 -7.054688 9.546875 -5.953125 L 9.546875 0 L 7.25 0 L 7.25 -5.671875 C 7.25 -6.273438 7.125 -6.710938 6.875 -6.984375 C 6.632812 -7.253906 6.25 -7.390625 5.71875 -7.390625 C 5.050781 -7.390625 4.535156 -7.175781 4.171875 -6.75 C 3.804688 -6.320312 3.625 -5.648438 3.625 -4.734375 L 3.625 0 Z M 1.3125 0 "/></g></g></g><g fill="#ffffff" fill-opacity="1"><g transform="translate(263.669245, 185.253108)"><g><path d="M 2.46875 -10.25 C 2.050781 -10.25 1.710938 -10.375 1.453125 -10.625 C 1.191406 -10.875 1.0625 -11.203125 1.0625 -11.609375 C 1.0625 -11.992188 1.191406 -12.3125 1.453125 -12.5625 C 1.710938 -12.820312 2.050781 -12.953125 2.46875 -12.953125 C 2.738281 -12.953125 2.984375 -12.890625 3.203125 -12.765625 C 3.421875 -12.648438 3.585938 -12.492188 3.703125 -12.296875 C 3.828125 -12.097656 3.890625 -11.867188 3.890625 -11.609375 C 3.890625 -11.347656 3.828125 -11.113281 3.703125 -10.90625 C 3.585938 -10.695312 3.421875 -10.535156 3.203125 -10.421875 C 2.984375 -10.304688 2.738281 -10.25 2.46875 -10.25 Z M 1.3125 0 L 1.3125 -9.15625 L 3.625 -9.15625 L 3.625 0 Z M 1.3125 0 "/></g></g></g><g fill="#ffffff" fill-opacity="1"><g transform="translate(268.597643, 185.253108)"><g><path d="M 5.34375 0.171875 C 4.457031 0.171875 3.671875 -0.0078125 2.984375 -0.375 C 2.304688 -0.75 1.773438 -1.289062 1.390625 -2 C 1.015625 -2.71875 0.828125 -3.578125 0.828125 -4.578125 C 0.828125 -5.578125 1.015625 -6.429688 1.390625 -7.140625 C 1.773438 -7.859375 2.304688 -8.398438 2.984375 -8.765625 C 3.660156 -9.140625 4.429688 -9.328125 5.296875 -9.328125 C 7.222656 -9.328125 8.457031 -8.628906 9 -7.234375 L 7.421875 -6.09375 L 7.25 -6.09375 C 7.0625 -6.53125 6.816406 -6.851562 6.515625 -7.0625 C 6.210938 -7.269531 5.804688 -7.375 5.296875 -7.375 C 4.628906 -7.375 4.109375 -7.144531 3.734375 -6.6875 C 3.367188 -6.226562 3.1875 -5.523438 3.1875 -4.578125 C 3.1875 -3.628906 3.375 -2.925781 3.75 -2.46875 C 4.125 -2.007812 4.65625 -1.78125 5.34375 -1.78125 C 5.832031 -1.78125 6.25 -1.910156 6.59375 -2.171875 C 6.945312 -2.441406 7.195312 -2.832031 7.34375 -3.34375 L 7.515625 -3.359375 L 9.15625 -2.453125 C 8.925781 -1.679688 8.492188 -1.050781 7.859375 -0.5625 C 7.234375 -0.0703125 6.394531 0.171875 5.34375 0.171875 Z M 5.34375 0.171875 "/></g></g></g><g fill="#ffffff" fill-opacity="1"><g transform="translate(278.031294, 185.253108)"><g><path d="M 3.5625 0.171875 C 2.976562 0.171875 2.46875 0.0664062 2.03125 -0.140625 C 1.601562 -0.359375 1.273438 -0.675781 1.046875 -1.09375 C 0.816406 -1.519531 0.703125 -2.023438 0.703125 -2.609375 C 0.703125 -3.148438 0.816406 -3.601562 1.046875 -3.96875 C 1.273438 -4.34375 1.632812 -4.644531 2.125 -4.875 C 2.613281 -5.113281 3.25 -5.296875 4.03125 -5.421875 C 4.582031 -5.503906 5 -5.597656 5.28125 -5.703125 C 5.570312 -5.816406 5.765625 -5.9375 5.859375 -6.0625 C 5.960938 -6.195312 6.015625 -6.367188 6.015625 -6.578125 C 6.015625 -6.867188 5.910156 -7.09375 5.703125 -7.25 C 5.492188 -7.40625 5.15625 -7.484375 4.6875 -7.484375 C 4.175781 -7.484375 3.691406 -7.367188 3.234375 -7.140625 C 2.773438 -6.910156 2.375 -6.613281 2.03125 -6.25 L 1.875 -6.25 L 0.90625 -7.6875 C 1.375 -8.207031 1.941406 -8.609375 2.609375 -8.890625 C 3.273438 -9.179688 4.003906 -9.328125 4.796875 -9.328125 C 6.003906 -9.328125 6.878906 -9.066406 7.421875 -8.546875 C 7.972656 -8.035156 8.25 -7.304688 8.25 -6.359375 L 8.25 -2.390625 C 8.25 -1.984375 8.425781 -1.78125 8.78125 -1.78125 C 8.914062 -1.78125 9.050781 -1.800781 9.1875 -1.84375 L 9.3125 -1.8125 L 9.46875 -0.21875 C 9.34375 -0.132812 9.164062 -0.0664062 8.9375 -0.015625 C 8.707031 0.0351562 8.457031 0.0625 8.1875 0.0625 C 7.644531 0.0625 7.21875 -0.0390625 6.90625 -0.25 C 6.601562 -0.457031 6.382812 -0.785156 6.25 -1.234375 L 6.078125 -1.25 C 5.628906 -0.300781 4.789062 0.171875 3.5625 0.171875 Z M 4.296875 -1.546875 C 4.828125 -1.546875 5.25 -1.722656 5.5625 -2.078125 C 5.882812 -2.429688 6.046875 -2.925781 6.046875 -3.5625 L 6.046875 -4.5 L 5.890625 -4.53125 C 5.753906 -4.414062 5.570312 -4.320312 5.34375 -4.25 C 5.125 -4.175781 4.804688 -4.101562 4.390625 -4.03125 C 3.890625 -3.945312 3.53125 -3.800781 3.3125 -3.59375 C 3.09375 -3.394531 2.984375 -3.113281 2.984375 -2.75 C 2.984375 -2.351562 3.097656 -2.050781 3.328125 -1.84375 C 3.554688 -1.644531 3.878906 -1.546875 4.296875 -1.546875 Z M 4.296875 -1.546875 "/></g></g></g><g fill="#ffffff" fill-opacity="1"><g transform="translate(287.680665, 185.253108)"><g><path d="M 6.3125 -2.1875 L 6.921875 -0.484375 C 6.671875 -0.273438 6.351562 -0.113281 5.96875 0 C 5.59375 0.113281 5.171875 0.171875 4.703125 0.171875 C 3.710938 0.171875 2.957031 -0.09375 2.4375 -0.625 C 1.925781 -1.164062 1.671875 -1.953125 1.671875 -2.984375 L 1.671875 -7.34375 L 0.28125 -7.34375 L 0.28125 -9.171875 L 1.671875 -9.171875 L 1.671875 -10.953125 L 3.96875 -11.328125 L 3.96875 -9.171875 L 6.5625 -9.171875 L 6.5625 -7.34375 L 3.96875 -7.34375 L 3.96875 -3.15625 C 3.96875 -2.695312 4.0625 -2.363281 4.25 -2.15625 C 4.4375 -1.945312 4.710938 -1.84375 5.078125 -1.84375 C 5.484375 -1.84375 5.835938 -1.957031 6.140625 -2.1875 Z M 6.3125 -2.1875 "/></g></g></g><g fill="#ffffff" fill-opacity="1"><g transform="translate(294.791165, 185.253108)"><g><path d="M 2.46875 -10.25 C 2.050781 -10.25 1.710938 -10.375 1.453125 -10.625 C 1.191406 -10.875 1.0625 -11.203125 1.0625 -11.609375 C 1.0625 -11.992188 1.191406 -12.3125 1.453125 -12.5625 C 1.710938 -12.820312 2.050781 -12.953125 2.46875 -12.953125 C 2.738281 -12.953125 2.984375 -12.890625 3.203125 -12.765625 C 3.421875 -12.648438 3.585938 -12.492188 3.703125 -12.296875 C 3.828125 -12.097656 3.890625 -11.867188 3.890625 -11.609375 C 3.890625 -11.347656 3.828125 -11.113281 3.703125 -10.90625 C 3.585938 -10.695312 3.421875 -10.535156 3.203125 -10.421875 C 2.984375 -10.304688 2.738281 -10.25 2.46875 -10.25 Z M 1.3125 0 L 1.3125 -9.15625 L 3.625 -9.15625 L 3.625 0 Z M 1.3125 0 "/></g></g></g><g fill="#ffffff" fill-opacity="1"><g transform="translate(299.719563, 185.253108)"><g><path d="M 5.328125 0.171875 C 4.421875 0.171875 3.628906 -0.0078125 2.953125 -0.375 C 2.273438 -0.75 1.75 -1.289062 1.375 -2 C 1.007812 -2.707031 0.828125 -3.566406 0.828125 -4.578125 C 0.828125 -5.578125 1.007812 -6.429688 1.375 -7.140625 C 1.75 -7.859375 2.273438 -8.398438 2.953125 -8.765625 C 3.628906 -9.140625 4.421875 -9.328125 5.328125 -9.328125 C 6.222656 -9.328125 7.007812 -9.140625 7.6875 -8.765625 C 8.363281 -8.398438 8.890625 -7.859375 9.265625 -7.140625 C 9.640625 -6.429688 9.828125 -5.578125 9.828125 -4.578125 C 9.828125 -3.566406 9.640625 -2.707031 9.265625 -2 C 8.890625 -1.289062 8.363281 -0.75 7.6875 -0.375 C 7.007812 -0.0078125 6.222656 0.171875 5.328125 0.171875 Z M 5.328125 -1.78125 C 6.742188 -1.78125 7.453125 -2.710938 7.453125 -4.578125 C 7.453125 -5.546875 7.269531 -6.253906 6.90625 -6.703125 C 6.539062 -7.148438 6.015625 -7.375 5.328125 -7.375 C 3.898438 -7.375 3.1875 -6.441406 3.1875 -4.578125 C 3.1875 -2.710938 3.898438 -1.78125 5.328125 -1.78125 Z M 5.328125 -1.78125 "/></g></g></g><g fill="#ffffff" fill-opacity="1"><g transform="translate(310.356274, 185.253108)"><g><path d="M 1.3125 0 L 1.3125 -9.15625 L 3.53125 -9.15625 L 3.53125 -7.8125 L 3.703125 -7.765625 C 4.273438 -8.804688 5.195312 -9.328125 6.46875 -9.328125 C 7.53125 -9.328125 8.304688 -9.039062 8.796875 -8.46875 C 9.296875 -7.894531 9.546875 -7.054688 9.546875 -5.953125 L 9.546875 0 L 7.25 0 L 7.25 -5.671875 C 7.25 -6.273438 7.125 -6.710938 6.875 -6.984375 C 6.632812 -7.253906 6.25 -7.390625 5.71875 -7.390625 C 5.050781 -7.390625 4.535156 -7.175781 4.171875 -6.75 C 3.804688 -6.320312 3.625 -5.648438 3.625 -4.734375 L 3.625 0 Z M 1.3125 0 "/></g></g></g><path fill="#ffffff" d="M 100.429688 105.242188 L 100.429688 102.339844 C 100.429688 100.199219 101.230469 98.21875 102.621094 96.90625 C 105.992188 93.734375 107.925781 89.242188 107.925781 84.578125 C 107.925781 79.738281 105.875 75.128906 102.300781 71.933594 C 98.78125 68.789062 94.261719 67.351562 89.5625 67.878906 C 81.894531 68.746094 75.785156 75.058594 75.035156 82.898438 C 74.535156 88.148438 76.402344 93.222656 80.164062 96.820312 C 81.613281 98.207031 82.445312 100.214844 82.445312 102.332031 L 82.445312 105.242188 C 82.445312 106.066406 83.117188 106.738281 83.945312 106.738281 L 98.933594 106.738281 C 99.761719 106.738281 100.429688 106.066406 100.429688 105.242188 Z M 97.433594 103.742188 L 85.445312 103.742188 L 85.445312 102.332031 C 85.445312 99.402344 84.273438 96.601562 82.234375 94.652344 C 79.140625 91.695312 77.601562 87.515625 78.019531 83.183594 C 78.632812 76.75 83.628906 71.566406 89.898438 70.859375 C 93.734375 70.429688 97.429688 71.601562 100.304688 74.171875 C 103.242188 76.796875 104.925781 80.589844 104.925781 84.578125 C 104.925781 88.417969 103.339844 92.117188 100.566406 94.726562 C 98.574219 96.597656 97.433594 99.375 97.433594 102.339844 Z M 97.433594 103.742188 " fill-opacity="1" fill-rule="nonzero"/><path fill="#ffffff" d="M 83.945312 108.238281 L 98.933594 108.238281 L 98.933594 111.234375 L 83.945312 111.234375 Z M 83.945312 108.238281 " fill-opacity="1" fill-rule="nonzero"/><path fill="#ffffff" d="M 98.722656 115.105469 L 98.855469 114.707031 C 99.007812 114.25 98.929688 113.75 98.648438 113.355469 C 98.367188 112.964844 97.914062 112.734375 97.433594 112.734375 L 85.445312 112.734375 C 84.964844 112.734375 84.511719 112.964844 84.230469 113.355469 C 83.945312 113.75 83.871094 114.25 84.023438 114.707031 L 84.152344 115.105469 C 85.175781 118.167969 88.035156 120.226562 91.265625 120.226562 L 91.613281 120.226562 C 94.84375 120.226562 97.703125 118.167969 98.722656 115.105469 Z M 91.613281 117.230469 L 91.265625 117.230469 C 89.953125 117.230469 88.746094 116.664062 87.910156 115.730469 L 94.96875 115.730469 C 94.132812 116.664062 92.925781 117.230469 91.613281 117.230469 Z M 91.613281 117.230469 " fill-opacity="1" fill-rule="nonzero"/><path fill="#ffffff" d="M 67.460938 81.261719 L 71.957031 81.261719 L 71.957031 84.257812 L 67.460938 84.257812 Z M 67.460938 81.261719 " fill-opacity="1" fill-rule="nonzero"/><g clip-path="url(#bf4f713d0f)"><path fill="#ffffff" d="M 110.921875 81.261719 L 115.417969 81.261719 L 115.417969 84.257812 L 110.921875 84.257812 Z M 110.921875 81.261719 " fill-opacity="1" fill-rule="nonzero"/></g><path fill="#ffffff" d="M 73.421875 66.863281 L 75.542969 64.746094 L 78.722656 67.925781 L 76.601562 70.042969 Z M 73.421875 66.863281 " fill-opacity="1" fill-rule="nonzero"/><path fill="#ffffff" d="M 104.15625 67.925781 L 107.332031 64.746094 L 109.453125 66.863281 L 106.273438 70.042969 Z M 104.15625 67.925781 " fill-opacity="1" fill-rule="nonzero"/><g clip-path="url(#6364edc862)"><path fill="#ffffff" d="M 89.941406 60.28125 L 92.9375 60.28125 L 92.9375 64.777344 L 89.941406 64.777344 Z M 89.941406 60.28125 " fill-opacity="1" fill-rule="nonzero"/></g><g clip-path="url(#8a44b6ead7)"><path fill="#ffffff" d="M 26.296875 153.148438 C 26.425781 153.179688 26.558594 153.199219 26.6875 153.199219 C 27.109375 153.199219 27.519531 153.019531 27.808594 152.695312 L 36.703125 142.664062 C 36.855469 142.492188 36.96875 142.28125 37.027344 142.058594 L 46.335938 107.316406 C 47.40625 103.324219 45.03125 99.207031 41.039062 98.136719 C 37.042969 97.066406 32.929688 99.445312 31.859375 103.4375 L 22.550781 138.179688 C 22.488281 138.40625 22.484375 138.640625 22.53125 138.867188 L 25.21875 152 C 25.332031 152.554688 25.75 153 26.296875 153.148438 Z M 32.851562 142.488281 L 31.738281 143.746094 L 26.289062 142.285156 L 25.953125 140.640625 Z M 27.554688 148.460938 L 26.960938 145.566406 L 29.515625 146.25 Z M 34.519531 139.835938 L 31.625 139.058594 L 39.382812 110.105469 L 42.277344 110.882812 Z M 40.261719 101.03125 C 42.65625 101.671875 44.082031 104.144531 43.441406 106.539062 L 43.054688 107.984375 L 34.367188 105.660156 L 34.753906 104.210938 C 35.398438 101.816406 37.867188 100.390625 40.261719 101.03125 Z M 33.589844 108.554688 L 36.488281 109.332031 L 28.730469 138.285156 L 25.835938 137.507812 Z M 33.589844 108.554688 " fill-opacity="1" fill-rule="nonzero"/></g><path fill="#ffffff" d="M 92.9375 133.714844 L 92.9375 129.21875 L 89.941406 129.21875 L 89.941406 133.714844 C 89.941406 139.5 85.234375 144.207031 79.449219 144.207031 L 76.453125 144.207031 C 70.667969 144.207031 65.960938 139.5 65.960938 133.714844 L 65.960938 106.738281 C 65.960938 99.300781 59.910156 93.25 52.472656 93.25 L 50.976562 93.25 L 50.976562 96.25 L 52.472656 96.25 C 58.257812 96.25 62.964844 100.953125 62.964844 106.738281 L 62.964844 133.714844 C 62.964844 141.152344 69.015625 147.203125 76.453125 147.203125 L 79.449219 147.203125 C 86.886719 147.203125 92.9375 141.152344 92.9375 133.714844 Z M 92.9375 133.714844 " fill-opacity="1" fill-rule="nonzero"/><path fill="#ffffff" d="M 89.941406 123.222656 L 92.9375 123.222656 L 92.9375 126.222656 L 89.941406 126.222656 Z M 89.941406 123.222656 " fill-opacity="1" fill-rule="nonzero"/><path fill="#ffffff" d="M 99.160156 81.007812 L 94.773438 80.339844 L 92.796875 76.128906 C 92.550781 75.601562 92.019531 75.265625 91.4375 75.265625 C 90.859375 75.265625 90.328125 75.601562 90.082031 76.128906 L 88.109375 80.339844 L 83.722656 81.007812 C 83.164062 81.09375 82.703125 81.480469 82.527344 82.015625 C 82.347656 82.546875 82.484375 83.136719 82.875 83.535156 L 86.09375 86.835938 L 85.328125 91.511719 C 85.234375 92.078125 85.476562 92.648438 85.945312 92.976562 C 86.414062 93.308594 87.03125 93.339844 87.535156 93.066406 L 91.4375 90.90625 L 95.34375 93.0625 C 95.574219 93.1875 95.820312 93.25 96.070312 93.25 C 96.371094 93.25 96.675781 93.15625 96.933594 92.976562 C 97.402344 92.644531 97.640625 92.074219 97.550781 91.507812 L 96.785156 86.832031 L 100.003906 83.535156 C 100.398438 83.132812 100.53125 82.546875 100.351562 82.011719 C 100.171875 81.480469 99.714844 81.09375 99.160156 81.007812 Z M 94.113281 85.285156 C 93.78125 85.625 93.628906 86.101562 93.707031 86.570312 L 94.09375 88.949219 L 92.164062 87.882812 C 91.9375 87.757812 91.6875 87.695312 91.4375 87.695312 C 91.1875 87.695312 90.941406 87.757812 90.714844 87.882812 L 88.785156 88.949219 L 89.171875 86.570312 C 89.25 86.101562 89.097656 85.625 88.765625 85.285156 L 87.054688 83.53125 L 89.351562 83.179688 C 89.84375 83.105469 90.269531 82.789062 90.480469 82.335938 L 91.4375 80.292969 L 92.398438 82.335938 C 92.609375 82.789062 93.035156 83.105469 93.527344 83.179688 L 95.824219 83.53125 Z M 94.113281 85.285156 " fill-opacity="1" fill-rule="nonzero"/><path fill="#ffffff" d="M 44.980469 93.25 L 47.976562 93.25 L 47.976562 96.25 L 44.980469 96.25 Z M 44.980469 93.25 " fill-opacity="1" fill-rule="nonzero"/></svg>