<svg xmlns="http://www.w3.org/2000/svg" xmlns:xlink="http://www.w3.org/1999/xlink" width="300" zoomAndPan="magnify" viewBox="0 0 224.87999 374.999991" height="500" preserveAspectRatio="xMidYMid meet" version="1.2"><defs><clipPath id="0f177dd600"><path d="M 0 0.101562 L 224.761719 0.101562 L 224.761719 374.898438 L 0 374.898438 Z M 0 0.101562 "/></clipPath><linearGradient x1="0" gradientTransform="matrix(0.7496,0,0,0.7496,0,0.100004)" y1="250" x2="299.839987" gradientUnits="userSpaceOnUse" y2="250" id="5a6e972389"><stop style="stop-color:#0bc5ff;stop-opacity:1;" offset="0"/><stop style="stop-color:#0bc5ff;stop-opacity:1;" offset="0.0078125"/><stop style="stop-color:#0bc5fe;stop-opacity:1;" offset="0.015625"/><stop style="stop-color:#0bc4fd;stop-opacity:1;" offset="0.0234375"/><stop style="stop-color:#0bc4fc;stop-opacity:1;" offset="0.03125"/><stop style="stop-color:#0bc3fb;stop-opacity:1;" offset="0.0390625"/><stop style="stop-color:#0ac3fb;stop-opacity:1;" offset="0.046875"/><stop style="stop-color:#0ac3fa;stop-opacity:1;" offset="0.0546875"/><stop style="stop-color:#0ac2f9;stop-opacity:1;" offset="0.0625"/><stop style="stop-color:#0ac2f8;stop-opacity:1;" offset="0.0703125"/><stop style="stop-color:#0ac2f8;stop-opacity:1;" offset="0.078125"/><stop style="stop-color:#0ac1f7;stop-opacity:1;" offset="0.0859375"/><stop style="stop-color:#0ac1f6;stop-opacity:1;" offset="0.09375"/><stop style="stop-color:#0ac1f5;stop-opacity:1;" offset="0.101562"/><stop style="stop-color:#0ac0f4;stop-opacity:1;" offset="0.109375"/><stop style="stop-color:#0ac0f4;stop-opacity:1;" offset="0.117188"/><stop style="stop-color:#0abff3;stop-opacity:1;" offset="0.125"/><stop style="stop-color:#0abff2;stop-opacity:1;" offset="0.132812"/><stop style="stop-color:#09bff1;stop-opacity:1;" offset="0.140625"/><stop style="stop-color:#09bef0;stop-opacity:1;" offset="0.148437"/><stop style="stop-color:#09bef0;stop-opacity:1;" offset="0.15625"/><stop style="stop-color:#09beef;stop-opacity:1;" offset="0.164062"/><stop style="stop-color:#09bdee;stop-opacity:1;" offset="0.171875"/><stop style="stop-color:#09bded;stop-opacity:1;" offset="0.179687"/><stop style="stop-color:#09bcec;stop-opacity:1;" offset="0.1875"/><stop style="stop-color:#09bcec;stop-opacity:1;" offset="0.195312"/><stop style="stop-color:#09bceb;stop-opacity:1;" offset="0.203125"/><stop style="stop-color:#09bbea;stop-opacity:1;" offset="0.210938"/><stop style="stop-color:#09bbe9;stop-opacity:1;" offset="0.21875"/><stop style="stop-color:#09bbe9;stop-opacity:1;" offset="0.226562"/><stop style="stop-color:#08bae8;stop-opacity:1;" offset="0.234375"/><stop style="stop-color:#08bae7;stop-opacity:1;" offset="0.242188"/><stop style="stop-color:#08bae6;stop-opacity:1;" offset="0.25"/><stop style="stop-color:#08b9e5;stop-opacity:1;" offset="0.257812"/><stop style="stop-color:#08b9e5;stop-opacity:1;" offset="0.265625"/><stop style="stop-color:#08b8e4;stop-opacity:1;" offset="0.273437"/><stop style="stop-color:#08b8e3;stop-opacity:1;" offset="0.28125"/><stop style="stop-color:#08b8e2;stop-opacity:1;" offset="0.289062"/><stop style="stop-color:#08b7e1;stop-opacity:1;" offset="0.296875"/><stop style="stop-color:#08b7e1;stop-opacity:1;" offset="0.304687"/><stop style="stop-color:#08b7e0;stop-opacity:1;" offset="0.3125"/><stop style="stop-color:#07b6df;stop-opacity:1;" offset="0.320312"/><stop style="stop-color:#07b6de;stop-opacity:1;" offset="0.328125"/><stop style="stop-color:#07b5dd;stop-opacity:1;" offset="0.335937"/><stop style="stop-color:#07b5dd;stop-opacity:1;" offset="0.34375"/><stop style="stop-color:#07b5dc;stop-opacity:1;" offset="0.351562"/><stop style="stop-color:#07b4db;stop-opacity:1;" offset="0.359375"/><stop style="stop-color:#07b4da;stop-opacity:1;" offset="0.367187"/><stop style="stop-color:#07b4da;stop-opacity:1;" offset="0.375"/><stop style="stop-color:#07b3d9;stop-opacity:1;" offset="0.382812"/><stop style="stop-color:#07b3d8;stop-opacity:1;" offset="0.390625"/><stop style="stop-color:#07b3d7;stop-opacity:1;" offset="0.398438"/><stop style="stop-color:#07b2d6;stop-opacity:1;" offset="0.40625"/><stop style="stop-color:#06b2d6;stop-opacity:1;" offset="0.414062"/><stop style="stop-color:#06b1d5;stop-opacity:1;" offset="0.421875"/><stop style="stop-color:#06b1d4;stop-opacity:1;" offset="0.429688"/><stop style="stop-color:#06b1d3;stop-opacity:1;" offset="0.4375"/><stop style="stop-color:#06b0d2;stop-opacity:1;" offset="0.445312"/><stop style="stop-color:#06b0d2;stop-opacity:1;" offset="0.453125"/><stop style="stop-color:#06b0d1;stop-opacity:1;" offset="0.460938"/><stop style="stop-color:#06afd0;stop-opacity:1;" offset="0.46875"/><stop style="stop-color:#06afcf;stop-opacity:1;" offset="0.476562"/><stop style="stop-color:#06aecf;stop-opacity:1;" offset="0.484375"/><stop style="stop-color:#06aece;stop-opacity:1;" offset="0.492188"/><stop style="stop-color:#06aecd;stop-opacity:1;" offset="0.5"/><stop style="stop-color:#05adcc;stop-opacity:1;" offset="0.507812"/><stop style="stop-color:#05adcb;stop-opacity:1;" offset="0.515625"/><stop style="stop-color:#05adcb;stop-opacity:1;" offset="0.523438"/><stop style="stop-color:#05acca;stop-opacity:1;" offset="0.53125"/><stop style="stop-color:#05acc9;stop-opacity:1;" offset="0.539062"/><stop style="stop-color:#05acc8;stop-opacity:1;" offset="0.546875"/><stop style="stop-color:#05abc7;stop-opacity:1;" offset="0.554687"/><stop style="stop-color:#05abc7;stop-opacity:1;" offset="0.5625"/><stop style="stop-color:#05aac6;stop-opacity:1;" offset="0.570312"/><stop style="stop-color:#05aac5;stop-opacity:1;" offset="0.578125"/><stop style="stop-color:#05aac4;stop-opacity:1;" offset="0.585937"/><stop style="stop-color:#04a9c3;stop-opacity:1;" offset="0.59375"/><stop style="stop-color:#04a9c3;stop-opacity:1;" offset="0.601562"/><stop style="stop-color:#04a9c2;stop-opacity:1;" offset="0.609375"/><stop style="stop-color:#04a8c1;stop-opacity:1;" offset="0.617187"/><stop style="stop-color:#04a8c0;stop-opacity:1;" offset="0.625"/><stop style="stop-color:#04a7c0;stop-opacity:1;" offset="0.632812"/><stop style="stop-color:#04a7bf;stop-opacity:1;" offset="0.640625"/><stop style="stop-color:#04a7be;stop-opacity:1;" offset="0.648437"/><stop style="stop-color:#04a6bd;stop-opacity:1;" offset="0.65625"/><stop style="stop-color:#04a6bc;stop-opacity:1;" offset="0.664062"/><stop style="stop-color:#04a6bc;stop-opacity:1;" offset="0.671875"/><stop style="stop-color:#04a5bb;stop-opacity:1;" offset="0.679687"/><stop style="stop-color:#03a5ba;stop-opacity:1;" offset="0.6875"/><stop style="stop-color:#03a5b9;stop-opacity:1;" offset="0.695312"/><stop style="stop-color:#03a4b8;stop-opacity:1;" offset="0.703125"/><stop style="stop-color:#03a4b8;stop-opacity:1;" offset="0.710937"/><stop style="stop-color:#03a3b7;stop-opacity:1;" offset="0.71875"/><stop style="stop-color:#03a3b6;stop-opacity:1;" offset="0.726562"/><stop style="stop-color:#03a3b5;stop-opacity:1;" offset="0.734375"/><stop style="stop-color:#03a2b4;stop-opacity:1;" offset="0.742187"/><stop style="stop-color:#03a2b4;stop-opacity:1;" offset="0.75"/><stop style="stop-color:#03a2b3;stop-opacity:1;" offset="0.757812"/><stop style="stop-color:#03a1b2;stop-opacity:1;" offset="0.765625"/><stop style="stop-color:#03a1b1;stop-opacity:1;" offset="0.773437"/><stop style="stop-color:#02a0b1;stop-opacity:1;" offset="0.78125"/><stop style="stop-color:#02a0b0;stop-opacity:1;" offset="0.789062"/><stop style="stop-color:#02a0af;stop-opacity:1;" offset="0.796875"/><stop style="stop-color:#029fae;stop-opacity:1;" offset="0.804687"/><stop style="stop-color:#029fad;stop-opacity:1;" offset="0.8125"/><stop style="stop-color:#029fad;stop-opacity:1;" offset="0.820312"/><stop style="stop-color:#029eac;stop-opacity:1;" offset="0.828125"/><stop style="stop-color:#029eab;stop-opacity:1;" offset="0.835937"/><stop style="stop-color:#029eaa;stop-opacity:1;" offset="0.84375"/><stop style="stop-color:#029da9;stop-opacity:1;" offset="0.851562"/><stop style="stop-color:#029da9;stop-opacity:1;" offset="0.859375"/><stop style="stop-color:#029ca8;stop-opacity:1;" offset="0.867187"/><stop style="stop-color:#019ca7;stop-opacity:1;" offset="0.875"/><stop style="stop-color:#019ca6;stop-opacity:1;" offset="0.882812"/><stop style="stop-color:#019ba6;stop-opacity:1;" offset="0.890625"/><stop style="stop-color:#019ba5;stop-opacity:1;" offset="0.898437"/><stop style="stop-color:#019ba4;stop-opacity:1;" offset="0.90625"/><stop style="stop-color:#019aa3;stop-opacity:1;" offset="0.914062"/><stop style="stop-color:#019aa2;stop-opacity:1;" offset="0.921875"/><stop style="stop-color:#0199a2;stop-opacity:1;" offset="0.929687"/><stop style="stop-color:#0199a1;stop-opacity:1;" offset="0.9375"/><stop style="stop-color:#0199a0;stop-opacity:1;" offset="0.945312"/><stop style="stop-color:#01989f;stop-opacity:1;" offset="0.953125"/><stop style="stop-color:#00989e;stop-opacity:1;" offset="0.960937"/><stop style="stop-color:#00989e;stop-opacity:1;" offset="0.96875"/><stop style="stop-color:#00979d;stop-opacity:1;" offset="0.976562"/><stop style="stop-color:#00979c;stop-opacity:1;" offset="0.984375"/><stop style="stop-color:#00979b;stop-opacity:1;" offset="0.992187"/><stop style="stop-color:#00969a;stop-opacity:1;" offset="1"/></linearGradient><clipPath id="eb712b461d"><path d="M 112.441406 34.84375 L 224.761719 34.84375 L 224.761719 339.929688 L 112.441406 339.929688 Z M 112.441406 34.84375 "/></clipPath><clipPath id="6ab28bbf60"><path d="M 117 39 L 224.761719 39 L 224.761719 335 L 117 335 Z M 117 39 "/></clipPath><clipPath id="ea02625568"><path d="M 24 100 L 194 100 L 194 270 L 24 270 Z M 24 100 "/></clipPath><clipPath id="2323335aa0"><path d="M 21.699219 125.941406 L 168.140625 97.539062 L 196.542969 243.980469 L 50.101562 272.382812 Z M 21.699219 125.941406 "/></clipPath><clipPath id="7457851ae8"><path d="M 21.699219 125.941406 L 168.140625 97.539062 L 196.542969 243.980469 L 50.101562 272.382812 Z M 21.699219 125.941406 "/></clipPath><clipPath id="068d0ae76b"><path d="M 53 184 L 192 184 L 192 270 L 53 270 Z M 53 184 "/></clipPath><clipPath id="f74c48ac17"><path d="M 21.699219 125.941406 L 168.140625 97.539062 L 196.542969 243.980469 L 50.101562 272.382812 Z M 21.699219 125.941406 "/></clipPath><clipPath id="a937f6e850"><path d="M 21.699219 125.941406 L 168.140625 97.539062 L 196.542969 243.980469 L 50.101562 272.382812 Z M 21.699219 125.941406 "/></clipPath><clipPath id="f42059aebc"><path d="M 26 100 L 165 100 L 165 185 L 26 185 Z M 26 100 "/></clipPath><clipPath id="57ed6a8081"><path d="M 21.699219 125.941406 L 168.140625 97.539062 L 196.542969 243.980469 L 50.101562 272.382812 Z M 21.699219 125.941406 "/></clipPath><clipPath id="6fba9e06e0"><path d="M 21.699219 125.941406 L 168.140625 97.539062 L 196.542969 243.980469 L 50.101562 272.382812 Z M 21.699219 125.941406 "/></clipPath><clipPath id="f9252fb5f0"><path d="M 50.039062 103.363281 L 190.964844 103.363281 L 190.964844 244.285156 L 50.039062 244.285156 Z M 50.039062 103.363281 "/></clipPath><clipPath id="fc5add0b47"><path d="M 53 173 L 187 173 L 187 244.285156 L 53 244.285156 Z M 53 173 "/></clipPath><clipPath id="304ef8bd41"><path d="M 53 103.363281 L 187 103.363281 L 187 174 L 53 174 Z M 53 103.363281 "/></clipPath></defs><g id="bb99503075"><g clip-rule="nonzero" clip-path="url(#0f177dd600)"><path style=" stroke:none;fill-rule:nonzero;fill:#ffffff;fill-opacity:1;" d="M 0 0.101562 L 224.878906 0.101562 L 224.878906 374.898438 L 0 374.898438 Z M 0 0.101562 "/><path style=" stroke:none;fill-rule:nonzero;fill:url(#5a6e972389);" d="M 0 0.101562 L 0 374.898438 L 224.761719 374.898438 L 224.761719 0.101562 Z M 0 0.101562 "/></g><g clip-rule="nonzero" clip-path="url(#eb712b461d)"><path style=" stroke:none;fill-rule:nonzero;fill:#0097b2;fill-opacity:1;" d="M 417.527344 187.386719 C 417.527344 189.882812 417.464844 192.378906 417.34375 194.871094 C 417.222656 197.363281 417.039062 199.855469 416.792969 202.339844 C 416.546875 204.824219 416.242188 207.300781 415.875 209.769531 C 415.511719 212.238281 415.082031 214.699219 414.597656 217.144531 C 414.109375 219.59375 413.5625 222.03125 412.957031 224.453125 C 412.347656 226.875 411.683594 229.277344 410.957031 231.667969 C 410.234375 234.058594 409.449219 236.425781 408.609375 238.777344 C 407.769531 241.128906 406.871094 243.457031 405.914062 245.761719 C 404.960938 248.070312 403.949219 250.351562 402.882812 252.605469 C 401.8125 254.863281 400.691406 257.09375 399.515625 259.296875 C 398.339844 261.496094 397.109375 263.667969 395.824219 265.808594 C 394.542969 267.949219 393.207031 270.058594 391.820312 272.136719 C 390.433594 274.210938 388.996094 276.25 387.507812 278.257812 C 386.019531 280.261719 384.484375 282.230469 382.902344 284.160156 C 381.316406 286.089844 379.6875 287.980469 378.011719 289.828125 C 376.335938 291.679688 374.613281 293.484375 372.847656 295.25 C 371.082031 297.015625 369.273438 298.738281 367.425781 300.414062 C 365.574219 302.089844 363.6875 303.71875 361.757812 305.304688 C 359.828125 306.886719 357.859375 308.421875 355.855469 309.910156 C 353.847656 311.398438 351.808594 312.835938 349.730469 314.222656 C 347.65625 315.609375 345.546875 316.945312 343.40625 318.226562 C 341.265625 319.511719 339.09375 320.742188 336.890625 321.917969 C 334.691406 323.09375 332.460938 324.21875 330.203125 325.285156 C 327.949219 326.351562 325.664062 327.363281 323.359375 328.320312 C 321.054688 329.273438 318.722656 330.171875 316.375 331.011719 C 314.023438 331.855469 311.652344 332.636719 309.265625 333.363281 C 306.875 334.085938 304.46875 334.753906 302.046875 335.359375 C 299.625 335.964844 297.191406 336.511719 294.742188 337 C 292.292969 337.484375 289.835938 337.914062 287.367188 338.277344 C 284.898438 338.644531 282.421875 338.949219 279.933594 339.195312 C 277.449219 339.441406 274.960938 339.625 272.46875 339.746094 C 269.976562 339.867188 267.480469 339.929688 264.984375 339.929688 C 262.488281 339.929688 259.992188 339.867188 257.5 339.746094 C 255.003906 339.625 252.515625 339.441406 250.03125 339.195312 C 247.546875 338.949219 245.070312 338.644531 242.601562 338.277344 C 240.132812 337.914062 237.671875 337.484375 235.222656 337 C 232.773438 336.511719 230.339844 335.964844 227.917969 335.359375 C 225.496094 334.753906 223.089844 334.085938 220.703125 333.363281 C 218.3125 332.636719 215.945312 331.855469 213.59375 331.011719 C 211.242188 330.171875 208.914062 329.273438 206.609375 328.320312 C 204.300781 327.363281 202.019531 326.351562 199.761719 325.285156 C 197.507812 324.21875 195.277344 323.09375 193.074219 321.917969 C 190.875 320.742188 188.703125 319.511719 186.558594 318.226562 C 184.417969 316.945312 182.3125 315.609375 180.234375 314.222656 C 178.160156 312.835938 176.117188 311.398438 174.113281 309.910156 C 172.109375 308.421875 170.140625 306.886719 168.210938 305.304688 C 166.28125 303.722656 164.390625 302.089844 162.542969 300.414062 C 160.691406 298.738281 158.882812 297.015625 157.117188 295.25 C 155.355469 293.484375 153.632812 291.679688 151.957031 289.828125 C 150.28125 287.980469 148.648438 286.089844 147.066406 284.160156 C 145.480469 282.230469 143.945312 280.261719 142.460938 278.257812 C 140.972656 276.25 139.535156 274.210938 138.148438 272.136719 C 136.761719 270.058594 135.425781 267.949219 134.140625 265.808594 C 132.859375 263.667969 131.628906 261.496094 130.453125 259.296875 C 129.273438 257.09375 128.152344 254.863281 127.085938 252.609375 C 126.019531 250.351562 125.007812 248.070312 124.050781 245.761719 C 123.097656 243.457031 122.199219 241.128906 121.355469 238.777344 C 120.515625 236.425781 119.734375 234.058594 119.007812 231.667969 C 118.285156 229.277344 117.617188 226.875 117.011719 224.453125 C 116.40625 222.03125 115.859375 219.59375 115.371094 217.144531 C 114.882812 214.699219 114.457031 212.238281 114.089844 209.769531 C 113.726562 207.300781 113.417969 204.824219 113.175781 202.339844 C 112.929688 199.855469 112.746094 197.363281 112.625 194.871094 C 112.5 192.378906 112.441406 189.882812 112.441406 187.386719 C 112.441406 184.890625 112.5 182.394531 112.625 179.902344 C 112.746094 177.410156 112.929688 174.917969 113.175781 172.433594 C 113.417969 169.949219 113.726562 167.472656 114.089844 165.003906 C 114.457031 162.535156 114.882812 160.074219 115.371094 157.625 C 115.859375 155.179688 116.40625 152.742188 117.011719 150.320312 C 117.617188 147.898438 118.285156 145.496094 119.007812 143.105469 C 119.734375 140.714844 120.515625 138.347656 121.355469 135.996094 C 122.199219 133.644531 123.097656 131.316406 124.050781 129.011719 C 125.007812 126.703125 126.019531 124.421875 127.085938 122.164062 C 128.152344 119.910156 129.273438 117.679688 130.453125 115.476562 C 131.628906 113.277344 132.859375 111.105469 134.140625 108.964844 C 135.425781 106.824219 136.761719 104.714844 138.148438 102.636719 C 139.535156 100.5625 140.972656 98.523438 142.460938 96.515625 C 143.945312 94.511719 145.480469 92.542969 147.066406 90.613281 C 148.648438 88.683594 150.28125 86.792969 151.957031 84.945312 C 153.632812 83.09375 155.355469 81.289062 157.117188 79.523438 C 158.882812 77.757812 160.691406 76.035156 162.542969 74.359375 C 164.390625 72.683594 166.28125 71.050781 168.210938 69.46875 C 170.140625 67.886719 172.109375 66.351562 174.113281 64.863281 C 176.117188 63.375 178.160156 61.9375 180.234375 60.550781 C 182.3125 59.164062 184.417969 57.828125 186.558594 56.546875 C 188.703125 55.261719 190.875 54.03125 193.074219 52.855469 C 195.277344 51.679688 197.507812 50.554688 199.761719 49.488281 C 202.019531 48.421875 204.300781 47.410156 206.609375 46.453125 C 208.914062 45.5 211.242188 44.601562 213.59375 43.761719 C 215.945312 42.917969 218.3125 42.136719 220.703125 41.410156 C 223.089844 40.6875 225.496094 40.019531 227.917969 39.414062 C 230.339844 38.808594 232.773438 38.261719 235.222656 37.773438 C 237.671875 37.289062 240.132812 36.859375 242.601562 36.496094 C 245.070312 36.128906 247.546875 35.824219 250.03125 35.578125 C 252.515625 35.332031 255.003906 35.148438 257.5 35.027344 C 259.992188 34.90625 262.488281 34.84375 264.984375 34.84375 C 267.480469 34.84375 269.976562 34.90625 272.46875 35.027344 C 274.960938 35.148438 277.449219 35.332031 279.933594 35.578125 C 282.421875 35.824219 284.898438 36.128906 287.367188 36.496094 C 289.835938 36.859375 292.292969 37.289062 294.742188 37.773438 C 297.191406 38.261719 299.625 38.808594 302.046875 39.414062 C 304.46875 40.019531 306.875 40.6875 309.265625 41.410156 C 311.652344 42.136719 314.023438 42.917969 316.375 43.761719 C 318.722656 44.601562 321.054688 45.5 323.359375 46.453125 C 325.664062 47.410156 327.949219 48.421875 330.203125 49.488281 C 332.460938 50.554688 334.691406 51.679688 336.890625 52.855469 C 339.09375 54.03125 341.265625 55.261719 343.40625 56.546875 C 345.546875 57.828125 347.65625 59.164062 349.730469 60.550781 C 351.808594 61.9375 353.847656 63.375 355.855469 64.863281 C 357.859375 66.351562 359.828125 67.886719 361.757812 69.46875 C 363.6875 71.050781 365.574219 72.683594 367.425781 74.359375 C 369.273438 76.035156 371.082031 77.757812 372.847656 79.523438 C 374.613281 81.289062 376.335938 83.09375 378.011719 84.945312 C 379.6875 86.792969 381.316406 88.683594 382.902344 90.613281 C 384.484375 92.542969 386.019531 94.511719 387.507812 96.515625 C 388.996094 98.523438 390.433594 100.5625 391.820312 102.636719 C 393.207031 104.714844 394.542969 106.824219 395.824219 108.964844 C 397.109375 111.105469 398.339844 113.277344 399.515625 115.476562 C 400.691406 117.679688 401.8125 119.910156 402.882812 122.164062 C 403.949219 124.421875 404.960938 126.703125 405.914062 129.011719 C 406.871094 131.316406 407.769531 133.644531 408.609375 135.996094 C 409.449219 138.347656 410.234375 140.714844 410.957031 143.105469 C 411.683594 145.496094 412.347656 147.898438 412.957031 150.320312 C 413.5625 152.742188 414.109375 155.179688 414.597656 157.625 C 415.082031 160.074219 415.511719 162.535156 415.875 165.003906 C 416.242188 167.472656 416.546875 169.949219 416.792969 172.433594 C 417.039062 174.917969 417.222656 177.410156 417.34375 179.902344 C 417.464844 182.394531 417.527344 184.890625 417.527344 187.386719 Z M 417.527344 187.386719 "/></g><g clip-rule="nonzero" clip-path="url(#6ab28bbf60)"><path style=" stroke:none;fill-rule:nonzero;fill:#ffffff;fill-opacity:1;" d="M 264.984375 334.945312 C 245.066406 334.945312 225.734375 331.042969 207.546875 323.355469 C 198.800781 319.660156 190.367188 315.082031 182.480469 309.746094 C 174.671875 304.464844 167.316406 298.410156 160.644531 291.726562 C 153.972656 285.042969 147.90625 277.699219 142.625 269.890625 C 137.296875 262.003906 132.722656 253.566406 129.015625 244.820312 C 121.328125 226.636719 117.425781 207.304688 117.425781 187.386719 C 117.425781 167.46875 121.328125 148.136719 129.015625 129.953125 C 132.710938 121.207031 137.285156 112.769531 142.625 104.882812 C 147.90625 97.074219 153.960938 89.71875 160.644531 83.046875 C 167.328125 76.375 174.671875 70.308594 182.480469 65.027344 C 190.367188 59.699219 198.800781 55.125 207.546875 51.417969 C 225.746094 43.722656 245.066406 39.828125 264.984375 39.828125 C 284.902344 39.828125 304.234375 43.730469 322.417969 51.417969 C 331.164062 55.113281 339.601562 59.691406 347.488281 65.027344 C 355.292969 70.308594 362.648438 76.363281 369.324219 83.046875 C 375.996094 89.730469 382.058594 97.074219 387.34375 104.882812 C 392.667969 112.769531 397.246094 121.207031 400.953125 129.953125 C 408.648438 148.148438 412.542969 167.46875 412.542969 187.386719 C 412.542969 207.304688 408.636719 226.636719 400.953125 244.820312 C 397.257812 253.566406 392.679688 262.003906 387.34375 269.890625 C 382.058594 277.699219 376.003906 285.054688 369.324219 291.726562 C 362.640625 298.398438 355.292969 304.464844 347.488281 309.746094 C 339.601562 315.074219 331.164062 319.648438 322.417969 323.355469 C 304.234375 331.042969 284.902344 334.945312 264.984375 334.945312 Z M 264.984375 40.929688 C 184.222656 40.929688 118.527344 106.625 118.527344 187.386719 C 118.527344 268.148438 184.222656 333.84375 264.984375 333.84375 C 345.742188 333.84375 411.441406 268.148438 411.441406 187.386719 C 411.441406 106.625 345.742188 40.929688 264.984375 40.929688 Z M 264.984375 40.929688 "/></g><g clip-rule="nonzero" clip-path="url(#ea02625568)"><g clip-rule="nonzero" clip-path="url(#2323335aa0)"><g clip-rule="nonzero" clip-path="url(#7457851ae8)"><path style=" stroke:none;fill-rule:nonzero;fill:#e35f92;fill-opacity:1;" d="M 164.570312 102.425781 C 161.582031 100.414062 157.835938 99.535156 154.023438 100.277344 L 35.503906 123.261719 C 31.691406 124 28.542969 126.214844 26.527344 129.199219 C 24.511719 132.183594 23.636719 135.933594 24.375 139.746094 L 47.359375 258.257812 C 48.101562 262.070312 50.3125 265.21875 53.296875 267.234375 C 56.285156 269.25 60.03125 270.125 63.84375 269.386719 L 182.355469 246.402344 C 186.167969 245.664062 189.316406 243.449219 191.332031 240.464844 C 193.347656 237.480469 194.222656 233.730469 193.484375 229.917969 L 170.5 111.40625 C 169.765625 107.59375 167.546875 104.445312 164.570312 102.425781 Z M 164.570312 102.425781 "/></g></g></g><g clip-rule="nonzero" clip-path="url(#068d0ae76b)"><g clip-rule="nonzero" clip-path="url(#f74c48ac17)"><g clip-rule="nonzero" clip-path="url(#a937f6e850)"><path style=" stroke:none;fill-rule:nonzero;fill:#fb69ab;fill-opacity:1;" d="M 191.34375 240.46875 C 189.328125 243.457031 186.175781 245.667969 182.367188 246.40625 L 63.84375 269.394531 C 60.035156 270.132812 56.285156 269.257812 53.300781 267.242188 L 108.929688 184.839844 Z M 191.34375 240.46875 "/></g></g></g><g clip-rule="nonzero" clip-path="url(#f42059aebc)"><g clip-rule="nonzero" clip-path="url(#57ed6a8081)"><g clip-rule="nonzero" clip-path="url(#6fba9e06e0)"><path style=" stroke:none;fill-rule:nonzero;fill:#fb69ab;fill-opacity:1;" d="M 164.570312 102.425781 L 108.9375 184.832031 L 26.527344 129.199219 C 28.542969 126.214844 31.691406 124 35.503906 123.261719 L 154.015625 100.277344 C 157.835938 99.542969 161.585938 100.417969 164.570312 102.425781 Z M 164.570312 102.425781 "/></g></g></g><g clip-rule="nonzero" clip-path="url(#f9252fb5f0)"><path style=" stroke:none;fill-rule:nonzero;fill:#ffffff;fill-opacity:1;" d="M 186.894531 107.257812 C 184.484375 104.847656 181.164062 103.363281 177.492188 103.363281 L 63.335938 103.363281 C 59.667969 103.363281 56.34375 104.847656 53.9375 107.257812 C 51.527344 109.664062 50.039062 112.988281 50.039062 116.65625 L 50.039062 230.808594 C 50.039062 234.476562 51.527344 237.800781 53.9375 240.207031 C 56.34375 242.617188 59.667969 244.105469 63.335938 244.105469 L 177.488281 244.105469 C 181.15625 244.105469 184.480469 242.617188 186.886719 240.207031 C 189.296875 237.800781 190.78125 234.476562 190.78125 230.808594 L 190.78125 116.65625 C 190.789062 112.988281 189.296875 109.664062 186.894531 107.257812 Z M 186.894531 107.257812 "/></g><g clip-rule="nonzero" clip-path="url(#fc5add0b47)"><path style=" stroke:none;fill-rule:nonzero;fill:#ffffff;fill-opacity:1;" d="M 186.894531 240.214844 C 184.484375 242.625 181.164062 244.109375 177.492188 244.109375 L 63.335938 244.109375 C 59.667969 244.109375 56.34375 242.625 53.9375 240.214844 L 120.410156 173.738281 Z M 186.894531 240.214844 "/></g><g clip-rule="nonzero" clip-path="url(#304ef8bd41)"><path style=" stroke:none;fill-rule:nonzero;fill:#ffffff;fill-opacity:1;" d="M 186.894531 107.257812 L 120.417969 173.734375 L 53.9375 107.257812 C 56.34375 104.847656 59.667969 103.363281 63.335938 103.363281 L 177.488281 103.363281 C 181.164062 103.367188 184.484375 104.855469 186.894531 107.257812 Z M 186.894531 107.257812 "/></g><g style="fill:#063382;fill-opacity:1;"><g transform="translate(58.363852, 165.476492)"><path style="stroke:none" d="M 14.484375 -12.78125 L 14.484375 0 L 12.796875 0 L 12.796875 -9.53125 L 8.546875 0 L 7.375 0 L 3.109375 -9.546875 L 3.109375 0 L 1.421875 0 L 1.421875 -12.78125 L 3.234375 -12.78125 L 7.953125 -2.21875 L 12.6875 -12.78125 Z M 14.484375 -12.78125 "/></g></g><g style="fill:#063382;fill-opacity:1;"><g transform="translate(73.88774, 165.476492)"><path style="stroke:none" d="M 5.84375 0.171875 C 4.882812 0.171875 4.019531 -0.0390625 3.25 -0.46875 C 2.488281 -0.90625 1.890625 -1.519531 1.453125 -2.3125 C 1.015625 -3.113281 0.796875 -4.035156 0.796875 -5.078125 C 0.796875 -6.109375 1.019531 -7.019531 1.46875 -7.8125 C 1.914062 -8.613281 2.523438 -9.222656 3.296875 -9.640625 C 4.078125 -10.066406 4.945312 -10.28125 5.90625 -10.28125 C 6.863281 -10.28125 7.726562 -10.066406 8.5 -9.640625 C 9.28125 -9.222656 9.894531 -8.617188 10.34375 -7.828125 C 10.800781 -7.046875 11.03125 -6.128906 11.03125 -5.078125 C 11.03125 -4.035156 10.796875 -3.113281 10.328125 -2.3125 C 9.867188 -1.519531 9.242188 -0.90625 8.453125 -0.46875 C 7.671875 -0.0390625 6.800781 0.171875 5.84375 0.171875 Z M 5.84375 -1.3125 C 6.4375 -1.3125 7 -1.453125 7.53125 -1.734375 C 8.0625 -2.015625 8.488281 -2.4375 8.8125 -3 C 9.144531 -3.570312 9.3125 -4.265625 9.3125 -5.078125 C 9.3125 -5.890625 9.148438 -6.578125 8.828125 -7.140625 C 8.503906 -7.710938 8.082031 -8.132812 7.5625 -8.40625 C 7.050781 -8.6875 6.492188 -8.828125 5.890625 -8.828125 C 5.273438 -8.828125 4.710938 -8.6875 4.203125 -8.40625 C 3.691406 -8.132812 3.28125 -7.710938 2.96875 -7.140625 C 2.664062 -6.578125 2.515625 -5.890625 2.515625 -5.078125 C 2.515625 -4.253906 2.664062 -3.554688 2.96875 -2.984375 C 3.269531 -2.421875 3.671875 -2 4.171875 -1.71875 C 4.679688 -1.445312 5.238281 -1.3125 5.84375 -1.3125 Z M 5.84375 -1.3125 "/></g></g><g style="fill:#063382;fill-opacity:1;"><g transform="translate(85.332201, 165.476492)"><path style="stroke:none" d="M 3.109375 -8.484375 C 3.398438 -9.054688 3.816406 -9.503906 4.359375 -9.828125 C 4.910156 -10.148438 5.582031 -10.3125 6.375 -10.3125 L 6.375 -8.5625 L 5.921875 -8.5625 C 4.046875 -8.5625 3.109375 -7.539062 3.109375 -5.5 L 3.109375 0 L 1.421875 0 L 1.421875 -10.125 L 3.109375 -10.125 Z M 3.109375 -8.484375 "/></g></g><g style="fill:#063382;fill-opacity:1;"><g transform="translate(91.848125, 165.476492)"><path style="stroke:none" d="M 10.65625 -5.453125 C 10.65625 -5.128906 10.632812 -4.789062 10.59375 -4.4375 L 2.515625 -4.4375 C 2.578125 -3.4375 2.914062 -2.65625 3.53125 -2.09375 C 4.15625 -1.53125 4.910156 -1.25 5.796875 -1.25 C 6.523438 -1.25 7.128906 -1.414062 7.609375 -1.75 C 8.097656 -2.09375 8.441406 -2.550781 8.640625 -3.125 L 10.453125 -3.125 C 10.179688 -2.144531 9.640625 -1.347656 8.828125 -0.734375 C 8.015625 -0.128906 7.003906 0.171875 5.796875 0.171875 C 4.835938 0.171875 3.976562 -0.0390625 3.21875 -0.46875 C 2.46875 -0.90625 1.875 -1.519531 1.4375 -2.3125 C 1.007812 -3.113281 0.796875 -4.035156 0.796875 -5.078125 C 0.796875 -6.128906 1.003906 -7.046875 1.421875 -7.828125 C 1.835938 -8.617188 2.425781 -9.222656 3.1875 -9.640625 C 3.945312 -10.066406 4.816406 -10.28125 5.796875 -10.28125 C 6.753906 -10.28125 7.601562 -10.070312 8.34375 -9.65625 C 9.082031 -9.238281 9.648438 -8.660156 10.046875 -7.921875 C 10.453125 -7.191406 10.65625 -6.367188 10.65625 -5.453125 Z M 8.921875 -5.796875 C 8.921875 -6.441406 8.78125 -6.992188 8.5 -7.453125 C 8.21875 -7.910156 7.832031 -8.257812 7.34375 -8.5 C 6.851562 -8.738281 6.3125 -8.859375 5.71875 -8.859375 C 4.875 -8.859375 4.148438 -8.585938 3.546875 -8.046875 C 2.953125 -7.503906 2.613281 -6.753906 2.53125 -5.796875 Z M 8.921875 -5.796875 "/></g></g><g style="fill:#063382;fill-opacity:1;"><g transform="translate(102.923402, 165.476492)"><path style="stroke:none" d=""/></g></g><g style="fill:#063382;fill-opacity:1;"><g transform="translate(107.482675, 165.476492)"><path style="stroke:none" d="M 0.796875 -5.078125 C 0.796875 -6.128906 1.003906 -7.046875 1.421875 -7.828125 C 1.835938 -8.609375 2.414062 -9.210938 3.15625 -9.640625 C 3.90625 -10.066406 4.757812 -10.28125 5.71875 -10.28125 C 6.96875 -10.28125 7.992188 -9.976562 8.796875 -9.375 C 9.609375 -8.78125 10.140625 -7.945312 10.390625 -6.875 L 8.59375 -6.875 C 8.414062 -7.488281 8.078125 -7.972656 7.578125 -8.328125 C 7.078125 -8.679688 6.457031 -8.859375 5.71875 -8.859375 C 4.757812 -8.859375 3.984375 -8.53125 3.390625 -7.875 C 2.804688 -7.21875 2.515625 -6.285156 2.515625 -5.078125 C 2.515625 -3.859375 2.804688 -2.914062 3.390625 -2.25 C 3.984375 -1.582031 4.757812 -1.25 5.71875 -1.25 C 6.457031 -1.25 7.070312 -1.421875 7.5625 -1.765625 C 8.0625 -2.117188 8.40625 -2.613281 8.59375 -3.25 L 10.390625 -3.25 C 10.117188 -2.21875 9.578125 -1.390625 8.765625 -0.765625 C 7.953125 -0.140625 6.9375 0.171875 5.71875 0.171875 C 4.757812 0.171875 3.90625 -0.0390625 3.15625 -0.46875 C 2.414062 -0.90625 1.835938 -1.515625 1.421875 -2.296875 C 1.003906 -3.085938 0.796875 -4.015625 0.796875 -5.078125 Z M 0.796875 -5.078125 "/></g></g><g style="fill:#063382;fill-opacity:1;"><g transform="translate(118.317995, 165.476492)"><path style="stroke:none" d="M 5.84375 0.171875 C 4.882812 0.171875 4.019531 -0.0390625 3.25 -0.46875 C 2.488281 -0.90625 1.890625 -1.519531 1.453125 -2.3125 C 1.015625 -3.113281 0.796875 -4.035156 0.796875 -5.078125 C 0.796875 -6.109375 1.019531 -7.019531 1.46875 -7.8125 C 1.914062 -8.613281 2.523438 -9.222656 3.296875 -9.640625 C 4.078125 -10.066406 4.945312 -10.28125 5.90625 -10.28125 C 6.863281 -10.28125 7.726562 -10.066406 8.5 -9.640625 C 9.28125 -9.222656 9.894531 -8.617188 10.34375 -7.828125 C 10.800781 -7.046875 11.03125 -6.128906 11.03125 -5.078125 C 11.03125 -4.035156 10.796875 -3.113281 10.328125 -2.3125 C 9.867188 -1.519531 9.242188 -0.90625 8.453125 -0.46875 C 7.671875 -0.0390625 6.800781 0.171875 5.84375 0.171875 Z M 5.84375 -1.3125 C 6.4375 -1.3125 7 -1.453125 7.53125 -1.734375 C 8.0625 -2.015625 8.488281 -2.4375 8.8125 -3 C 9.144531 -3.570312 9.3125 -4.265625 9.3125 -5.078125 C 9.3125 -5.890625 9.148438 -6.578125 8.828125 -7.140625 C 8.503906 -7.710938 8.082031 -8.132812 7.5625 -8.40625 C 7.050781 -8.6875 6.492188 -8.828125 5.890625 -8.828125 C 5.273438 -8.828125 4.710938 -8.6875 4.203125 -8.40625 C 3.691406 -8.132812 3.28125 -7.710938 2.96875 -7.140625 C 2.664062 -6.578125 2.515625 -5.890625 2.515625 -5.078125 C 2.515625 -4.253906 2.664062 -3.554688 2.96875 -2.984375 C 3.269531 -2.421875 3.671875 -2 4.171875 -1.71875 C 4.679688 -1.445312 5.238281 -1.3125 5.84375 -1.3125 Z M 5.84375 -1.3125 "/></g></g><g style="fill:#063382;fill-opacity:1;"><g transform="translate(129.762456, 165.476492)"><path style="stroke:none" d="M 6.359375 -10.3125 C 7.585938 -10.3125 8.582031 -9.9375 9.34375 -9.1875 C 10.101562 -8.445312 10.484375 -7.375 10.484375 -5.96875 L 10.484375 0 L 8.828125 0 L 8.828125 -5.71875 C 8.828125 -6.726562 8.570312 -7.5 8.0625 -8.03125 C 7.5625 -8.570312 6.875 -8.84375 6 -8.84375 C 5.113281 -8.84375 4.410156 -8.566406 3.890625 -8.015625 C 3.367188 -7.460938 3.109375 -6.65625 3.109375 -5.59375 L 3.109375 0 L 1.421875 0 L 1.421875 -10.125 L 3.109375 -10.125 L 3.109375 -8.6875 C 3.429688 -9.195312 3.878906 -9.59375 4.453125 -9.875 C 5.023438 -10.164062 5.660156 -10.3125 6.359375 -10.3125 Z M 6.359375 -10.3125 "/></g></g><g style="fill:#063382;fill-opacity:1;"><g transform="translate(141.206917, 165.476492)"><path style="stroke:none" d="M 3.46875 -8.734375 L 3.46875 -2.765625 C 3.46875 -2.273438 3.570312 -1.925781 3.78125 -1.71875 C 3.988281 -1.519531 4.351562 -1.421875 4.875 -1.421875 L 6.109375 -1.421875 L 6.109375 0 L 4.59375 0 C 3.65625 0 2.953125 -0.210938 2.484375 -0.640625 C 2.023438 -1.078125 1.796875 -1.785156 1.796875 -2.765625 L 1.796875 -8.734375 L 0.484375 -8.734375 L 0.484375 -10.125 L 1.796875 -10.125 L 1.796875 -12.671875 L 3.46875 -12.671875 L 3.46875 -10.125 L 6.109375 -10.125 L 6.109375 -8.734375 Z M 3.46875 -8.734375 "/></g></g><g style="fill:#063382;fill-opacity:1;"><g transform="translate(147.556705, 165.476492)"><path style="stroke:none" d="M 10.65625 -5.453125 C 10.65625 -5.128906 10.632812 -4.789062 10.59375 -4.4375 L 2.515625 -4.4375 C 2.578125 -3.4375 2.914062 -2.65625 3.53125 -2.09375 C 4.15625 -1.53125 4.910156 -1.25 5.796875 -1.25 C 6.523438 -1.25 7.128906 -1.414062 7.609375 -1.75 C 8.097656 -2.09375 8.441406 -2.550781 8.640625 -3.125 L 10.453125 -3.125 C 10.179688 -2.144531 9.640625 -1.347656 8.828125 -0.734375 C 8.015625 -0.128906 7.003906 0.171875 5.796875 0.171875 C 4.835938 0.171875 3.976562 -0.0390625 3.21875 -0.46875 C 2.46875 -0.90625 1.875 -1.519531 1.4375 -2.3125 C 1.007812 -3.113281 0.796875 -4.035156 0.796875 -5.078125 C 0.796875 -6.128906 1.003906 -7.046875 1.421875 -7.828125 C 1.835938 -8.617188 2.425781 -9.222656 3.1875 -9.640625 C 3.945312 -10.066406 4.816406 -10.28125 5.796875 -10.28125 C 6.753906 -10.28125 7.601562 -10.070312 8.34375 -9.65625 C 9.082031 -9.238281 9.648438 -8.660156 10.046875 -7.921875 C 10.453125 -7.191406 10.65625 -6.367188 10.65625 -5.453125 Z M 8.921875 -5.796875 C 8.921875 -6.441406 8.78125 -6.992188 8.5 -7.453125 C 8.21875 -7.910156 7.832031 -8.257812 7.34375 -8.5 C 6.851562 -8.738281 6.3125 -8.859375 5.71875 -8.859375 C 4.875 -8.859375 4.148438 -8.585938 3.546875 -8.046875 C 2.953125 -7.503906 2.613281 -6.753906 2.53125 -5.796875 Z M 8.921875 -5.796875 "/></g></g><g style="fill:#063382;fill-opacity:1;"><g transform="translate(158.631982, 165.476492)"><path style="stroke:none" d="M 6.359375 -10.3125 C 7.585938 -10.3125 8.582031 -9.9375 9.34375 -9.1875 C 10.101562 -8.445312 10.484375 -7.375 10.484375 -5.96875 L 10.484375 0 L 8.828125 0 L 8.828125 -5.71875 C 8.828125 -6.726562 8.570312 -7.5 8.0625 -8.03125 C 7.5625 -8.570312 6.875 -8.84375 6 -8.84375 C 5.113281 -8.84375 4.410156 -8.566406 3.890625 -8.015625 C 3.367188 -7.460938 3.109375 -6.65625 3.109375 -5.59375 L 3.109375 0 L 1.421875 0 L 1.421875 -10.125 L 3.109375 -10.125 L 3.109375 -8.6875 C 3.429688 -9.195312 3.878906 -9.59375 4.453125 -9.875 C 5.023438 -10.164062 5.660156 -10.3125 6.359375 -10.3125 Z M 6.359375 -10.3125 "/></g></g><g style="fill:#063382;fill-opacity:1;"><g transform="translate(170.076443, 165.476492)"><path style="stroke:none" d="M 3.46875 -8.734375 L 3.46875 -2.765625 C 3.46875 -2.273438 3.570312 -1.925781 3.78125 -1.71875 C 3.988281 -1.519531 4.351562 -1.421875 4.875 -1.421875 L 6.109375 -1.421875 L 6.109375 0 L 4.59375 0 C 3.65625 0 2.953125 -0.210938 2.484375 -0.640625 C 2.023438 -1.078125 1.796875 -1.785156 1.796875 -2.765625 L 1.796875 -8.734375 L 0.484375 -8.734375 L 0.484375 -10.125 L 1.796875 -10.125 L 1.796875 -12.671875 L 3.46875 -12.671875 L 3.46875 -10.125 L 6.109375 -10.125 L 6.109375 -8.734375 Z M 3.46875 -8.734375 "/></g></g><g style="fill:#063382;fill-opacity:1;"><g transform="translate(56.431289, 187.96449)"><path style="stroke:none" d="M 0.796875 -5.078125 C 0.796875 -6.128906 1.003906 -7.046875 1.421875 -7.828125 C 1.835938 -8.609375 2.414062 -9.210938 3.15625 -9.640625 C 3.90625 -10.066406 4.757812 -10.28125 5.71875 -10.28125 C 6.96875 -10.28125 7.992188 -9.976562 8.796875 -9.375 C 9.609375 -8.78125 10.140625 -7.945312 10.390625 -6.875 L 8.59375 -6.875 C 8.414062 -7.488281 8.078125 -7.972656 7.578125 -8.328125 C 7.078125 -8.679688 6.457031 -8.859375 5.71875 -8.859375 C 4.757812 -8.859375 3.984375 -8.53125 3.390625 -7.875 C 2.804688 -7.21875 2.515625 -6.285156 2.515625 -5.078125 C 2.515625 -3.859375 2.804688 -2.914062 3.390625 -2.25 C 3.984375 -1.582031 4.757812 -1.25 5.71875 -1.25 C 6.457031 -1.25 7.070312 -1.421875 7.5625 -1.765625 C 8.0625 -2.117188 8.40625 -2.613281 8.59375 -3.25 L 10.390625 -3.25 C 10.117188 -2.21875 9.578125 -1.390625 8.765625 -0.765625 C 7.953125 -0.140625 6.9375 0.171875 5.71875 0.171875 C 4.757812 0.171875 3.90625 -0.0390625 3.15625 -0.46875 C 2.414062 -0.90625 1.835938 -1.515625 1.421875 -2.296875 C 1.003906 -3.085938 0.796875 -4.015625 0.796875 -5.078125 Z M 0.796875 -5.078125 "/></g></g><g style="fill:#063382;fill-opacity:1;"><g transform="translate(67.266609, 187.96449)"><path style="stroke:none" d="M 5.84375 0.171875 C 4.882812 0.171875 4.019531 -0.0390625 3.25 -0.46875 C 2.488281 -0.90625 1.890625 -1.519531 1.453125 -2.3125 C 1.015625 -3.113281 0.796875 -4.035156 0.796875 -5.078125 C 0.796875 -6.109375 1.019531 -7.019531 1.46875 -7.8125 C 1.914062 -8.613281 2.523438 -9.222656 3.296875 -9.640625 C 4.078125 -10.066406 4.945312 -10.28125 5.90625 -10.28125 C 6.863281 -10.28125 7.726562 -10.066406 8.5 -9.640625 C 9.28125 -9.222656 9.894531 -8.617188 10.34375 -7.828125 C 10.800781 -7.046875 11.03125 -6.128906 11.03125 -5.078125 C 11.03125 -4.035156 10.796875 -3.113281 10.328125 -2.3125 C 9.867188 -1.519531 9.242188 -0.90625 8.453125 -0.46875 C 7.671875 -0.0390625 6.800781 0.171875 5.84375 0.171875 Z M 5.84375 -1.3125 C 6.4375 -1.3125 7 -1.453125 7.53125 -1.734375 C 8.0625 -2.015625 8.488281 -2.4375 8.8125 -3 C 9.144531 -3.570312 9.3125 -4.265625 9.3125 -5.078125 C 9.3125 -5.890625 9.148438 -6.578125 8.828125 -7.140625 C 8.503906 -7.710938 8.082031 -8.132812 7.5625 -8.40625 C 7.050781 -8.6875 6.492188 -8.828125 5.890625 -8.828125 C 5.273438 -8.828125 4.710938 -8.6875 4.203125 -8.40625 C 3.691406 -8.132812 3.28125 -7.710938 2.96875 -7.140625 C 2.664062 -6.578125 2.515625 -5.890625 2.515625 -5.078125 C 2.515625 -4.253906 2.664062 -3.554688 2.96875 -2.984375 C 3.269531 -2.421875 3.671875 -2 4.171875 -1.71875 C 4.679688 -1.445312 5.238281 -1.3125 5.84375 -1.3125 Z M 5.84375 -1.3125 "/></g></g><g style="fill:#063382;fill-opacity:1;"><g transform="translate(78.71107, 187.96449)"><path style="stroke:none" d="M 13.59375 -10.3125 C 14.382812 -10.3125 15.085938 -10.144531 15.703125 -9.8125 C 16.316406 -9.488281 16.800781 -9 17.15625 -8.34375 C 17.507812 -7.695312 17.6875 -6.90625 17.6875 -5.96875 L 17.6875 0 L 16.03125 0 L 16.03125 -5.71875 C 16.03125 -6.726562 15.78125 -7.5 15.28125 -8.03125 C 14.78125 -8.570312 14.109375 -8.84375 13.265625 -8.84375 C 12.390625 -8.84375 11.691406 -8.5625 11.171875 -8 C 10.648438 -7.445312 10.390625 -6.640625 10.390625 -5.578125 L 10.390625 0 L 8.734375 0 L 8.734375 -5.71875 C 8.734375 -6.726562 8.484375 -7.5 7.984375 -8.03125 C 7.484375 -8.570312 6.8125 -8.84375 5.96875 -8.84375 C 5.09375 -8.84375 4.394531 -8.5625 3.875 -8 C 3.363281 -7.445312 3.109375 -6.640625 3.109375 -5.578125 L 3.109375 0 L 1.421875 0 L 1.421875 -10.125 L 3.109375 -10.125 L 3.109375 -8.65625 C 3.429688 -9.1875 3.875 -9.59375 4.4375 -9.875 C 5 -10.164062 5.617188 -10.3125 6.296875 -10.3125 C 7.148438 -10.3125 7.898438 -10.117188 8.546875 -9.734375 C 9.203125 -9.347656 9.691406 -8.785156 10.015625 -8.046875 C 10.296875 -8.765625 10.757812 -9.320312 11.40625 -9.71875 C 12.0625 -10.113281 12.789062 -10.3125 13.59375 -10.3125 Z M 13.59375 -10.3125 "/></g></g><g style="fill:#063382;fill-opacity:1;"><g transform="translate(97.354521, 187.96449)"><path style="stroke:none" d="M 2.296875 -11.765625 C 1.972656 -11.765625 1.695312 -11.875 1.46875 -12.09375 C 1.25 -12.3125 1.140625 -12.582031 1.140625 -12.90625 C 1.140625 -13.226562 1.25 -13.5 1.46875 -13.71875 C 1.695312 -13.945312 1.972656 -14.0625 2.296875 -14.0625 C 2.597656 -14.0625 2.851562 -13.945312 3.0625 -13.71875 C 3.28125 -13.5 3.390625 -13.226562 3.390625 -12.90625 C 3.390625 -12.582031 3.28125 -12.3125 3.0625 -12.09375 C 2.851562 -11.875 2.597656 -11.765625 2.296875 -11.765625 Z M 3.109375 -10.125 L 3.109375 0 L 1.421875 0 L 1.421875 -10.125 Z M 3.109375 -10.125 "/></g></g><g style="fill:#063382;fill-opacity:1;"><g transform="translate(101.526161, 187.96449)"><path style="stroke:none" d="M 6.359375 -10.3125 C 7.585938 -10.3125 8.582031 -9.9375 9.34375 -9.1875 C 10.101562 -8.445312 10.484375 -7.375 10.484375 -5.96875 L 10.484375 0 L 8.828125 0 L 8.828125 -5.71875 C 8.828125 -6.726562 8.570312 -7.5 8.0625 -8.03125 C 7.5625 -8.570312 6.875 -8.84375 6 -8.84375 C 5.113281 -8.84375 4.410156 -8.566406 3.890625 -8.015625 C 3.367188 -7.460938 3.109375 -6.65625 3.109375 -5.59375 L 3.109375 0 L 1.421875 0 L 1.421875 -10.125 L 3.109375 -10.125 L 3.109375 -8.6875 C 3.429688 -9.195312 3.878906 -9.59375 4.453125 -9.875 C 5.023438 -10.164062 5.660156 -10.3125 6.359375 -10.3125 Z M 6.359375 -10.3125 "/></g></g><g style="fill:#063382;fill-opacity:1;"><g transform="translate(112.970622, 187.96449)"><path style="stroke:none" d="M 5.59375 -10.28125 C 6.46875 -10.28125 7.234375 -10.085938 7.890625 -9.703125 C 8.554688 -9.328125 9.046875 -8.851562 9.359375 -8.28125 L 9.359375 -10.125 L 11.0625 -10.125 L 11.0625 0.21875 C 11.0625 1.144531 10.863281 1.96875 10.46875 2.6875 C 10.070312 3.40625 9.507812 3.96875 8.78125 4.375 C 8.050781 4.78125 7.195312 4.984375 6.21875 4.984375 C 4.894531 4.984375 3.785156 4.671875 2.890625 4.046875 C 2.003906 3.421875 1.484375 2.566406 1.328125 1.484375 L 2.984375 1.484375 C 3.171875 2.097656 3.550781 2.59375 4.125 2.96875 C 4.707031 3.34375 5.40625 3.53125 6.21875 3.53125 C 7.144531 3.53125 7.898438 3.238281 8.484375 2.65625 C 9.066406 2.082031 9.359375 1.269531 9.359375 0.21875 L 9.359375 -1.90625 C 9.023438 -1.3125 8.53125 -0.816406 7.875 -0.421875 C 7.226562 -0.0234375 6.46875 0.171875 5.59375 0.171875 C 4.695312 0.171875 3.878906 -0.046875 3.140625 -0.484375 C 2.410156 -0.929688 1.835938 -1.554688 1.421875 -2.359375 C 1.003906 -3.160156 0.796875 -4.070312 0.796875 -5.09375 C 0.796875 -6.132812 1.003906 -7.046875 1.421875 -7.828125 C 1.835938 -8.609375 2.410156 -9.210938 3.140625 -9.640625 C 3.878906 -10.066406 4.695312 -10.28125 5.59375 -10.28125 Z M 9.359375 -5.078125 C 9.359375 -5.835938 9.203125 -6.5 8.890625 -7.0625 C 8.585938 -7.632812 8.175781 -8.070312 7.65625 -8.375 C 7.132812 -8.675781 6.554688 -8.828125 5.921875 -8.828125 C 5.296875 -8.828125 4.722656 -8.675781 4.203125 -8.375 C 3.691406 -8.082031 3.28125 -7.65625 2.96875 -7.09375 C 2.664062 -6.53125 2.515625 -5.863281 2.515625 -5.09375 C 2.515625 -4.320312 2.664062 -3.648438 2.96875 -3.078125 C 3.28125 -2.503906 3.691406 -2.066406 4.203125 -1.765625 C 4.722656 -1.460938 5.296875 -1.3125 5.921875 -1.3125 C 6.554688 -1.3125 7.132812 -1.460938 7.65625 -1.765625 C 8.175781 -2.066406 8.585938 -2.503906 8.890625 -3.078125 C 9.203125 -3.648438 9.359375 -4.316406 9.359375 -5.078125 Z M 9.359375 -5.078125 "/></g></g><g style="fill:#063382;fill-opacity:1;"><g transform="translate(125.079607, 187.96449)"><path style="stroke:none" d=""/></g></g><g style="fill:#063382;fill-opacity:1;"><g transform="translate(129.638881, 187.96449)"><path style="stroke:none" d="M 5 0.171875 C 4.226562 0.171875 3.535156 0.0390625 2.921875 -0.21875 C 2.304688 -0.488281 1.816406 -0.859375 1.453125 -1.328125 C 1.097656 -1.804688 0.90625 -2.351562 0.875 -2.96875 L 2.609375 -2.96875 C 2.648438 -2.46875 2.882812 -2.054688 3.3125 -1.734375 C 3.738281 -1.410156 4.296875 -1.25 4.984375 -1.25 C 5.628906 -1.25 6.132812 -1.390625 6.5 -1.671875 C 6.875 -1.960938 7.0625 -2.320312 7.0625 -2.75 C 7.0625 -3.195312 6.863281 -3.523438 6.46875 -3.734375 C 6.070312 -3.953125 5.460938 -4.164062 4.640625 -4.375 C 3.890625 -4.570312 3.273438 -4.769531 2.796875 -4.96875 C 2.328125 -5.175781 1.921875 -5.476562 1.578125 -5.875 C 1.242188 -6.28125 1.078125 -6.8125 1.078125 -7.46875 C 1.078125 -7.976562 1.226562 -8.445312 1.53125 -8.875 C 1.84375 -9.3125 2.28125 -9.65625 2.84375 -9.90625 C 3.40625 -10.15625 4.050781 -10.28125 4.78125 -10.28125 C 5.90625 -10.28125 6.8125 -10 7.5 -9.4375 C 8.1875 -8.875 8.554688 -8.097656 8.609375 -7.109375 L 6.921875 -7.109375 C 6.890625 -7.640625 6.675781 -8.0625 6.28125 -8.375 C 5.894531 -8.695312 5.378906 -8.859375 4.734375 -8.859375 C 4.128906 -8.859375 3.644531 -8.726562 3.28125 -8.46875 C 2.925781 -8.21875 2.75 -7.882812 2.75 -7.46875 C 2.75 -7.132812 2.851562 -6.859375 3.0625 -6.640625 C 3.28125 -6.421875 3.550781 -6.242188 3.875 -6.109375 C 4.207031 -5.984375 4.664062 -5.84375 5.25 -5.6875 C 5.96875 -5.488281 6.554688 -5.296875 7.015625 -5.109375 C 7.472656 -4.921875 7.863281 -4.632812 8.1875 -4.25 C 8.519531 -3.863281 8.691406 -3.363281 8.703125 -2.75 C 8.703125 -2.195312 8.546875 -1.695312 8.234375 -1.25 C 7.929688 -0.8125 7.5 -0.460938 6.9375 -0.203125 C 6.375 0.046875 5.726562 0.171875 5 0.171875 Z M 5 0.171875 "/></g></g><g style="fill:#063382;fill-opacity:1;"><g transform="translate(138.905183, 187.96449)"><path style="stroke:none" d="M 5.84375 0.171875 C 4.882812 0.171875 4.019531 -0.0390625 3.25 -0.46875 C 2.488281 -0.90625 1.890625 -1.519531 1.453125 -2.3125 C 1.015625 -3.113281 0.796875 -4.035156 0.796875 -5.078125 C 0.796875 -6.109375 1.019531 -7.019531 1.46875 -7.8125 C 1.914062 -8.613281 2.523438 -9.222656 3.296875 -9.640625 C 4.078125 -10.066406 4.945312 -10.28125 5.90625 -10.28125 C 6.863281 -10.28125 7.726562 -10.066406 8.5 -9.640625 C 9.28125 -9.222656 9.894531 -8.617188 10.34375 -7.828125 C 10.800781 -7.046875 11.03125 -6.128906 11.03125 -5.078125 C 11.03125 -4.035156 10.796875 -3.113281 10.328125 -2.3125 C 9.867188 -1.519531 9.242188 -0.90625 8.453125 -0.46875 C 7.671875 -0.0390625 6.800781 0.171875 5.84375 0.171875 Z M 5.84375 -1.3125 C 6.4375 -1.3125 7 -1.453125 7.53125 -1.734375 C 8.0625 -2.015625 8.488281 -2.4375 8.8125 -3 C 9.144531 -3.570312 9.3125 -4.265625 9.3125 -5.078125 C 9.3125 -5.890625 9.148438 -6.578125 8.828125 -7.140625 C 8.503906 -7.710938 8.082031 -8.132812 7.5625 -8.40625 C 7.050781 -8.6875 6.492188 -8.828125 5.890625 -8.828125 C 5.273438 -8.828125 4.710938 -8.6875 4.203125 -8.40625 C 3.691406 -8.132812 3.28125 -7.710938 2.96875 -7.140625 C 2.664062 -6.578125 2.515625 -5.890625 2.515625 -5.078125 C 2.515625 -4.253906 2.664062 -3.554688 2.96875 -2.984375 C 3.269531 -2.421875 3.671875 -2 4.171875 -1.71875 C 4.679688 -1.445312 5.238281 -1.3125 5.84375 -1.3125 Z M 5.84375 -1.3125 "/></g></g><g style="fill:#063382;fill-opacity:1;"><g transform="translate(150.349644, 187.96449)"><path style="stroke:none" d="M 5.84375 0.171875 C 4.882812 0.171875 4.019531 -0.0390625 3.25 -0.46875 C 2.488281 -0.90625 1.890625 -1.519531 1.453125 -2.3125 C 1.015625 -3.113281 0.796875 -4.035156 0.796875 -5.078125 C 0.796875 -6.109375 1.019531 -7.019531 1.46875 -7.8125 C 1.914062 -8.613281 2.523438 -9.222656 3.296875 -9.640625 C 4.078125 -10.066406 4.945312 -10.28125 5.90625 -10.28125 C 6.863281 -10.28125 7.726562 -10.066406 8.5 -9.640625 C 9.28125 -9.222656 9.894531 -8.617188 10.34375 -7.828125 C 10.800781 -7.046875 11.03125 -6.128906 11.03125 -5.078125 C 11.03125 -4.035156 10.796875 -3.113281 10.328125 -2.3125 C 9.867188 -1.519531 9.242188 -0.90625 8.453125 -0.46875 C 7.671875 -0.0390625 6.800781 0.171875 5.84375 0.171875 Z M 5.84375 -1.3125 C 6.4375 -1.3125 7 -1.453125 7.53125 -1.734375 C 8.0625 -2.015625 8.488281 -2.4375 8.8125 -3 C 9.144531 -3.570312 9.3125 -4.265625 9.3125 -5.078125 C 9.3125 -5.890625 9.148438 -6.578125 8.828125 -7.140625 C 8.503906 -7.710938 8.082031 -8.132812 7.5625 -8.40625 C 7.050781 -8.6875 6.492188 -8.828125 5.890625 -8.828125 C 5.273438 -8.828125 4.710938 -8.6875 4.203125 -8.40625 C 3.691406 -8.132812 3.28125 -7.710938 2.96875 -7.140625 C 2.664062 -6.578125 2.515625 -5.890625 2.515625 -5.078125 C 2.515625 -4.253906 2.664062 -3.554688 2.96875 -2.984375 C 3.269531 -2.421875 3.671875 -2 4.171875 -1.71875 C 4.679688 -1.445312 5.238281 -1.3125 5.84375 -1.3125 Z M 5.84375 -1.3125 "/></g></g><g style="fill:#063382;fill-opacity:1;"><g transform="translate(161.794105, 187.96449)"><path style="stroke:none" d="M 6.359375 -10.3125 C 7.585938 -10.3125 8.582031 -9.9375 9.34375 -9.1875 C 10.101562 -8.445312 10.484375 -7.375 10.484375 -5.96875 L 10.484375 0 L 8.828125 0 L 8.828125 -5.71875 C 8.828125 -6.726562 8.570312 -7.5 8.0625 -8.03125 C 7.5625 -8.570312 6.875 -8.84375 6 -8.84375 C 5.113281 -8.84375 4.410156 -8.566406 3.890625 -8.015625 C 3.367188 -7.460938 3.109375 -6.65625 3.109375 -5.59375 L 3.109375 0 L 1.421875 0 L 1.421875 -10.125 L 3.109375 -10.125 L 3.109375 -8.6875 C 3.429688 -9.195312 3.878906 -9.59375 4.453125 -9.875 C 5.023438 -10.164062 5.660156 -10.3125 6.359375 -10.3125 Z M 6.359375 -10.3125 "/></g></g><g style="fill:#063382;fill-opacity:1;"><g transform="translate(173.238567, 187.96449)"><path style="stroke:none" d="M 3.59375 -12.875 L 3.390625 -3.640625 L 2 -3.640625 L 1.796875 -12.875 Z M 2.765625 0.109375 C 2.453125 0.109375 2.179688 0 1.953125 -0.21875 C 1.734375 -0.4375 1.625 -0.707031 1.625 -1.03125 C 1.625 -1.351562 1.734375 -1.625 1.953125 -1.84375 C 2.179688 -2.0625 2.453125 -2.171875 2.765625 -2.171875 C 3.078125 -2.171875 3.335938 -2.0625 3.546875 -1.84375 C 3.765625 -1.625 3.875 -1.351562 3.875 -1.03125 C 3.875 -0.707031 3.765625 -0.4375 3.546875 -0.21875 C 3.335938 0 3.078125 0.109375 2.765625 0.109375 Z M 2.765625 0.109375 "/></g></g></g></svg>